<svg xmlns="http://www.w3.org/2000/svg" width="36" height="36" viewBox="0 0 36 36"><path d="M0,0H36V36H0Z" fill="none"/><path d="M12.842,17.1a1.936,1.936,0,1,0,1.936,1.936A1.937,1.937,0,0,0,12.842,17.1Zm9.293,0a1.936,1.936,0,1,0,1.936,1.936A1.937,1.937,0,0,0,22.134,17.1ZM17.488,2A15.488,15.488,0,1,0,32.976,17.488,15.494,15.494,0,0,0,17.488,2Zm0,27.878A12.407,12.407,0,0,1,5.1,17.488a12.557,12.557,0,0,1,.077-1.332,15.584,15.584,0,0,0,8.069-8.317A15.448,15.448,0,0,0,25.883,14.39a15.117,15.117,0,0,0,3.485-.4A12.371,12.371,0,0,1,17.488,29.878Z" transform="translate(0.512 0.512)" fill="#ddd"/></svg>