<svg xmlns="http://www.w3.org/2000/svg" width="16" height="16" viewBox="0 0 16 16"><rect width="16" height="16" fill="none"/><path d="M12.415,8c0-.138-.006-.27-.018-.408l1.095-.846a.611.611,0,0,0,.153-.78l-1.1-1.938a.575.575,0,0,0-.736-.252l-1.266.546a4.446,4.446,0,0,0-.689-.408L9.683,2.528A.594.594,0,0,0,9.1,2h-2.2a.6.6,0,0,0-.589.528L6.146,3.914a4.446,4.446,0,0,0-.689.408L4.192,3.776a.575.575,0,0,0-.736.252l-1.1,1.944a.613.613,0,0,0,.153.78L3.6,7.6c-.012.132-.018.264-.018.4s.006.27.018.408l-1.095.846a.611.611,0,0,0-.153.78l1.1,1.938a.575.575,0,0,0,.736.252l1.266-.546a4.446,4.446,0,0,0,.689.408l.171,1.386A.594.594,0,0,0,6.9,14h2.2a.594.594,0,0,0,.583-.528l.171-1.386a4.446,4.446,0,0,0,.689-.408l1.266.546a.575.575,0,0,0,.736-.252l1.1-1.938a.613.613,0,0,0-.153-.78l-1.095-.846A3.161,3.161,0,0,0,12.415,8ZM8.024,10.1A2.1,2.1,0,1,1,10.084,8,2.083,2.083,0,0,1,8.024,10.1Z" transform="translate(0)" fill="#fbb03b"/></svg>