<svg xmlns="http://www.w3.org/2000/svg" width="120" height="100" viewBox="0 0 120 100"><g transform="translate(9.388 10.082)"><path d="M265.057,347.337c0-1.941,0-4.135,0-6.518l-83.754,0" transform="translate(-184.307 -276.186)" fill="#fff"/><path d="M191.336,359.94" transform="translate(-190.913 -288.782)" fill="#fff"/><path d="M192.519,152.817h9.347l13.559,0,15.692,0,15.862,0,14.069,0c3.4,0,6.8.064,10.2,0,.039,0,.159.015.134-.005s-.023-.02-.019.041c0,.085,0,.172,0,.257v2.291q0,2.448,0,4.9,0,7.18-.009,14.361-.005,8.591-.011,17.182,0,8.036-.01,16.072,0,1.658,0,3.316a.683.683,0,0,0,1.365,0q.006-7.732.01-15.463.006-8.669.011-17.339,0-7.712.009-15.425,0-4.746.005-9.492c0-.8.008-1.689-.92-1.993a4.166,4.166,0,0,0-1.246-.065h-6.147l-13.279,0-15.663,0-16.144,0-14.354,0H192.519a.683.683,0,0,0,0,1.365Z" transform="translate(-191.258 -151.428)" fill="#211715"/><path d="M191.9,340.778" transform="translate(-191.282 -276.159)" fill="none" stroke="#211715" stroke-miterlimit="10" stroke-width="1"/><path d="M191.063,359.291h19.372l16.619,0,18.071,0h18.918a.683.683,0,0,0,0-1.365H247.322l-18.074,0-16.921,0H191.063a.683.683,0,0,0,0,1.365Z" transform="translate(-190.299 -287.45)" fill="#211715"/><path d="M260.922,338.818h-70.3a.683.683,0,0,0,0,1.365h70.3a.683.683,0,0,0,0-1.365Z" transform="translate(-190.01 -274.868)" fill="#211715"/><path d="M292.7,334.677c0-1.7.015-1.8.015-2.815l8.765,0c0,1.314.01,1.89.01,2.813C299.7,334.672,295.492,334.677,292.7,334.677Z" transform="translate(-257.684 -270.284)" fill="#fff"/><path d="M328.015,334.677c0-1.7.015-1.8.015-2.815l8.765,0c0,1.314.01,1.89.01,2.813C335.015,334.672,330.809,334.677,328.015,334.677Z" transform="translate(-280.949 -270.284)" fill="#fff"/><path d="M237.491,348.964q-2.3,0-4.6.005l-8.318.012-9.753.015-8.9.013q-2.882,0-5.765.006h-.393a.683.683,0,0,0,0,1.365q2.6,0,5.2-.005l8.629-.012,9.771-.015,8.628-.013q2.6,0,5.2-.006h.3a.683.683,0,0,0,0-1.365Z" transform="translate(-196.031 -281.552)" fill="#211715"/><path d="M346.3,348.964q-3.942,0-7.883.017-5.29.014-10.58.027-2.171,0-4.342.007a.683.683,0,0,0,0,1.365q4.4,0,8.8-.017l10.327-.027q1.839,0,3.678-.006a.683.683,0,0,0,0-1.365Z" transform="translate(-277.536 -281.552)" fill="#211715"/><path d="M292.063,333.359c0-.938.014-1.877.015-2.815l-.683.683,8.765,0-.683-.683c0,.937.01,1.875.01,2.813l.683-.683q-4.4,0-8.79,0a.683.683,0,0,0,0,1.365q4.4,0,8.79,0a.692.692,0,0,0,.683-.683c0-.938-.01-1.876-.01-2.813a.692.692,0,0,0-.683-.683l-8.765,0a.692.692,0,0,0-.683.683c0,.938-.015,1.876-.015,2.815A.683.683,0,0,0,292.063,333.359Z" transform="translate(-256.367 -268.967)" fill="#211715"/><path d="M327.38,333.359c0-.938.014-1.877.015-2.815l-.683.683,8.765,0-.683-.683c0,.937.01,1.875.01,2.813l.683-.683q-4.4,0-8.79,0a.683.683,0,0,0,0,1.365q4.4,0,8.79,0a.693.693,0,0,0,.683-.683c0-.938-.01-1.876-.01-2.813a.693.693,0,0,0-.683-.683l-8.765,0a.693.693,0,0,0-.683.683c0,.938-.014,1.876-.015,2.815A.683.683,0,0,0,327.38,333.359Z" transform="translate(-279.631 -268.967)" fill="#211715"/><g transform="translate(15.639 56.67)"><path d="M237.923,328.091c0-4.353.025-3.625.025-6.222,3.71,0,9.818-.007,14.963-.007,0,3.366.018,3.853.018,6.218C249.872,328.08,242.693,328.091,237.923,328.091Z" transform="translate(-237.24 -320.368)" fill="#f4b467"/><path d="M237.288,326.774c0-2.074.025-4.148.025-6.222l-.683.683q7.481,0,14.963-.007l-.683-.683c0,2.073.017,4.145.018,6.218l.683-.683q-7.5,0-15.006.012a.683.683,0,0,0,0,1.365q7.5,0,15.006-.012a.692.692,0,0,0,.683-.683c0-2.073-.017-4.145-.018-6.218a.692.692,0,0,0-.683-.683q-7.481,0-14.963.007a.693.693,0,0,0-.683.683c0,2.074-.025,4.148-.025,6.222A.683.683,0,0,0,237.288,326.774Z" transform="translate(-235.923 -319.051)" fill="#211715"/><path d="M254.644,326.706c0-5.046.006-4.2.006-7.213.889,0,2.351-.008,3.583-.008,0,3.9,0,4.466,0,7.208C257.505,326.693,255.786,326.706,254.644,326.706Z" transform="translate(-248.255 -318.802)" fill="#fff"/><path d="M254.009,325.389q0-3.607.006-7.213l-.683.683c1.194,0,2.389-.008,3.583-.008l-.683-.683q0,3.6,0,7.208l.683-.683c-1.2,0-2.4.013-3.593.013a.683.683,0,0,0,0,1.365c1.2,0,2.4-.013,3.593-.013a.693.693,0,0,0,.683-.683q0-3.6,0-7.208a.692.692,0,0,0-.683-.683c-1.194,0-2.389.008-3.583.008a.693.693,0,0,0-.683.683q0,3.606-.006,7.213A.683.683,0,0,0,254.009,325.389Z" transform="translate(-246.938 -317.485)" fill="#211715"/></g><g transform="translate(43.671 11.949)"><path d="M335.092,283.884c-.025.085-.059.2-.1.346a2.748,2.748,0,0,0-.617-.183c-1.48-.271-3.1.056-3.149.821a2.037,2.037,0,0,0,.33,1.318c-.262.263-.454,1.018-.253,1.18l.19.4a.993.993,0,0,0-1.03.283c-.3.332-.535,1.05-.169,1.312l.532.379-.112-.039c-.615-.213-1.469.329-1.418.891a1.749,1.749,0,0,0,.7,1.089,9.7,9.7,0,0,0,2.618,3.157c.263.206.537.4.791.616a5.4,5.4,0,0,1,1.21,1.477,37.152,37.152,0,0,0,5.544-2.316c-.238-3.064-.338-6.092-.883-6.935-.692-1.071-1.618-1.543-1.87-2.7-.176-.8-.6-1.858-1.456-1.908a.774.774,0,0,0-.816.653S335.121,283.784,335.092,283.884Z" transform="translate(-325.462 -250.096)" fill="#fff"/><path d="M419.137,217.912a1.51,1.51,0,0,1,1.208-.353,1.425,1.425,0,0,1,1.025.681,2.015,2.015,0,0,1,.211.811,6.037,6.037,0,0,1-.616,3.2,3.84,3.84,0,0,1-.992,1.3,1.2,1.2,0,0,1-1.486.137,9.072,9.072,0,0,1-.393,1.42,11.983,11.983,0,0,1-4.53,5.176,7.739,7.739,0,0,0,.264,2.721c.491,1.212,3.137,2.74,3.319,2.819,0,0-.814,9.568-8.195,9.568-8.7,0-8.416-9.781-8.416-9.781.182-.079,2.415-1.394,2.906-2.606a8.7,8.7,0,0,0,.266-2.93,8.91,8.91,0,0,1-2.337-2,10.225,10.225,0,0,1-2.059-4.147l-.149.04a1.442,1.442,0,0,1-1.308-.413,3.84,3.84,0,0,1-.992-1.3,6.045,6.045,0,0,1-.616-3.2,2.016,2.016,0,0,1,.211-.811,1.425,1.425,0,0,1,1.025-.681,1.509,1.509,0,0,1,1.208.353s.466-9.69,10.072-9.69S419.137,217.912,419.137,217.912Z" transform="translate(-369.552 -200.789)" fill="#fff"/><path d="M421.531,198.016a8.187,8.187,0,0,0-.335-1.1,6.642,6.642,0,0,0-2.842-3.635l-1.837-1.381c-1.832-3.034-5.21-3.627-8.089-3.425-3.418.239-5.855,1.157-8.077,3.767a12.735,12.735,0,0,0-2.1,12.3.623.623,0,0,1,.09-.019,1.51,1.51,0,0,1,1.208.353l1.6-1.744c.67-.953,2.571-3.316,4.016-3.6a20.946,20.946,0,0,1,3.206-.026c1.942-.078,3.548-1,5.272-1.669.229-.089.461-.174.7-.252a.941.941,0,0,1,.409-.067.726.726,0,0,1,.412.239,13.664,13.664,0,0,1,4.218,7.684l.617-.56a1.51,1.51,0,0,1,1.208-.353,1.122,1.122,0,0,1,.134.028A13.037,13.037,0,0,0,421.531,198.016Z" transform="translate(-370.406 -187.76)" fill="#7a7473"/><path d="M445.023,272.41a6.709,6.709,0,0,0,.359,2.791,4.19,4.19,0,0,0,1.129,1.376,14,14,0,0,0,1.573,1.172,6.824,6.824,0,0,0,.862.516.7.7,0,0,0,.934-.245.688.688,0,0,0-.245-.934,6.357,6.357,0,0,1-.774-.459q-.34-.218-.669-.453c-.12-.086-.239-.173-.356-.263.1.077-.07-.057-.089-.072q-.088-.071-.174-.143a6.548,6.548,0,0,1-.627-.6c-.039-.042-.075-.087-.113-.13q-.073-.091,0,.009c-.022-.028-.042-.057-.063-.086a2.108,2.108,0,0,1-.177-.3c-.064-.135.044.158-.024-.074-.032-.108-.064-.215-.088-.326a3.5,3.5,0,0,1-.072-.52c-.032-.421-.027-.844-.024-1.265a.683.683,0,0,0-1.365,0Z" transform="translate(-401.695 -242.638)" fill="#211715"/><path d="M410.04,272.12a7.534,7.534,0,0,1-.151,2.1c-.008.027-.091.268-.042.15-.02.049-.046.1-.071.144a3.176,3.176,0,0,1-.184.289c-.046.062-.047.064,0,.005-.019.024-.039.048-.059.071-.042.047-.083.1-.125.142-.1.1-.195.2-.3.3-.177.167-.449.4-.582.5-.113.087-.382.281-.564.4a5.508,5.508,0,0,1-.755.461.688.688,0,0,0-.245.934.7.7,0,0,0,.934.245,5.893,5.893,0,0,0,.847-.524,10.508,10.508,0,0,0,1.425-1.143,3.776,3.776,0,0,0,1.027-1.573,8.439,8.439,0,0,0,.211-2.5.683.683,0,0,0-1.365,0Z" transform="translate(-376.567 -242.446)" fill="#211715"/><path d="M448.287,250.718a5.509,5.509,0,0,1-.331,1.5l-.072.213c0,.013-.075.2-.027.079s-.029.063-.039.082c-.023.047-.045.094-.068.14a12.305,12.305,0,0,1-1.065,1.712,7.8,7.8,0,0,1-3.785,3.1.683.683,0,0,0,.363,1.316,9.226,9.226,0,0,0,4.547-3.659,8.268,8.268,0,0,0,1.842-4.492c.036-.878-1.329-.877-1.365,0Z" transform="translate(-399.982 -228.349)" fill="#211715"/><path d="M402.217,247.127a13.043,13.043,0,0,0,1.776,5.474,8.523,8.523,0,0,0,5.531,4.038.7.7,0,0,0,.84-.477.688.688,0,0,0-.477-.84,7.228,7.228,0,0,1-4.79-3.53,11.841,11.841,0,0,1-1.515-4.665.7.7,0,0,0-.683-.683.687.687,0,0,0-.683.683Z" transform="translate(-373.497 -225.967)" fill="#211715"/><path d="M461.936,235.093a.8.8,0,0,1,1.16.19,1.908,1.908,0,0,1,.138.849,5.094,5.094,0,0,1-.073,1.019,5.367,5.367,0,0,1-.719,1.9c-.253.4-.66.941-1.133.815a.683.683,0,0,0-.363,1.316,2.411,2.411,0,0,0,2.561-1.271,6.444,6.444,0,0,0,1.045-2.9,3.312,3.312,0,0,0-.664-2.891,2.21,2.21,0,0,0-2.918.012.688.688,0,0,0,0,.965.7.7,0,0,0,.965,0Z" transform="translate(-411.868 -217.487)" fill="#211715"/><path d="M397.84,234.129a2.211,2.211,0,0,0-2.917-.012,3.375,3.375,0,0,0-.655,2.969,6.347,6.347,0,0,0,1.1,2.911,2.673,2.673,0,0,0,2.648,1.329c.858-.189.495-1.505-.363-1.316-.48.106-.993-.522-1.225-.87a5.289,5.289,0,0,1-.765-1.933,5.036,5.036,0,0,1-.084-1,2.005,2.005,0,0,1,.139-.919.8.8,0,0,1,1.161-.19.7.7,0,0,0,.965,0,.688.688,0,0,0,0-.965Z" transform="translate(-368.22 -217.488)" fill="#211715"/><path d="M397.534,202.879a12.123,12.123,0,0,1,1.719-11.144,9.527,9.527,0,0,1,4.627-3.326,13.81,13.81,0,0,1,5.568-.531,6.756,6.756,0,0,1,5.166,3.052c.46.747,1.642.062,1.179-.689-2.4-3.888-7.346-4.318-11.426-3.377a11.759,11.759,0,0,0-8.588,9.375,14.088,14.088,0,0,0,.439,7c.274.83,1.593.474,1.316-.363Z" transform="translate(-369.094 -186.441)" fill="#211715"/><path d="M407.359,219.705a13.157,13.157,0,0,1,2.375-2.615,2.9,2.9,0,0,1,1.389-.7,25.091,25.091,0,0,1,2.788.028,13.646,13.646,0,0,0,4.887-1.432c.373-.158.749-.309,1.131-.443a1.166,1.166,0,0,1,.346-.1c.136.044.351.353.445.451a15.683,15.683,0,0,1,1.536,1.867,11.1,11.1,0,0,1,2.069,5.017.7.7,0,0,0,.683.683.687.687,0,0,0,.683-.683,12.174,12.174,0,0,0-1.937-5.229,17.642,17.642,0,0,0-1.65-2.167c-.581-.654-1.212-1.511-2.2-1.271a18.448,18.448,0,0,0-2.654,1.059,10.924,10.924,0,0,1-2.694.831c-1.747.241-3.553-.417-5.131.628a12.979,12.979,0,0,0-3.248,3.388c-.508.719.675,1.4,1.179.689Z" transform="translate(-376.028 -203.982)" fill="#211715"/><path d="M456.911,201.9a6.517,6.517,0,0,1,2.838,4.216,11.98,11.98,0,0,1-.077,5.975.683.683,0,0,0,1.316.363,13.376,13.376,0,0,0,.047-6.82,7.812,7.812,0,0,0-3.436-4.914.683.683,0,0,0-.689,1.179Z" transform="translate(-409.308 -195.786)" fill="#211715"/><path d="M359.178,310.755c-.072-2.64-.177-5.639-.31-8.681l-.095.124-.313.41a39.785,39.785,0,0,1-3.777,4.183,5.77,5.77,0,0,1-4.407,1.363c-2.328-.377-3.346-2.591-4.3-4.752a91.629,91.629,0,0,1-3.31-9.554,34.329,34.329,0,0,0,6.995-2.869c.769,1.891,1.448,3.577,2.223,5.394,1.4-3.619,1.756-5.6,3.127-9.178a3.881,3.881,0,0,1,2.6-2.85c1.87-.845,6.351-2.561,8.618-3.576a7.963,7.963,0,0,1,1.817-2.678,15.127,15.127,0,0,0,4.368,3.044c.09.041.191.091.22.186a.35.35,0,0,1-.051.247h1.5a.351.351,0,0,1-.05-.247c.029-.095.13-.145.22-.186a15.133,15.133,0,0,0,4.369-3.044,7.831,7.831,0,0,1,1.739,2.5c1.988.8,7.059,2.746,8.969,3.669a5.629,5.629,0,0,1,1.751,1.061,5.8,5.8,0,0,1,1.042,1.922c1.381,3.605,1.663,5.517,3.044,9.122h-6.318c-.262,6.235-.519,13.573-.619,18.457-4.561,0-25.362-.047-28.941-.047C359.27,313.672,359.214,312.081,359.178,310.755Z" transform="translate(-334.273 -246.813)" fill="#fff"/><path d="M425.871,322.105a39.173,39.173,0,0,0,2.78-3.423c.255-.371.472-.571.5-.848a6.517,6.517,0,0,0-.063-1.084c-.53-5.951-1.315-15.253-2.326-23.934a3.782,3.782,0,0,1,.235-1.036c.145-.447.45-1.473.29-1.108-.163-.2-.323-.392-.475-.578-.265-.324-.5-.616-.665-.831l-1.976,0c-.165.214-.4.506-.664.828l-.328.4c.086.461.251.951.359,1.414.02.092.043.18.065.272a2.517,2.517,0,0,1,.1.6c-.735,7.994-1.679,17.875-2.339,24.712a1.545,1.545,0,0,0,.061.775,3.622,3.622,0,0,0,.4.612,27.9,27.9,0,0,0,2.749,3.254,1.114,1.114,0,0,0,.615.32.941.941,0,0,0,.674-.334Z" transform="translate(-386.095 -254.173)" fill="#65a0d4"/><path d="M330.441,302.65c.019.026.08.145.027.03-.063-.136,0,.109-.012-.041-.014-.133,0,.023,0,.054s0,.038,0,.056c0,.081.035-.163.007-.047-.01.038-.017.076-.028.114s-.064.176-.018.064-.018.029-.032.052a.289.289,0,0,0-.028.045c-.018.056.088-.092.045-.057a.232.232,0,0,0-.044.045c-.028.043.063-.053.072-.054a.522.522,0,0,0-.124.073c-.058.038.061-.024.065-.025a.411.411,0,0,0-.062.023,1.519,1.519,0,0,1-.174.047c-.158.032.1,0-.022,0-.045,0-.09,0-.135,0a.662.662,0,0,0-.089-.006s.142.03.074.008-.119-.035-.177-.053c-.078-.023.04.018.04.018-.017,0-.057-.027-.072-.034q-.084-.041-.164-.089c-.108-.064-.212-.135-.313-.209-.028-.021-.061-.042-.086-.065,0,0,.091.073.032.024s-.09-.073-.134-.111c-.089-.078-.167-.163-.248-.248s.054.086-.017-.019c-.032-.048-.064-.1-.093-.146l-.035-.064c-.062-.113.016.018.011.032a1.1,1.1,0,0,0-.051-.181c.006.007,0,.126.011.073a.266.266,0,0,0,0-.049c-.009-.112,0,.188,0,.035,0-.016.015-.032.016-.048,0,.007-.071.129-.033.085.015-.017.11-.164.034-.064s.035-.028.06-.054c.009-.01.038-.026.043-.038-.014.036-.133.089-.029.025.039-.024.078-.049.119-.071a.406.406,0,0,0,.071-.036c-.014.019-.144.051-.052.024.051-.015.1-.033.153-.044.019,0,.04-.006.058-.011.07-.019-.174,0-.045.009.045,0,.091,0,.136,0,.084,0-.14-.045-.068-.007a.649.649,0,0,0,.092.026.688.688,0,0,0,.84-.477.7.7,0,0,0-.477-.84,1.893,1.893,0,0,0-1.821.485,1.482,1.482,0,0,0-.457.933,1.682,1.682,0,0,0,.283,1.007,3,3,0,0,0,.689.754,4.241,4.241,0,0,0,.884.58,2.031,2.031,0,0,0,1.133.186,1.855,1.855,0,0,0,1-.426,1.656,1.656,0,0,0,.325-1.988.7.7,0,0,0-.934-.245.69.69,0,0,0-.245.934Z" transform="translate(-324.147 -261.481)" fill="#211715"/><path d="M332.479,295a2.082,2.082,0,0,0-1.45-.235,1.73,1.73,0,0,0-1.008.746,1.977,1.977,0,0,0-.34,1.159,1.229,1.229,0,0,0,.192.624,1.21,1.21,0,0,0,.33.327l.113.083c-.086-.065.081.066.1.08.508.411,1.045.782,1.57,1.17a4.12,4.12,0,0,0,.675.434,1.763,1.763,0,0,0,1.243.075,1.628,1.628,0,0,0,1.1-.99,1.691,1.691,0,0,0-.214-1.583.7.7,0,0,0-.934-.245.691.691,0,0,0-.245.934,1.212,1.212,0,0,1,.139.231c-.057-.136,0,.19,0-.008,0,.029,0,.22.007.118s0,.005-.011.032-.02.1-.037.114.084-.147.01-.038a.255.255,0,0,0-.034.056c-.02.079.089-.1.03-.036-.031.032-.043.091-.014.024s.024-.012-.026.015l-.063.036c-.121.072.022-.019.026-.009s-.109.035-.122.038c-.033.009-.067.013-.1.023-.093.026.126,0,.031,0l-.171,0c-.141,0,.05,0,.045.009s-.038-.013-.044-.011-.045-.017-.049-.017c.03,0,.166.083.066.025a6.174,6.174,0,0,1-.528-.34q-.512-.371-1.027-.737c-.014-.01-.119-.087-.056-.04s-.041-.032-.054-.043l-.172-.14c-.068-.055-.136-.111-.2-.165l-.191-.148-.055-.042q-.1-.073-.031-.021l.025.02q-.058-.06,0,.011c.059.083.021.025.01,0,.071.133.044.1.027.052-.038-.114.02.049.006.058,0,0,0-.094,0-.088,0-.112.014.057-.009.045a.855.855,0,0,1,.047-.185.385.385,0,0,1,.033-.091c-.087.108-.026.057,0,.01a.979.979,0,0,1,.109-.177c.011,0-.118.125-.026.039a.819.819,0,0,0,.079-.078c.051-.063-.109.052-.033.025a.625.625,0,0,0,.1-.057c.092-.057-.038.032-.038.015a.541.541,0,0,1,.089-.026c.117-.039-.021.014-.04,0a.689.689,0,0,0,.125,0c.025,0,.133.018.042,0s.056.016.075.021c.039.011.077.024.116.037-.113-.039.056.028.081.041a.683.683,0,0,0,.689-1.179Z" transform="translate(-325.716 -257.769)" fill="#211715"/><path d="M336.341,292.831c-.577-.468-1.137-.955-1.7-1.434q-.16-.135-.321-.268a1.152,1.152,0,0,0-.1-.077c-.06-.039-.054-.092.034.068s.045.134.035.08c.04.2.009.1.009.034,0,0,.007-.083,0-.085.033.024-.036.157,0,.021.019-.072.034-.143.058-.214a.448.448,0,0,1,.034-.093c-.083.125-.03.065-.009.031a.457.457,0,0,0,.056-.1c.029-.044.014-.026-.046.053a.6.6,0,0,1,.044-.048c.018-.016.108-.081.034-.034-.088.056.066-.031.068-.033-.024.014-.132.04-.013.008l.105-.028c.123-.032.008,0-.018,0,.046,0,.092,0,.138,0s.152.037.012,0c.054.015.108.028.161.044-.03-.009-.134-.069,0,0l.123.064q.133.072.262.149a5.7,5.7,0,0,1,.5.335c-.1-.073-.013-.009.005.006l.092.077c.076.065.151.131.223.2.133.125.262.256.384.392.034.037.067.075.1.114s.1.134.017.019c.042.06.085.12.123.183s.083.145.12.221c.008.017.057.129.025.053s.034.1.041.115l.007.024c.016.075.017.063,0-.036a.368.368,0,0,1,0,.151c.005-.012.042-.155,0-.029-.014.038-.075.18,0,.035-.016.032-.031.064-.049.095s-.118.145-.015.037c-.024.026-.046.053-.071.077a.693.693,0,0,1-.057.053q-.057.049.037-.029c-.028.012-.058.035-.086.05q.123-.048.008-.013l.071-.012c-.133-.024,0,0,.016.007-.053-.015-.157-.057-.052-.007a1.8,1.8,0,0,1-.272-.162c-.018-.013-.114-.084-.041-.028s-.071-.058-.085-.07a.7.7,0,0,0-.965,0,.69.69,0,0,0,0,.965,2.172,2.172,0,0,0,1.454.656,1.615,1.615,0,0,0,1.309-.978,1.737,1.737,0,0,0,.174-.8,2.225,2.225,0,0,0-.272-.87,4.258,4.258,0,0,0-.9-1.138,6.492,6.492,0,0,0-1.221-.922,2.242,2.242,0,0,0-1.648-.349,1.65,1.65,0,0,0-1.174,1.057,1.575,1.575,0,0,0-.022,1.353,2.207,2.207,0,0,0,.52.489c.17.143.338.287.507.432.42.36.843.717,1.273,1.066a.7.7,0,0,0,.965,0A.69.69,0,0,0,336.341,292.831Z" transform="translate(-327.858 -254.235)" fill="#211715"/><path d="M345.738,282.594c.032-.1.026-.153.1-.16.14-.013.282.131.36.223a2.886,2.886,0,0,1,.491,1.193c.287,1.142,1.167,1.777,1.822,2.689a2.012,2.012,0,0,1,.367.938,13.562,13.562,0,0,1,.205,1.436c.141,1.387.214,2.78.318,4.169.066.871,1.431.878,1.365,0-.1-1.3-.17-2.6-.292-3.9a10.63,10.63,0,0,0-.461-2.719c-.351-.933-1.21-1.492-1.729-2.31a6.366,6.366,0,0,1-.46-1.3,3.234,3.234,0,0,0-.77-1.275,1.74,1.74,0,0,0-1.628-.45,1.533,1.533,0,0,0-1.009,1.1c-.263.84,1.054,1.2,1.316.363Z" transform="translate(-335.405 -248.78)" fill="#211715"/><path d="M343.408,290.845a11.449,11.449,0,0,0,.592,2.226,3.151,3.151,0,0,1,.036,2.01.69.69,0,0,0,.477.84.7.7,0,0,0,.84-.477,4.445,4.445,0,0,0,.039-2.5,15.283,15.283,0,0,1-.619-2.1.7.7,0,0,0-.683-.683c-.334.015-.728.3-.683.683Z" transform="translate(-334.758 -254.766)" fill="#211715"/><path d="M336.72,287.346a2.8,2.8,0,0,0,1.872-1.089,1.579,1.579,0,0,0-.269-1.814,3.538,3.538,0,0,0-2.519-.794,3.836,3.836,0,0,0-2.248.525,1.58,1.58,0,0,0-.465.482,1.272,1.272,0,0,0-.127.3c-.007.024-.01.048-.015.072-.112.541.023-.277-.037.272a2.719,2.719,0,0,0,.342,1.423.688.688,0,0,0,.934.245.7.7,0,0,0,.245-.934c-.023-.049-.047-.1-.067-.148.006.015.025.062,0-.007s-.051-.143-.071-.217a1.6,1.6,0,0,1-.037-.17c.024.149.01-.029.01-.086,0-.015,0-.107,0-.015-.008.163-.024-.284.012-.09.011.061-.01.068,0,.018.007-.029.037-.071-.009.012-.054.1-.007.02.008,0,.04-.058-.05.065-.049.06,0-.035.1-.093.118-.115-.074.075-.065.048.011,0,.049-.029.1-.051.153-.08s-.035.015-.043.017c.035-.011.069-.026.1-.037.073-.025.147-.046.222-.065q.089-.022.179-.04l.125-.023c.006,0,.112-.016.038-.006s.035,0,.041,0l.135-.012q.121-.009.243-.013c.168,0,.335,0,.5.008q.11.007.219.017c.013,0,.163.017.092.009-.047-.006.079.012.092.014a3.313,3.313,0,0,1,.511.119l.1.034c-.012,0-.085-.039-.015-.007s.138.073.205.112c.024.014.045.031.068.046-.116-.075-.045-.038-.02-.01s.065.069.1.1c-.125-.127-.031-.011,0,.024.049.056-.045-.064-.029-.069a.853.853,0,0,1,.025.093c0,.016.005.034.01.05.023.081-.053-.008-.011-.084a.326.326,0,0,0,0,.1.4.4,0,0,0,0,.062c-.006-.009.038-.152.015-.105-.016.031-.069.157,0,.051s-.01,0-.022.032c-.034.087.025-.05.048-.056-.013,0-.037.043-.047.053s-.039.035-.054.052c-.061.067.03-.013.043-.03a.519.519,0,0,1-.153.1c-.06.034-.123.062-.185.094.118-.061-.04.016-.086.032a5.944,5.944,0,0,1-.6.176.683.683,0,0,0,.363,1.316Z" transform="translate(-327.84 -250.474)" fill="#211715"/><path d="M330.317,308.879a10.463,10.463,0,0,0,1.989,2.4c.4.352.846.655,1.232.985a4.765,4.765,0,0,1,.967,1.108.683.683,0,1,0,1.179-.689,6.22,6.22,0,0,0-1.062-1.28c-.4-.362-.839-.647-1.235-.988a9.008,9.008,0,0,1-1.891-2.224.683.683,0,0,0-1.179.689Z" transform="translate(-326.076 -266.421)" fill="#211715"/><path d="M323.983,236.476c1.518,4.124,3,8.261,4.548,12.373q.68,1.8,1.383,3.6a.7.7,0,0,0,.84.477.688.688,0,0,0,.477-.84c-1.706-4.341-3.289-8.73-4.886-13.113q-.521-1.431-1.046-2.862c-.3-.817-1.621-.464-1.316.363Z" transform="translate(-321.934 -218.856)" fill="#211715"/><path d="M320.16,229.692l.51,1.254a.754.754,0,0,0,.977.417l.849-.34a.752.752,0,0,0,.419-.975c-.288-.728-.382-.962-.5-1.253a1.348,1.348,0,0,0-1.592-.772A1.3,1.3,0,0,0,320.16,229.692Z" transform="translate(-319.382 -213.797)" fill="#fff"/><path d="M318.185,228.555l.272.669a2.528,2.528,0,0,0,.823,1.33,1.458,1.458,0,0,0,.746.226,1.914,1.914,0,0,0,.788-.2,2.256,2.256,0,0,0,1.336-.876,1.458,1.458,0,0,0,.18-.759,2.444,2.444,0,0,0-.223-.771q-.151-.38-.3-.761a2.625,2.625,0,0,0-.243-.519,2.171,2.171,0,0,0-.546-.556,1.99,1.99,0,0,0-1.241-.369,1.752,1.752,0,0,0-1.377.812,1.982,1.982,0,0,0-.213,1.772.7.7,0,0,0,.84.477.69.69,0,0,0,.476-.84c-.022-.057-.1-.209-.078-.275l.011.073c0-.027,0-.054,0-.081s-.012-.107,0-.132c0,.005-.037.163,0,.028.011-.041.019-.082.032-.123.036-.116.044-.02-.007,0a1.04,1.04,0,0,0,.067-.13c.02-.034.044-.066.065-.1.05-.079-.114.112-.006.012.022-.02.041-.043.063-.064l.032-.029c.045-.037.044-.037,0,0l-.035.028c.023-.015.045-.03.069-.043.085-.061-.034.018-.058.018a.611.611,0,0,0,.11-.034l.038-.009q.109-.019-.065.007a.834.834,0,0,0,.18,0c.092,0,.064.049-.04-.009a.435.435,0,0,0,.081.016c.033.007.169.072.2.061-.048.017-.127-.063-.047-.018.043.024.088.046.13.073a.616.616,0,0,0,.088.061c-.039.015-.105-.095-.038-.025.03.031.061.062.092.092.077.073-.045-.027-.024-.037a1.131,1.131,0,0,1,.115.189c.025.045.034.123-.022-.056.008.024.019.048.029.071q.115.287.229.574.088.219.174.439c.03.076.055.155.086.231.053.13.012-.144,0-.007v.043c-.005.075,0,.058.009-.053-.008,0-.014.089-.023.082-.028-.021.084-.141.008-.027s.017-.018.02-.016-.065.057-.061.061.128-.1-.005,0c-.024.016-.107.046.021-.006l-.333.134c-.18.072-.359.147-.541.211-.119.042.04-.018.051,0h-.13c.007-.008.175.031.055,0s.111.075,0,.006c-.134-.086,0,.006,0,.01l-.032-.029q-.073-.08.021.039a.745.745,0,0,1-.048-.075c-.067-.1.037.1-.018-.037-.074-.185-.15-.369-.225-.554l-.236-.582a.7.7,0,0,0-.84-.476A.69.69,0,0,0,318.185,228.555Z" transform="translate(-318.066 -212.478)" fill="#211715"/><path d="M427.34,298.818c.944,0,1.887-.021,2.831-.021a.683.683,0,0,0,0-1.365c-.944,0-1.887.021-2.831.021a.683.683,0,1,0,0,1.365Z" transform="translate(-389.599 -259.555)" fill="#211715"/><path d="M421.228,291.876c.128.6.339,1.187.454,1.793a6.2,6.2,0,0,1-.09,1.661q-.153,1.651-.307,3.3-.326,3.493-.657,6.985c-.408,4.307-.828,8.613-1.236,12.92a2.19,2.19,0,0,0,.283,1.487,17.958,17.958,0,0,0,1.134,1.515q.589.742,1.229,1.442a4.537,4.537,0,0,0,1.284,1.166c1.167.547,1.958-.635,2.619-1.409.74-.866,1.431-1.761,2.1-2.683a2.012,2.012,0,0,0,.5-1.267c0-.474-.078-.955-.12-1.428q-.127-1.438-.254-2.877-.286-3.234-.582-6.466-.377-4.078-.8-8.152-.216-2.074-.447-4.146-.062-.555-.126-1.111a2.8,2.8,0,0,1-.035-.9c.114-.551.34-1.083.481-1.629a.683.683,0,0,0-1.316-.363c-.1.4-.232.793-.356,1.187a4.262,4.262,0,0,0-.2.922,4.948,4.948,0,0,0,.08.942q.2,1.751.387,3.5.378,3.545.714,7.1c.388,4.07.743,8.144,1.1,12.217a4.66,4.66,0,0,1,.1,1.309,1.174,1.174,0,0,1-.228.357c-.188.257-.368.519-.557.775-.614.827-1.286,1.611-1.965,2.384-.12.137-.3.438-.473.5-.1.037.094.064-.055.007a.806.806,0,0,1-.252-.213q-.63-.648-1.218-1.334c-.358-.417-.7-.844-1.033-1.284-.183-.245-.381-.488-.543-.747a.949.949,0,0,1-.108-.681c.351-4.1.788-8.2,1.177-12.293q.353-3.718.7-7.436.168-1.8.334-3.6a6.962,6.962,0,0,0,.073-1.873c-.121-.657-.347-1.29-.485-1.943-.182-.859-1.5-.5-1.316.363Z" transform="translate(-384.8 -255.332)" fill="#211715"/><path d="M430.3,287.263l-1.972,0a.683.683,0,1,0,0,1.365l1.972,0a.683.683,0,0,0,0-1.365Z" transform="translate(-390.249 -252.856)" fill="#211715"/><path d="M436.476,284.09a19.53,19.53,0,0,0,2.746-3.724c.2-.326.393-.652.591-.977a.973.973,0,0,0,.207-.642,1.728,1.728,0,0,0-.271-.6,7.987,7.987,0,0,0-1.439-1.848.694.694,0,0,0-.965,0A14.2,14.2,0,0,1,435,278.2c-.413.267-.837.516-1.274.741s-1,.372-1.147.891a1.212,1.212,0,0,0,.313,1.05c.285.378.586.745.886,1.111.574.7,1.158,1.395,1.73,2.1a.688.688,0,0,0,.965,0,.7.7,0,0,0,0-.965c-.478-.587-.964-1.166-1.445-1.75-.271-.329-.542-.658-.807-.991-.073-.092-.147-.184-.217-.279-.03-.042-.06-.1-.095-.134-.063-.07.02-.088.01.042l-.093.345q-.179.147-.025.059l.1-.046c.1-.048.2-.1.306-.147q.311-.154.614-.324.625-.349,1.216-.755a15.9,15.9,0,0,0,2.269-1.879h-.965a7.129,7.129,0,0,1,1.416,1.919v-.689a24.266,24.266,0,0,1-3.251,4.631A.683.683,0,0,0,436.476,284.09Z" transform="translate(-393.481 -245.505)" fill="#211715"/><path d="M415.1,283.125a24.273,24.273,0,0,1-3.251-4.631v.689a7.129,7.129,0,0,1,1.416-1.919h-.965a15.947,15.947,0,0,0,2.269,1.879q.59.405,1.215.755.278.155.563.3.153.076.306.148l.153.071q.154.088-.025-.059l-.093-.345c-.009-.115.078-.118.01-.042-.029.032-.051.073-.076.108-.075.1-.156.2-.235.3-.265.333-.536.662-.807.991-.481.584-.967,1.164-1.445,1.75a.7.7,0,0,0,0,.965.687.687,0,0,0,.965,0c.561-.689,1.132-1.368,1.7-2.055.3-.37.607-.742.9-1.123a1.24,1.24,0,0,0,.336-1.081c-.139-.5-.684-.655-1.1-.865-.437-.223-.862-.469-1.275-.734a14.219,14.219,0,0,1-2.394-1.932.7.7,0,0,0-.965,0,7.976,7.976,0,0,0-1.411,1.8,2.541,2.541,0,0,0-.287.56.9.9,0,0,0,.2.732c.2.325.394.652.592.977a19.514,19.514,0,0,0,2.747,3.724A.683.683,0,0,0,415.1,283.125Z" transform="translate(-379.004 -245.505)" fill="#211715"/><path d="M384.672,297.5c.448,3.516.659,7.065.865,10.6q.374,6.421.576,12.851c.068,2.054.124,4.107.159,6.162a.683.683,0,0,0,1.365,0c-.067-3.881-.2-7.762-.367-11.64-.18-4.191-.395-8.382-.714-12.565-.138-1.806-.291-3.613-.52-5.41a.7.7,0,0,0-.683-.683.686.686,0,0,0-.683.683Z" transform="translate(-361.939 -259.147)" fill="#211715"/><path d="M475.388,297.008c-.276,2.97-.357,5.966-.489,8.945q-.309,6.952-.533,13.907c-.075,2.325-.143,4.651-.191,6.978a.683.683,0,0,0,1.365,0c.09-4.377.242-8.752.407-13.126.16-4.248.333-8.5.556-12.742.069-1.32.128-2.644.251-3.961a.688.688,0,0,0-.683-.683.7.7,0,0,0-.683.683Z" transform="translate(-420.9 -258.825)" fill="#211715"/><path d="M384.752,283.588c-2.216,1.024-4.512,1.879-6.769,2.8a19.434,19.434,0,0,0-3.21,1.46c-1.423.921-1.855,2.551-2.393,4.065-.565,1.594-1.041,3.215-1.563,4.823-.272.837,1.046,1.2,1.317.363.432-1.332.83-2.676,1.279-4,.26-.769.54-1.53.827-2.289a3.3,3.3,0,0,1,1.164-1.741,16.621,16.621,0,0,1,2.993-1.383c1.172-.48,2.348-.95,3.52-1.427s2.367-.959,3.525-1.494a.688.688,0,0,0,.245-.934.7.7,0,0,0-.934-.245Z" transform="translate(-352.791 -250.381)" fill="#211715"/><path d="M352.364,322.346c-1.188-2.633-2.276-5.306-3.363-7.982a.7.7,0,0,0-1-.408,28.558,28.558,0,0,1-6.832,2.8.689.689,0,0,0-.477.84c.689,2.2,1.349,4.415,2.133,6.586a28.474,28.474,0,0,0,2.512,5.649,5.082,5.082,0,0,0,4.387,2.623,7.1,7.1,0,0,0,4.929-2.387,43.29,43.29,0,0,0,3.391-3.957.686.686,0,0,0-.245-.934.7.7,0,0,0-.934.245l-.157.2c-.023.03-.218.276-.1.134q-.337.42-.682.835c-.534.641-1.081,1.272-1.647,1.885a11.813,11.813,0,0,1-1.658,1.6,5.363,5.363,0,0,1-2.42.973,3.684,3.684,0,0,1-3.683-1.916,25.886,25.886,0,0,1-2.265-5.022c-.832-2.267-1.521-4.583-2.242-6.887l-.477.84a21.149,21.149,0,0,0,3.6-1.251q1.814-.769,3.56-1.687l-1-.408c1.132,2.784,2.264,5.567,3.5,8.308a.687.687,0,0,0,.934.245.7.7,0,0,0,.245-.934Z" transform="translate(-332.952 -270.381)" fill="#211715"/><path d="M450.9,284.459c2.383.962,4.788,1.872,7.16,2.863.517.216,1.033.437,1.543.671a6.047,6.047,0,0,1,1.961,1.118,6.875,6.875,0,0,1,1.154,2.39c.309.847.593,1.7.86,2.564.6,1.941,1.171,3.887,1.9,5.789a.7.7,0,0,0,.84.476.688.688,0,0,0,.477-.84c-.663-1.739-1.2-3.514-1.744-5.294-.275-.9-.564-1.8-.88-2.693A13.355,13.355,0,0,0,463,288.77c-.827-1.295-2.38-1.825-3.735-2.406-1.381-.592-2.777-1.151-4.173-1.7-1.278-.507-2.562-1-3.837-1.517a.687.687,0,0,0-.84.477.7.7,0,0,0,.477.84Z" transform="translate(-405.235 -250.118)" fill="#211715"/><g transform="translate(37.057 46.098)"><path d="M429.344,327.681a7.074,7.074,0,0,0-.722.794,13.656,13.656,0,0,0,1.238,1.144l.121.09a5.756,5.756,0,0,1,2.724-2.033,12.7,12.7,0,0,1,5.126-.92,7.6,7.6,0,0,1,4.935,1.833,9.656,9.656,0,0,1,4.547-2.53,13.719,13.719,0,0,1,4.6-.245,7.437,7.437,0,0,1,2.655.758l.035-.034c.269-.256.807-.794,1.265-1.278a7.243,7.243,0,0,0-4.534-1.628,14.144,14.144,0,0,0-4.624.17,8.916,8.916,0,0,0-4.346,2.116,8.457,8.457,0,0,0-4.532-1.34,12.7,12.7,0,0,0-5.126.92,9.162,9.162,0,0,0-2.105,1.122A14.51,14.51,0,0,0,429.344,327.681Z" transform="translate(-427.951 -322.84)" fill="#fff"/><path d="M452.2,337.111c1.121-1,4.664-4.326,5.615-5.277a6.707,6.707,0,0,0-4.062-1.759,13.719,13.719,0,0,0-4.6.245,9.655,9.655,0,0,0-4.547,2.53,7.6,7.6,0,0,0-4.935-1.833,12.7,12.7,0,0,0-5.126.92,5.6,5.6,0,0,0-3.128,2.7c1.015.887,4.777,3.78,5.833,4.617Z" transform="translate(-429.795 -327.1)" fill="#3f88c9"/><path d="M456.882,340.41q-.1-.083-.207-.164a1.922,1.922,0,0,0-2.451-.284l-.491.427c-.374-.4-.692-.726-.827-.844a1.528,1.528,0,0,0-1.466-.33c-.578.215-.821.531-.821,1.016,0,0-.024.175-.055.412-.307-.325-.583-.6-.794-.793a1.5,1.5,0,0,0-1.626-.154.939.939,0,0,0-.294,1.347,1.743,1.743,0,0,1,.085.161l-.13-.068a1.316,1.316,0,0,0-1.862.671,1.889,1.889,0,0,0,.149,1.237,26.424,26.424,0,0,0,2.9,3.476c2.025,1.432,5.257.435,7.846-.167a3.427,3.427,0,0,0,1.026-.442,13.407,13.407,0,0,0,2.257-2.372,6.137,6.137,0,0,0,.888-1.076,2.278,2.278,0,0,0,.327-1.6,1.2,1.2,0,0,0-.453-.718,1.455,1.455,0,0,0-1.327.041,6.6,6.6,0,0,0-1.759,1.064A8.207,8.207,0,0,0,456.882,340.41Z" transform="translate(-439.331 -333.13)" fill="#fff"/><path d="M462.49,357.025a5.453,5.453,0,0,1-1.834.605c-.742.179-1.486.355-2.239.484a5.767,5.767,0,0,1-3.952-.374.683.683,0,0,0-.689,1.179,6.977,6.977,0,0,0,4.731.556c.823-.127,1.636-.318,2.445-.513a6.636,6.636,0,0,0,2.226-.759c.724-.489.042-1.672-.689-1.179Z" transform="translate(-444.307 -344.831)" fill="#211715"/><path d="M473.514,341.015A7.809,7.809,0,0,0,471.336,339a2.611,2.611,0,0,0-1.31-.4,2.918,2.918,0,0,0-1.394.413.689.689,0,0,0-.245.934.7.7,0,0,0,.934.245l.123-.066c.014-.007.17-.082.1-.049s.052-.019.063-.024c.038-.014.075-.026.113-.038a1.987,1.987,0,0,1,.248-.056c-.15.025.028.005.086.006.021,0,.173.008.068,0s.022.005.041.01a1.75,1.75,0,0,1,.212.06c.058.02.11.049.025.008.036.018.073.035.109.054.086.045.17.1.252.148s.157.106.233.162c.1.072-.057-.045.032.024l.133.106c.149.121.3.246.438.376s.279.264.41.4q.092.1.181.2c.037.043.073.087.109.13.078.1-.091-.124.039.049a.7.7,0,0,0,.934.245.689.689,0,0,0,.245-.934Z" transform="translate(-454.084 -332.775)" fill="#211715"/><path d="M463.928,340.641c-.62-.583-1.175-1.245-1.757-1.865-.289-.308-.575-.62-.879-.913a2.327,2.327,0,0,0-2.007-.668,1.808,1.808,0,0,0-1.557,1.733.683.683,0,0,0,1.365,0c0-.041,0-.082.005-.123q-.018.127.005.011c.025-.074.021-.071-.012.009a.83.83,0,0,1,.053-.095c-.072.128.042-.039.083-.072-.106.084.113-.056.138-.068a.724.724,0,0,1,.178-.06l.027-.005a1.356,1.356,0,0,1,.144,0l.039,0c.049.01.1.022.147.036a.305.305,0,0,1,.124.046,3.986,3.986,0,0,1,.918.853c.672.71,1.307,1.473,2.019,2.143a.683.683,0,1,0,.965-.965Z" transform="translate(-447.124 -331.827)" fill="#211715"/><path d="M436.43,337.429c-1.941-1.538-3.964-2.991-5.833-4.617l.106.827c1.1-2.062,3.433-2.859,5.633-3.174s4.781-.055,6.484,1.529a.691.691,0,0,0,.965,0,8.995,8.995,0,0,1,5.874-2.618c2.151-.169,4.754-.026,6.37,1.6v-.965c-1.815,1.811-3.7,3.57-5.615,5.277-.657.586.311,1.549.965.965,1.913-1.707,3.8-3.466,5.615-5.277a.693.693,0,0,0,0-.965c-1.876-1.89-4.81-2.2-7.335-2a10.408,10.408,0,0,0-6.839,3.018h.965c-2.044-1.9-4.99-2.274-7.655-1.9-2.6.363-5.305,1.4-6.606,3.824a.7.7,0,0,0,.106.827c1.869,1.626,3.892,3.079,5.834,4.617a.7.7,0,0,0,.965,0,.687.687,0,0,0,0-.965Z" transform="translate(-428.488 -325.762)" fill="#211715"/><path d="M428.909,327.71c.112.086-.146-.13-.194-.172q-.188-.165-.371-.336a5.435,5.435,0,0,1-.534-.529v.965a10.088,10.088,0,0,1,6.147-3.5,9.058,9.058,0,0,1,6.767,1.049.686.686,0,0,0,.827-.107,6.525,6.525,0,0,1,2.868-1.608,11.522,11.522,0,0,1,3.524-.585,17.747,17.747,0,0,1,3.517.3,6.8,6.8,0,0,1,2.768,1.345l-.138-1.072c-.412.435-.832.864-1.265,1.278-.636.608.33,1.573.965.965.433-.414.852-.843,1.265-1.278a.7.7,0,0,0-.138-1.072,7.684,7.684,0,0,0-3.094-1.483,19.381,19.381,0,0,0-4.033-.345,12.811,12.811,0,0,0-3.978.713,7.687,7.687,0,0,0-3.226,1.879l.827-.106a10.405,10.405,0,0,0-7.663-1.216,11.279,11.279,0,0,0-6.906,3.881.711.711,0,0,0,0,.965,8.257,8.257,0,0,0,1.376,1.25.686.686,0,0,0,.934-.245.7.7,0,0,0-.245-.934Z" transform="translate(-426.655 -321.521)" fill="#211715"/><path d="M446.831,342.78a2.019,2.019,0,0,0-2.181.152,1.821,1.821,0,0,0-.751,1.592,2.992,2.992,0,0,0,.676,1.69c.384.515.8,1.008,1.22,1.492q.676.775,1.383,1.522c.6.64,1.569-.327.965-.965q-.653-.692-1.281-1.405c-.235-.267-.466-.536-.693-.811-.1-.126-.206-.254-.309-.382a.527.527,0,0,1-.052-.067c-.042-.056-.084-.112-.125-.168a3.2,3.2,0,0,1-.326-.5,1.108,1.108,0,0,1-.1-.486c0-.026.013-.235,0-.1,0-.023.055-.23.014-.1s.033-.044.044-.069c.055-.118-.086.076.018-.023.055-.053.1-.109.165-.157-.095.074.033-.01.063-.031.11-.077-.051,0,.072-.036a1.314,1.314,0,0,1,.129-.035l.025,0a.589.589,0,0,1,.354.075.7.7,0,0,0,.934-.245.689.689,0,0,0-.245-.934Z" transform="translate(-438.013 -335.362)" fill="#211715"/><path d="M455.511,342.129c-.583-.631-1.151-1.276-1.73-1.91-.286-.313-.574-.625-.87-.929a4.457,4.457,0,0,0-.759-.689,1.983,1.983,0,0,0-2.789.5,1.594,1.594,0,0,0-.042,1.573,8.043,8.043,0,0,0,.959,1.305,25.779,25.779,0,0,0,1.991,2.241c.626.617,1.592-.347.965-.965a21.352,21.352,0,0,1-1.584-1.735c-.253-.311-.5-.625-.754-.935a3.149,3.149,0,0,1-.328-.476c-.018-.031-.038-.061-.055-.093-.054-.1.022.077-.01-.027-.005-.018-.036-.152-.018-.07s.018-.1,0,.016a.613.613,0,0,1,.035-.126c-.042.1.013-.01.023-.021-.056.062.027-.033.031-.037a1.16,1.16,0,0,1,.118-.111c.023-.018.027-.016.086-.031.021-.005.13-.017.023-.008a1.438,1.438,0,0,1,.172,0c.114,0-.09-.021.02,0l.1.021a2.138,2.138,0,0,1,.24.077c-.133-.051.042.024.079.045s.048.032.072.044c.1.051-.1-.1-.046-.035.185.228.439.423.642.636.259.27.512.545.764.82.571.626,1.131,1.261,1.706,1.883a.683.683,0,0,0,.965-.965Z" transform="translate(-441.462 -332.536)" fill="#211715"/><path d="M480.332,341.855a6.944,6.944,0,0,1,1.058-.615c.219-.1.6-.294.84-.208.148.054.222.3.239.48a1.851,1.851,0,0,1-.316,1.014,4.176,4.176,0,0,1-.605.721c-.251.268-.487.548-.719.831a8.288,8.288,0,0,1-1.539,1.583.7.7,0,0,0-.245.934.688.688,0,0,0,.934.245,11.376,11.376,0,0,0,2.063-2.1c.28-.332.588-.638.871-.968a4.06,4.06,0,0,0,.78-1.374,2.039,2.039,0,0,0-1.1-2.682,3.9,3.9,0,0,0-2.947.958.7.7,0,0,0-.245.934.689.689,0,0,0,.934.245Z" transform="translate(-461.105 -333.467)" fill="#211715"/></g><g transform="translate(33.936 17.089)"><path d="M427.177,258.583a4.257,4.257,0,0,0,2.051.478,3.372,3.372,0,0,0,2.1-.635.684.684,0,0,0,0-.965.7.7,0,0,0-.965,0c.235-.183-.017,0-.092.041-.058.03-.215.078,0,.008-.056.019-.111.043-.168.061s-.144.042-.217.059a1.153,1.153,0,0,0-.252.047c.062-.034.109-.013,0,0l-.138.011c-.111.007-.222.01-.333.009s-.2,0-.3-.011l-.137-.011-.078-.009.058.008a.657.657,0,0,1-.224-.042q-.108-.024-.214-.055c-.061-.018-.121-.041-.182-.061-.156-.054.14.067,0,0-.075-.035-.149-.072-.223-.111a.683.683,0,1,0-.689,1.179Z" transform="translate(-423.659 -250.187)" fill="#211715"/><path d="M431.91,245.591a9.232,9.232,0,0,1,.217.992l-.025-.181a.593.593,0,0,1,0,.137l.025-.182a.35.35,0,0,1-.015.062l.069-.163a.245.245,0,0,1-.022.04l.107-.138a.206.206,0,0,1-.032.032l.138-.106a.642.642,0,0,1-.078.041l.163-.069a.572.572,0,0,1-.132.039l.182-.024a.544.544,0,0,1-.125,0l.182.024c-.047-.006-.093-.018-.14-.024a.516.516,0,0,0-.272-.012.509.509,0,0,0-.254.081.682.682,0,0,0-.245.934.652.652,0,0,0,.408.314c.122.017.241.047.365.053a1.193,1.193,0,0,0,.558-.135.842.842,0,0,0,.456-.551,1.308,1.308,0,0,0,0-.574c-.054-.32-.128-.636-.21-.95a.683.683,0,0,0-.84-.477.691.691,0,0,0-.408.314.716.716,0,0,0-.069.526Z" transform="translate(-426.767 -241.925)" fill="#211715"/><path d="M417.57,237.326c-.166.539-.058,1.778.963,1.883,1.348-.008,1.42-1.506.966-2.21A1.068,1.068,0,0,0,417.57,237.326Z" transform="translate(-417.507 -236.517)" fill="#211715"/><path d="M445.129,237.326c.165.539.058,1.778-.963,1.883-1.349-.008-1.42-1.506-.966-2.21A1.068,1.068,0,0,1,445.129,237.326Z" transform="translate(-434.266 -236.517)" fill="#211715"/></g></g><rect width="120" height="100" transform="translate(-9.388 -10.082)" fill="none"/></g></svg>