<svg xmlns="http://www.w3.org/2000/svg" width="120" height="100" viewBox="0 0 120 100"><g transform="translate(37.305 14)"><path d="M222.494,143.167a20.153,20.153,0,0,0,2.046,4.94,8.331,8.331,0,0,0,3.513,3.028l1.8,1.618a1.41,1.41,0,0,1,2.248.362,2.367,2.367,0,0,1,.211.895,7.2,7.2,0,0,1-.62,3.529,4.2,4.2,0,0,1-1,1.435,2.247,2.247,0,0,1-1.788.6c-.692,4.938-3.255,8-5.849,8.949.047.565.1,1.465.247,2.287.139.791.1,1.5,1.195,1.895.073.026,3.445,1.263,3.556,1.308,0,0,.093,7.154-9.457,7.154s-10.305-7.36-10.305-7.36c.212-.072,3.315-1.077,3.388-1.1,1.1-.4,1.056-1.1,1.194-1.895a15.52,15.52,0,0,0,.244-2.541c-3.239-1.666-4.978-5.255-5.5-8.682a2.278,2.278,0,0,1-1.687-.608,4.194,4.194,0,0,1-1-1.435,7.193,7.193,0,0,1-.62-3.529,2.363,2.363,0,0,1,.211-.895,1.41,1.41,0,0,1,2.248-.362c2.247-2.1,5.4-5.261,7.543-7.37-.143,1.211-.9,3.773-.1,3.533a15.75,15.75,0,0,0,8.28-5.749" transform="translate(-195.988 -135.892)" fill="#fff"/><path d="M210.52,218.6a2.614,2.614,0,0,1-.269-.173,6.5,6.5,0,0,0-.512,4.707c.225,1.086.712,2.15.971,3.228a2.657,2.657,0,0,1-.923,2.957c-.426,1.092,6.713.982,7.625-1.671-3.345-1.628-5.134-5.28-5.663-8.764A2.108,2.108,0,0,1,210.52,218.6Z" transform="translate(-200.121 -195.193)" fill="#ad7b59"/><path d="M290.386,260.9c.077.938.181,1.864.324,2.794a2.1,2.1,0,0,0,1.208,1.748c.871.388,1.8.671,2.7,1,.381.14.766.272,1.143.423a.512.512,0,0,0,.626-.356.521.521,0,0,0-.355-.626c-.788-.316-1.6-.589-2.392-.882l-1.1-.4a1.5,1.5,0,0,1-.508-.277,1.019,1.019,0,0,1-.3-.642,24.929,24.929,0,0,1-.331-2.78.522.522,0,0,0-.509-.509.513.513,0,0,0-.509.509Z" transform="translate(-263.828 -228.262)" fill="#211715"/><path d="M225.4,118.04a20.153,20.153,0,0,0,2.046,4.94c1.264,1.855,1.3,1.746,3.513,3.028.437.254,1.186,1.3,1.8,1.618.14-.249.509-.5,1.292-.389a10.075,10.075,0,0,0,.173-3.094c-.232-3.326-1.54-7.052-3.634-9.117-2.717-2.678-4.952-3.749-10.036-3.749a12.362,12.362,0,0,0-12.577,13.231,16.823,16.823,0,0,0,.325,2.712,1.106,1.106,0,0,1,1.375.406c2.227-1.995,5.089-4.96,7.543-7.37-.143,1.211-.9,3.773-.1,3.533a15.75,15.75,0,0,0,8.28-5.749" transform="translate(-198.892 -110.765)" fill="#ad7b59"/><path d="M215.083,225.6c-.049.136.03-.034-.039.094-.031.058-.061.115-.1.171-.016.025-.108.155-.074.111s-.086.1-.118.133a2.807,2.807,0,0,1-.313.283c.084-.065-.068.046-.092.063-.069.047-.139.091-.21.134a5.977,5.977,0,0,1-1.78.676c-.332.08-.667.142-1,.189-.1.014.12-.014-.045.006l-.1.012-.255.027q-.248.023-.5.036c-.307.015-.615.018-.922,0-.136-.006-.272-.016-.408-.03l-.076-.008c-.125-.013.084.013.006,0s-.127-.019-.19-.031a2.809,2.809,0,0,1-.328-.08c-.053-.017-.195-.1-.047-.012-.031-.018-.067-.034-.1-.05-.113-.055-.024-.016-.005,0-.085-.076.041.066.018.029s-.016-.083.027.069c-.014-.048,0-.089.008.08,0-.1-.044.154,0,.033l-.234.3c1.4-.831,1.438-2.614,1.029-4.007-.261-.89-.623-1.75-.823-2.657a7.793,7.793,0,0,1-.178-2.428,5.413,5.413,0,0,1,.621-1.987c.3-.579-.574-1.094-.879-.514a7.651,7.651,0,0,0-.4,5.772c.166.575.376,1.136.559,1.706a5.421,5.421,0,0,1,.325,1.431,2.514,2.514,0,0,1-.2,1.166,1.513,1.513,0,0,1-.289.425c-.18.183-.439.265-.518.533-.3,1.006,1.185,1.2,1.831,1.255a10.754,10.754,0,0,0,3.651-.373c1.253-.344,2.663-.985,3.13-2.3a.509.509,0,1,0-.982-.271Z" transform="translate(-198.283 -193.276)" fill="#211715"/><path d="M232.2,125.267a10.919,10.919,0,0,0-.005-5.132,16.914,16.914,0,0,0-1.66-4.825,12.055,12.055,0,0,0-2.81-3.441,11.757,11.757,0,0,0-3.143-2.014,13.149,13.149,0,0,0-3.946-.9,17.323,17.323,0,0,0-5.253.224,13.173,13.173,0,0,0-7.326,4.423,13.026,13.026,0,0,0-2.924,8.964c.027.392.077.782.143,1.17a.513.513,0,0,0,.626.356.521.521,0,0,0,.356-.626,11.789,11.789,0,0,1,1.939-8.353,11.948,11.948,0,0,1,6.328-4.65,14.3,14.3,0,0,1,4.929-.563,14.92,14.92,0,0,1,4,.615,9.694,9.694,0,0,1,2.925,1.554,11.865,11.865,0,0,1,2.682,2.748,14.369,14.369,0,0,1,1.86,4.282,13.744,13.744,0,0,1,.509,4.833,5.371,5.371,0,0,1-.208,1.062c-.194.627.788.9.982.271Z" transform="translate(-196.631 -108.86)" fill="#211715"/><path d="M287.748,141.411a20.355,20.355,0,0,0,2.244,5.273,8.59,8.59,0,0,0,1.548,1.716,12.356,12.356,0,0,0,2,1.284c.577.31,1.092-.569.514-.879a10.893,10.893,0,0,1-1.848-1.168,7.78,7.78,0,0,1-1.385-1.536,19.54,19.54,0,0,1-2.093-4.961.522.522,0,0,0-.626-.355.514.514,0,0,0-.355.626Z" transform="translate(-261.732 -134.001)" fill="#211715"/><path d="M229.427,140.92a16.374,16.374,0,0,1-4.486,4.074,14.618,14.618,0,0,1-2.768,1.292c-.238.082-.478.159-.721.229a.767.767,0,0,0-.112.031l.078-.011c-.041,0-.035,0,.018,0a.368.368,0,0,1,.189.09c.038.031.086.072.022.02.064.052.019.071.005-.028.021.151,0-.07,0-.1a3.765,3.765,0,0,1,.028-.481c.087-.789.33-1.7.434-2.541.056-.459-.582-.642-.869-.36-2.507,2.463-4.973,4.972-7.543,7.37-.48.448.241,1.166.72.72,2.57-2.4,5.036-4.907,7.543-7.37l-.869-.36a.3.3,0,0,1-.009.064l-.017.106c-.015.1-.032.19-.049.284-.041.228-.086.455-.13.682-.085.438-.165.877-.219,1.32-.079.645-.036,1.777.926,1.578a9.555,9.555,0,0,0,1.547-.522,16.446,16.446,0,0,0,1.57-.718,15.981,15.981,0,0,0,2.785-1.877,17.645,17.645,0,0,0,2.648-2.773.526.526,0,0,0,0-.72.512.512,0,0,0-.72,0Z" transform="translate(-203.281 -134.005)" fill="#211715"/><path d="M290.263,220.655c3.276-1.091,5.242-4.441,6.044-7.619a18.608,18.608,0,0,0,.531-3.918c.022-.655-1-.654-1.018,0-.119,3.471-1.218,7.388-4.016,9.564a6.85,6.85,0,0,1-.911.6q-.233.128-.476.236c-.093.042-.035.016-.015.007l-.137.055c-.09.035-.182.067-.274.1-.618.206-.353,1.189.271.982Z" transform="translate(-263.242 -187.471)" fill="#211715"/><path d="M216.8,209.55c.081,3.963,1.661,8.262,5.048,10.557a8.923,8.923,0,0,0,3.336,1.363.523.523,0,0,0,.626-.355.513.513,0,0,0-.355-.626,8.31,8.31,0,0,1-4.854-2.875,12.133,12.133,0,0,1-2.4-5.017,14.271,14.271,0,0,1-.387-3.047.509.509,0,0,0-1.018,0Z" transform="translate(-205.845 -187.811)" fill="#211715"/><path d="M205.233,184.648a1.958,1.958,0,0,0-2.237-.335,2.277,2.277,0,0,0-1.1,2.047,7.14,7.14,0,0,0,1.356,4.78,3,3,0,0,0,2.384,1.212.509.509,0,0,0,0-1.018c-1.634.043-2.383-2-2.63-3.307a6.524,6.524,0,0,1-.108-1.191,3.066,3.066,0,0,1,.142-1.162.915.915,0,0,1,1.47-.307c.48.445,1.2-.273.72-.72Z" transform="translate(-194.093 -168.146)" fill="#211715"/><path d="M320.531,185.364a.915.915,0,0,1,1.471.307,3.044,3.044,0,0,1,.141,1.162,6.449,6.449,0,0,1-.108,1.191c-.249,1.309-.994,3.35-2.63,3.307a.509.509,0,0,0,0,1.018c1.793.047,2.873-1.621,3.373-3.133a7.653,7.653,0,0,0,.381-2.526,2.624,2.624,0,0,0-.88-2.236,1.943,1.943,0,0,0-2.468.191c-.481.447.24,1.165.72.72Z" transform="translate(-286.308 -168.143)" fill="#211715"/><path d="M210.253,186.54" transform="translate(-200.688 -170.068)" fill="none" stroke="#211715" stroke-miterlimit="10" stroke-width="1.2"/><path d="M210.938,304.051c-.1-1.948-.363-4.359-.55-5.88a15.334,15.334,0,0,0-.9-4.245c-1.009-2.331-3.317-3.823-5.634-4.865-1.348-.606-2.754-1.115-4.1-1.732a.73.73,0,0,0-.71.048c-5.962,3.968-14.745,3.24-19.711-.206a.727.727,0,0,0-.724-.056,62.4,62.4,0,0,0-6.308,3.458,9.713,9.713,0,0,0-2.816,2.344c-1.119,1.527-1.365,3.563-1.555,5.447-.166,1.652-.388,5.937-.388,8.742,0,3.85,3.756,5.306,5.558,5.589,2.838.446,4.807-1.739,6.392-3.767.46-.589.885-1.2,1.284-1.823h.118a7.658,7.658,0,0,1,2.338.757,15.534,15.534,0,0,0,3.439.638c0,2.28-.009,5.256.094,7.235,2.165.639,11.784,1.465,14.312,1.338,2.424-.121,5.069.214,7.09-1.327a6.7,6.7,0,0,0,2.646-5.509,48.147,48.147,0,0,0,.118-6.218" transform="translate(-167.038 -249.26)" fill="#f4b467"/><path d="M195.325,386.162a14.477,14.477,0,0,0,2.578-2.7c.457-.585.88-1.19,1.276-1.81l.126-.012a7.657,7.657,0,0,1,2.338.757,15.531,15.531,0,0,0,3.439.638c0,1.607-.005,3.561.029,5.267h-.131c-1.012,0-1.724-.034-2.733.012a28.2,28.2,0,0,0-2.8.454,22.577,22.577,0,0,1-5.589-.156,3.985,3.985,0,0,1-2.947-1.514A4.847,4.847,0,0,0,195.325,386.162Z" transform="translate(-185.444 -323.791)" fill="#fff"/><path d="M270.34,308.546a15.963,15.963,0,0,1-3.157.522,19.466,19.466,0,0,1-2.95.036.513.513,0,0,0-.509.509.519.519,0,0,0,.509.509,19.576,19.576,0,0,0,3.033-.042,17.219,17.219,0,0,0,3.344-.552.509.509,0,0,0-.271-.981Z" transform="translate(-242.821 -266.184)" fill="#211715"/><path d="M304.631,301.47a8.857,8.857,0,0,1-.9.49l-.126.057c-.021.009-.044.017-.064.028.027-.014.085-.035.024-.011-.089.036-.179.071-.269.1a6.037,6.037,0,0,1-.612.183.514.514,0,0,0-.356.626.52.52,0,0,0,.626.355,7.726,7.726,0,0,0,2.194-.953.509.509,0,0,0-.514-.879Z" transform="translate(-273.22 -260.572)" fill="#211715"/><path d="M225.666,260.09a20.5,20.5,0,0,1-.285,2.71c-.089.576-.188.938-.782,1.153-.759.275-1.539.5-2.307.75-.359.117-.72.23-1.077.352-.617.209-.352,1.193.271.982.853-.289,1.713-.558,2.57-.836.3-.1.606-.183.9-.3a2.063,2.063,0,0,0,1.369-1.6,19.327,19.327,0,0,0,.36-3.209.509.509,0,0,0-1.018,0Z" transform="translate(-209.048 -227.634)" fill="#211715"/><path d="M209.556,302.179c-.131-2.45-.4-4.9-.734-7.333a10.152,10.152,0,0,0-1.112-3.7,8.687,8.687,0,0,0-2.239-2.492c-2.057-1.6-4.529-2.393-6.885-3.427a2.967,2.967,0,0,0-.956-.342,1.483,1.483,0,0,0-.925.312,14.735,14.735,0,0,1-1.436.81,15.685,15.685,0,0,1-2.97,1.092,18.958,18.958,0,0,1-12.381-.991c-.444-.2-.879-.424-1.3-.669q-.294-.17-.578-.354a2.178,2.178,0,0,0-.767-.4,1.544,1.544,0,0,0-.985.2q-.5.237-.989.484-.94.471-1.863.975c-1.215.663-2.413,1.362-3.581,2.106a9.229,9.229,0,0,0-2.817,2.511c-1.245,1.848-1.414,4.258-1.577,6.418-.159,2.106-.25,4.22-.295,6.332q-.016.76-.017,1.52a.509.509,0,0,0,1.018,0c0-2.126.09-4.254.215-6.376a23.175,23.175,0,0,1,.8-5.841,5.921,5.921,0,0,1,1.9-2.77,23.727,23.727,0,0,1,3.22-2.085q1.749-1.023,3.562-1.932.425-.213.854-.418a.792.792,0,0,1,.342-.13.737.737,0,0,1,.3.17c.377.253.767.485,1.167.7a19.815,19.815,0,0,0,12.114,1.921,17.013,17.013,0,0,0,6.078-2.09c.215-.126.424-.26.635-.394a.375.375,0,0,1,.225-.092,1.746,1.746,0,0,1,.5.208c.627.275,1.261.533,1.9.791a28.251,28.251,0,0,1,3.367,1.554,10.769,10.769,0,0,1,2.566,1.958,6.76,6.76,0,0,1,1.6,2.94,25.532,25.532,0,0,1,.558,3.553c.137,1.165.258,2.333.355,3.5.049.592.091,1.185.123,1.778.035.652,1.053.656,1.018,0Z" transform="translate(-165.147 -247.387)" fill="#211715"/><path d="M272.343,368.581c-.694.074-1.4.074-2.1.092-1.205.03-2.411.047-3.616.062-2.675.033-5.35.05-8.025.078-.918.01-1.838.013-2.756.045a.518.518,0,0,0-.509.509c0,2.52-.035,5.045.094,7.562a.525.525,0,0,0,.374.491,14.29,14.29,0,0,0,1.866.365c.978.148,1.96.267,2.943.375q3.2.351,6.412.537c1.9.107,3.79.082,5.693.023a9.327,9.327,0,0,0,4.2-.9,6.724,6.724,0,0,0,2.618-2.6,8.766,8.766,0,0,0,.961-3.748c.1-1.671.212-3.346.176-5.021q-.013-.621-.055-1.241a.521.521,0,0,0-.509-.509.513.513,0,0,0-.509.509,40.167,40.167,0,0,1-.041,4.891,12.624,12.624,0,0,1-.608,3.992,5.715,5.715,0,0,1-1.933,2.457,6.816,6.816,0,0,1-3.785,1.128,76.112,76.112,0,0,1-11.892-.462q-.863-.089-1.724-.192c-.528-.063-.908-.112-1.4-.184a15.681,15.681,0,0,1-2.137-.405l.374.491c-.129-2.517-.094-5.043-.094-7.562l-.509.509c2.031-.069,4.066-.057,6.1-.075,2.639-.023,5.278-.041,7.916-.1.823-.018,1.658-.014,2.477-.1a.524.524,0,0,0,.509-.509.512.512,0,0,0-.509-.509Z" transform="translate(-236.212 -310.451)" fill="#211715"/><path d="M330.2,331.479c-.027,3.269.091,6.536.239,9.8.018.4.04.8.05,1.2a.509.509,0,0,0,1.018,0c-.063-2.592-.227-5.18-.272-7.774q-.028-1.612-.017-3.224a.509.509,0,0,0-1.018,0Z" transform="translate(-295.199 -283.885)" fill="#211715"/><path d="M234.468,380.636a12.29,12.29,0,0,1-2.84-.484,9.493,9.493,0,0,1-1.3-.475,3.724,3.724,0,0,0-1.642-.436c-.651.039-.655,1.058,0,1.018a3.223,3.223,0,0,1,1.4.414,9.262,9.262,0,0,0,1.4.5,13.452,13.452,0,0,0,2.978.486.509.509,0,0,0,0-1.018Z" transform="translate(-214.831 -321.904)" fill="#211715"/><path d="M220.118,391.778c.137.038.272.079.407.124q.129.043.258.09l.137.052.069.028c.018.007.124.052.032.013s0,0,.02.009l.069.031c.05.023.1.046.148.07.087.043.173.09.256.141.039.024.078.049.116.075l.054.039c-.135-.089-.068-.053-.036-.027s.061.053.089.081.03.032.045.049c.066.071-.076-.1-.03-.039a.547.547,0,0,0,.3.234.509.509,0,0,0,.575-.747,2.546,2.546,0,0,0-1.122-.8,8.6,8.6,0,0,0-1.12-.4.509.509,0,1,0-.271.982Z" transform="translate(-208.17 -330.998)" fill="#211715"/><g transform="translate(11.152 31.256)"><path d="M220.138,273.64c.338-1.4,1.7-2.867,2.353-4.211a15.493,15.493,0,0,0,1.066-4.152,23.351,23.351,0,0,1,1.066-4.132,5.276,5.276,0,0,1,3.978-2.572,4.131,4.131,0,0,1,2.18,1.343c.352.377,1.542,2.184.167,1.941.505.365,1.364,1.863.34,2.434.74,1.181.12,2.058-.905,2.121a1.227,1.227,0,0,1,.16,1.464c-.337.594-.793.57-1.366.668-1.593.275-.936,1.007-1.384,2.265-.356,1-1.792,1.253-2.428,2.265a21.164,21.164,0,0,1-1.7,2.8" transform="translate(-219.63 -258.081)" fill="#fff"/><path d="M218.739,271.953a7.385,7.385,0,0,1,1.131-2.192,14.336,14.336,0,0,0,1.3-2.191,31.274,31.274,0,0,0,1.295-5.541q.168-.731.381-1.45.1-.332.21-.66.055-.163.113-.324c0-.012.074-.2.043-.122-.02.048.039-.079.037-.076a3.8,3.8,0,0,1,1.234-1.267,5,5,0,0,1,1.794-.834,1.286,1.286,0,0,1,.733.041,3.425,3.425,0,0,1,.887.537,5.228,5.228,0,0,1,.714.678c.067.078-.039-.059.046.062.034.048.068.1.1.145q.108.162.2.331c.037.065.072.132.1.2s.049.107.046.1c.021.056.041.113.057.171.007.027.013.055.02.082.021.075.035.035,0,0,.007.007,0,.043,0,.054.007.051.042-.094,0-.021-.045.089.109-.13.042-.071a.578.578,0,0,1,.113-.066c-.018.011-.114.014-.049.015s-.15-.013-.113-.007a.512.512,0,0,0-.392.93c-.1-.078.072.077.1.107a.782.782,0,0,1,.129.165,2.181,2.181,0,0,1,.264.508,1.646,1.646,0,0,1,.073.284c-.006-.043-.006.231,0,.173a.356.356,0,0,1-.228.318.516.516,0,0,0-.183.7,1.6,1.6,0,0,1,.251.615.7.7,0,0,1-.042.351.54.54,0,0,1-.242.26,1.057,1.057,0,0,1-.433.13.514.514,0,0,0-.257.949c-.052-.04.033.079.036.086a.684.684,0,0,1,.035.184,1,1,0,0,1-.079.472c-.176.361-.495.373-.867.428-.735.11-1.5.365-1.691,1.171a3.556,3.556,0,0,0-.065.454c-.007.072-.013.144-.02.215,0,.042-.008.085-.013.127a.409.409,0,0,1-.01.081,1.651,1.651,0,0,1-.348.9c-.57.611-1.414.883-1.955,1.54-.749.909-1.069,2.1-1.846,3-.428.492.289,1.215.72.72a25.805,25.805,0,0,0,1.8-2.931c.491-.743,1.464-.993,2.043-1.655a2.464,2.464,0,0,0,.553-1.221c.035-.195.057-.392.075-.589.008-.079.014-.157.022-.236,0-.022.014-.1,0,0,.006-.041.013-.082.022-.123s.076-.217.02-.1a.572.572,0,0,1,.035-.067c.071-.109-.062.089.012-.021a.388.388,0,0,1,.058-.057c-.069.062-.018.014,0,0a.665.665,0,0,1,.222-.1c.43-.138.9-.121,1.315-.3a1.74,1.74,0,0,0,.439-2.867l-.257.948a1.845,1.845,0,0,0,1.554-.894,2.025,2.025,0,0,0-.209-1.993l-.183.7c1.294-.77.64-2.573-.34-3.313l-.392.93a1.157,1.157,0,0,0,1.039-.2.954.954,0,0,0,.226-.873,3.506,3.506,0,0,0-.707-1.429,5.283,5.283,0,0,0-1.743-1.466,2.651,2.651,0,0,0-2.222-.1,6.909,6.909,0,0,0-2.158,1.268,4.912,4.912,0,0,0-.776.831,3.756,3.756,0,0,0-.487,1.048,23.265,23.265,0,0,0-.831,3.231c-.192,1.025-.325,2.061-.591,3.071a7.8,7.8,0,0,1-.564,1.552,13.422,13.422,0,0,1-.82,1.345,9.713,9.713,0,0,0-1.531,2.88.509.509,0,0,0,.981.271Z" transform="translate(-217.74 -256.259)" fill="#211715"/><path d="M253.505,270.694c.608.085,1.218.157,1.827.232.323.04.646.08.969.122l.19.025c.126.017-.034,0-.007,0l.089.012c.081.011.161.022.242.036a.522.522,0,0,0,.626-.355.515.515,0,0,0-.355-.626c-.554-.093-1.115-.151-1.672-.22l-1-.125-.43-.055-.164-.021c-.094-.012,0,0,.041.006-.027,0-.054-.007-.081-.011a.523.523,0,0,0-.626.356.514.514,0,0,0,.355.626Z" transform="translate(-245.632 -266.854)" fill="#211715"/><path d="M250.859,281.867c.712.054,1.423.137,2.132.218q.575.066,1.15.138l.239.031.091.012c.056.007-.121-.017,0,0,.1.015.205.029.307.046a.524.524,0,0,0,.626-.356.513.513,0,0,0-.355-.626c-.663-.111-1.336-.179-2-.256-.726-.084-1.454-.169-2.184-.224a.513.513,0,0,0-.509.509.519.519,0,0,0,.509.509Z" transform="translate(-243.435 -275.634)" fill="#211715"/><path d="M250.423,293.244c.6-.012,1.206.034,1.8.069.333.019.667.04,1,.066.122.009.245.019.367.031l.143.014c.129.013-.134-.022-.028,0a.524.524,0,0,0,.626-.356.513.513,0,0,0-.355-.626,15.985,15.985,0,0,0-1.711-.141c-.613-.036-1.232-.083-1.846-.071a.509.509,0,0,0,0,1.018Z" transform="translate(-243.091 -284.598)" fill="#211715"/></g><path d="M203.082,406.264a29.851,29.851,0,0,0-3.127.042c-1.061.111-2.088.423-3.154.506a19.366,19.366,0,0,1-3.263-.075c-.534-.049-1.067-.109-1.6-.165l-.068-.008c-.071-.008.1.014.02,0l-.175-.028q-.219-.038-.435-.091a2.832,2.832,0,0,1-1.827-1.126.509.509,0,0,0-.879.514c.856,1.415,2.569,1.671,4.068,1.83a26.94,26.94,0,0,0,3.409.2,21.8,21.8,0,0,0,3.361-.462,20.929,20.929,0,0,1,3.669-.122.509.509,0,0,0,0-1.018Z" transform="translate(-183.547 -342.265)" fill="#211715"/><path d="M207.238,313.854c1.492-2.375,2.907-4.607,3.236-5.144a.28.28,0,0,1,.34-.117,46.833,46.833,0,0,1,6.477,3.865c.1.126.21.271.164.422-.183.6-1.788,4.1-2.369,5.368" transform="translate(-198.313 -266.225)" fill="#f4b467"/><path d="M170.722,318.466c.618-1.1,1.3-2.168,1.963-3.24q1.374-2.213,2.766-4.414c.692-1.1,1.387-2.194,2.075-3.294l.131-.21c.017-.027.035-.053.05-.08a.212.212,0,0,0,.017-.028l.016-.026a.24.24,0,0,1-.227.1c0,.01.225.1.067.026l.176.079c.148.069.295.141.44.215.737.376,1.453.794,2.163,1.218q1.207.721,2.387,1.489c.269.176.538.353.8.538l.122.088c.085.06.07.092.014.008.014.022.047.031.063.053a.146.146,0,0,0,.015.015c-.06-.059.04.071.048.127v-.271a3.065,3.065,0,0,1-.258.707c.035-.082-.046.109-.063.147l-.129.3q-.132.3-.267.606c-.384.866-.775,1.728-1.169,2.59a57.153,57.153,0,0,1-3.308,6.529,23.98,23.98,0,0,1-2.2,3,8.961,8.961,0,0,1-2.495,2.152,4.213,4.213,0,0,1-2.8.431,7.94,7.94,0,0,1-1.9-.629,5.907,5.907,0,0,1-2.136-1.646,4.539,4.539,0,0,1-.928-2.784.509.509,0,0,0-1.018,0,5.543,5.543,0,0,0,.865,3.014,6.432,6.432,0,0,0,1.98,1.9,7.087,7.087,0,0,0,5,1.136c2.379-.492,4.09-2.64,5.449-4.494a40.731,40.731,0,0,0,3.984-7.267c.749-1.639,1.524-3.272,2.2-4.942a1.1,1.1,0,0,0,.031-1.081,1.763,1.763,0,0,0-.531-.513c-.547-.392-1.118-.752-1.687-1.111-.782-.494-1.573-.975-2.374-1.437a19.108,19.108,0,0,0-2.07-1.08.864.864,0,0,0-1.181.344c-.1.16-.2.323-.3.484q-.5.8-1,1.591c-1.794,2.845-3.62,5.676-5.335,8.57-.114.192-.226.384-.336.579a.509.509,0,0,0,.879.514Z" transform="translate(-165.147 -264.418)" fill="#211715"/><g transform="translate(16.27 17.566)"><path d="M255.939,234.345a5.1,5.1,0,0,0,5.663,0c.483-.444-.238-1.162-.72-.72l-.059.052c-.067.056.074-.046.017-.014s-.113.076-.172.11-.13.071-.2.1c0,0-.14.059-.065.029-.043.017-.086.033-.13.048a5.015,5.015,0,0,1-2.985.009,1.452,1.452,0,0,1-.2-.076c-.074-.035-.148-.072-.219-.113-.054-.031-.1-.07-.158-.1-.1-.056.083.068,0,0-.021-.017-.04-.034-.059-.052-.482-.443-1.2.275-.72.72Z" transform="translate(-252.83 -224.625)" fill="#211715"/><path d="M266,203.674c.143.544.257,1.095.367,1.646.013.064.025.129.038.193,0,.018.014.09,0,.007s0,0,0,.024,0,.041,0,.061c0,.1.015-.088,0-.035-.008.026,0,.018.011-.023a.209.209,0,0,1,.062-.1c.034-.034.09-.05.02-.025.1-.037.013-.006-.009,0a.508.508,0,0,0-.087.021c.022-.013.107,0,.038-.009l-.075,0c-.112,0,.113.021-.012,0-.038-.007-.075-.014-.113-.019a.562.562,0,0,0-.392.051.509.509,0,0,0,.122.93,1.63,1.63,0,0,0,.863-.016.835.835,0,0,0,.541-.5.938.938,0,0,0,.039-.427c-.042-.345-.125-.688-.2-1.028s-.15-.683-.239-1.021a.509.509,0,1,0-.981.271Z" transform="translate(-260.576 -200.625)" fill="#211715"/><path d="M241.943,192.6c-.184.6-.064,1.979,1.07,2.1,1.5-.009,1.579-1.677,1.074-2.461A1.186,1.186,0,0,0,241.943,192.6Z" transform="translate(-241.873 -191.697)" fill="#211715"/><path d="M288.561,192.6c.184.6.064,1.982-1.07,2.1-1.5-.009-1.579-1.679-1.074-2.464A1.186,1.186,0,0,1,288.561,192.6Z" transform="translate(-276.751 -191.697)" fill="#211715"/></g><path d="M314.647,241.251a5.044,5.044,0,0,0,2.642-1.81,6.561,6.561,0,0,0,1.285-3.753c.03-.655-.988-.653-1.018,0a5.508,5.508,0,0,1-1.067,3.136,4.029,4.029,0,0,1-2.112,1.446.509.509,0,0,0,.271.981Z" transform="translate(-282.448 -208.407)" fill="#211715"/><path d="M324.144,252.8a4.278,4.278,0,0,0,2.208-1.323,4.592,4.592,0,0,0,1.107-2.827.509.509,0,1,0-1.018,0,3.742,3.742,0,0,1-.282,1.266c.032-.077-.027.058-.031.066q-.032.068-.067.136-.069.132-.148.259c-.052.083-.107.163-.165.242s.03-.031-.039.049c-.036.042-.071.085-.109.126a4.5,4.5,0,0,1-.422.4c-.081.07.053-.035-.042.033-.037.027-.074.053-.111.079-.074.051-.151.1-.228.145s-.155.087-.235.127c-.039.02-.08.038-.119.057-.108.052.063-.021-.039.017a4.215,4.215,0,0,1-.53.166.509.509,0,0,0,.271.982Z" transform="translate(-289.922 -218.609)" fill="#211715"/><rect width="120" height="100" transform="translate(-37.305 -14)" fill="none"/></g></svg>