<svg xmlns="http://www.w3.org/2000/svg" width="120" height="100" viewBox="0 0 120 100"><g transform="translate(-59.338 -295.968)"><path d="M112.875,314.746c2.246-2.133,4.518-4.238,6.777-6.358q.786-.738,1.569-1.477c.522-.5-.268-1.284-.79-.79-2.307,2.188-4.638,4.351-6.956,6.527q-.7.653-1.39,1.308c-.522.5.269,1.284.79.79Z" transform="translate(-12.697)" fill="#211715"/><path d="M116.154,320.932c3.5-1.956,7.024-3.856,10.535-5.786.63-.347.067-1.311-.564-.965-3.511,1.93-7.039,3.83-10.535,5.786-.628.351-.065,1.316.564.964Z" transform="translate(-13.545 -2.03)" fill="#211715"/><path d="M117.8,328.47c2.653-.48,5.31-.938,7.961-1.429.706-.131.407-1.207-.3-1.077-2.651.491-5.307.95-7.96,1.429-.706.128-.407,1.2.3,1.077Z" transform="translate(-13.991 -4.983)" fill="#211715"/><path d="M89.334,383.9c4.719-5.139,10.31-11.331,12.617-14.206a.561.561,0,0,1,.437-.211h45.592a.557.557,0,0,1,.435.208c3.582,4.467,15.1,16.949,18.951,21.036a.448.448,0,0,1,.1.244c0,.506,0,2.04,0,2.755a.556.556,0,0,1-.555.561H83.46a.557.557,0,0,1-.557-.562c.007-.841,0-2.177,0-2.757a.437.437,0,0,1,.095-.241C84.374,389.272,86.72,386.749,89.334,383.9Z" transform="translate(-5.465 -15.836)" fill="#fff"/><path d="M107.995,370.331c.127-.149.271-.435.463-.484a.932.932,0,0,1,.209,0h44.978a1.163,1.163,0,0,1,.357,0c.056.024.13.147.17.193l.423.481q.5.562.994,1.122c.478.538,1.266-.254.79-.79q-.5-.561-.994-1.122c-.3-.341-.592-.793-1.04-.944a1.388,1.388,0,0,0-.411-.057c-.211-.005-.423,0-.634,0H113.843c-1.8,0-3.615-.071-5.413,0-.58.023-.875.4-1.224.812-.465.543.321,1.337.79.79Z" transform="translate(-11.488 -15.64)" fill="#211715"/><path d="M86.828,398.473h2.932l5.946,0,8.2,0,9.8,0,10.641,0,10.72,0,10.159,0,8.832,0,6.759,0h4.492a.559.559,0,0,0,0-1.117h-9.414l-8.371,0-9.9,0-10.682,0-10.695,0-10.069,0-8.677,0-6.54,0H86.828a.559.559,0,0,0,0,1.117Z" transform="translate(-6.309 -22.778)" fill="#211715"/><path d="M65.374,371.108c-1.461.733-3.22,1.42-3.985,2.984a5.45,5.45,0,0,0-.376,2.812c.113,1.475.312,2.946.491,4.413.558,4.564,1.164,9.123,1.772,13.68q.3,2.281.612,4.563a.577.577,0,0,0,.558.559c.271,0,.6-.257.559-.559q-.689-5.16-1.372-10.32c-.516-3.939-1.077-7.881-1.458-11.836a8.133,8.133,0,0,1-.01-2.109c.3-1.8,2.35-2.508,3.774-3.223.643-.322.078-1.286-.564-.964Z" transform="translate(0 -16.224)" fill="#211715"/><path d="M209.754,371.967a19.393,19.393,0,0,1,2.357,1.315,3.271,3.271,0,0,1,1.321,1.59,5.993,5.993,0,0,1,.123,2.187c-.1,1.548-.259,3.094-.406,4.639q-.65,6.827-1.386,13.647c-.161,1.507-.307,3.018-.507,4.521a.561.561,0,0,0,.559.558.572.572,0,0,0,.558-.558c.47-3.533.783-7.092,1.146-10.637.409-4,.859-8.008,1.143-12.022a7.145,7.145,0,0,0-.152-2.632c-.589-1.864-2.585-2.763-4.192-3.572-.64-.323-1.206.64-.564.964Z" transform="translate(-37.018 -16.198)" fill="#211715"/><g transform="translate(138.891 319.704)"><path d="M199.5,347.682c-.121.58-.262,1.153-.328,1.742a5.156,5.156,0,0,0,.059,1.492c.155.9.427,1.776.658,2.66a.559.559,0,0,0,1.077-.3c-.219-.836-.473-1.665-.633-2.516a7.237,7.237,0,0,1,.243-2.785.571.571,0,0,0-.39-.687.565.565,0,0,0-.687.39Z" transform="translate(-173.335 -330.003)" fill="#211715"/><path d="M198.5,343.339a12.8,12.8,0,0,0,2.834-6.67c.468-4.513-1.561-7.195-3.252-8.361a10.862,10.862,0,0,0-8.042-1.839c-2.5.382-5.909,1.878-6.7,5.988" transform="translate(-169.394 -324.781)" fill="none"/><path d="M186.555,353.48c.54-.854.976-2.35,1.47-3.215a3.087,3.087,0,0,0-.56-2.1.451.451,0,0,0-.531-.282,6.256,6.256,0,0,1-3.345-.323,2.6,2.6,0,0,1-1.406-1.342,9.7,9.7,0,0,1-.662-3.284,2.077,2.077,0,0,0-.457-.891c-.355-.4-.932-.709-.622-1.381a1.258,1.258,0,0,1,.586-.57c1.255-.652,1.34-2.537,1.4-3.9a10.035,10.035,0,0,1,.163-2.2,3.006,3.006,0,0,1,.629-1.485,22.716,22.716,0,0,0,3.563,3.516A20.988,20.988,0,0,0,191.2,338.7l.5.154a1.876,1.876,0,0,1,.742-.542,1.207,1.207,0,0,1,1.07.082,1.616,1.616,0,0,1,.548,1.507,4.03,4.03,0,0,1-2.279,3.273,10.451,10.451,0,0,1,.647,3.229,3.641,3.641,0,0,1-.841,2.337c-.33.373,1.113.925,1.793,1.1a3.271,3.271,0,0,0,2.412-.14,1.843,1.843,0,0,0,.272-.211c.093.962-3.41,3.208-3.787,3.4-1.385.716-4.791,1.427-5.77.857" transform="translate(-168.65 -326.323)" fill="#fff"/><path d="M175.524,380.22c0-1.478-2.69-2.1-4.811-2.1-2.249,0-5.205.853-5.205,2.267,0,1.671,2.506,2.039,5.012,2.039C172.448,382.423,175.524,381.891,175.524,380.22Z" transform="translate(-164.949 -337.692)" fill="#fff"/><path d="M175.9,380.033c-.053-1.916-2.592-2.417-4.075-2.587a9.821,9.821,0,0,0-5.7.915,2.328,2.328,0,0,0-1.351,1.718,2.085,2.085,0,0,0,1.134,1.946,6.832,6.832,0,0,0,2.835.709,14.968,14.968,0,0,0,2.882-.011c1.558-.17,4.226-.669,4.275-2.69a.558.558,0,0,0-1.116,0,.77.77,0,0,1-.164.466,1.916,1.916,0,0,1-.669.5,6.445,6.445,0,0,1-1.989.563,12.763,12.763,0,0,1-2.2.108,10.442,10.442,0,0,1-2.5-.3c-.5-.138-1.17-.384-1.337-.892a.621.621,0,0,1,.017-.51,1.475,1.475,0,0,1,.536-.52,8,8,0,0,1,4.443-.953,8.677,8.677,0,0,1,2.661.47,2.741,2.741,0,0,1,.884.486.793.793,0,0,1,.317.581A.558.558,0,0,0,175.9,380.033Z" transform="translate(-164.764 -337.505)" fill="#211715"/><path d="M175.084,376.864a8.713,8.713,0,0,0,.766-3.578l-.034-.17c.015-.7-2.025-.972-3.784-1.016-2.217-.056-4.166.168-4.285.975a8.668,8.668,0,0,0,.544,4.109,3.412,3.412,0,0,0,3.26,1.844,3.369,3.369,0,0,0,3.168-1.51A5.014,5.014,0,0,0,175.084,376.864Z" transform="translate(-165.504 -336.19)" fill="#fff"/><path d="M175.107,373.433a7.9,7.9,0,0,1-.591,3.068,3.255,3.255,0,0,1-1.508,1.816,4.049,4.049,0,0,1-2.8.131,2.714,2.714,0,0,1-1.745-1.708,9.605,9.605,0,0,1-.338-3.517.559.559,0,0,0-1.117,0c-.054,2.231.038,5.063,2.415,6.113a5.2,5.2,0,0,0,3.624.162,3.905,3.905,0,0,0,2.217-1.962,8.689,8.689,0,0,0,.964-4.1.559.559,0,0,0-1.117,0Z" transform="translate(-165.32 -336.337)" fill="#211715"/><path d="M171.863,372.472a12.077,12.077,0,0,1,2.546.272,2.6,2.6,0,0,1,.684.257c.11.087,0,.014.01,0l.023.04a.25.25,0,0,1-.024-.229c0,.032-.055.152.011-.017a.322.322,0,0,1-.067.11c.134-.122-.05.033-.081.06.119-.1-.042.022-.08.044s-.261.123-.142.075c-.106.042-.214.078-.324.11a5.513,5.513,0,0,1-1.239.207,14.414,14.414,0,0,1-3.157-.122,8.781,8.781,0,0,1-1.332-.3c-.074-.023-.146-.05-.219-.076-.025-.008-.159-.068-.024-.008-.036-.016-.072-.032-.107-.05-.062-.033-.121-.072-.182-.1-.121-.062.074.082-.042-.039-.069-.071.071.121.028.038-.059-.113.03.119.016.038,0,0-.005.292.016.146-.007.051-.023.039.017,0a.928.928,0,0,1,.236-.141,2.989,2.989,0,0,1,.453-.135,12.013,12.013,0,0,1,2.981-.182.558.558,0,0,0,0-1.116,13.419,13.419,0,0,0-3.235.212c-.646.146-1.555.51-1.571,1.3-.02.953,1.43,1.246,2.124,1.387a14.746,14.746,0,0,0,3.87.268c.955-.062,2.366-.173,2.96-1.058.494-.736-.1-1.369-.787-1.64a10.082,10.082,0,0,0-3.36-.474A.558.558,0,0,0,171.863,372.472Z" transform="translate(-165.335 -336.003)" fill="#211715"/><path d="M173.38,378.96a1.33,1.33,0,0,1-.036-.934,2.859,2.859,0,0,1,.33-.761,1.145,1.145,0,0,1-.653-.565,1.12,1.12,0,0,1,.544-1.34c.4-.211.935.078,1.372.144.068.01.139.022.214.035-.619-2.1,2.426-1.28,3.137-.86a7.949,7.949,0,0,1,2.212,2.358l.167.675a21.739,21.739,0,0,0-.947,4.1,26.74,26.74,0,0,1-2.877.472,9.04,9.04,0,0,1-1.993-.359,3.018,3.018,0,0,1-1.253-.986,1.713,1.713,0,0,1,.033-1.624A.949.949,0,0,1,173.38,378.96Z" transform="translate(-166.803 -336.706)" fill="#fff"/><path d="M180.488,372.161a2.825,2.825,0,0,0,1.224-1.083,18.9,18.9,0,0,0,1.122-2.395l-.3,1.429a11.214,11.214,0,0,0,.842,5.872c-.33-.033-.668-.068-1.02-.107l-.346-.026-.045-.182a7.948,7.948,0,0,0-2.212-2.358l-.923-.544.279-.088A9.61,9.61,0,0,0,180.488,372.161Z" transform="translate(-168.271 -335.34)" fill="#f4b467"/><path d="M200.1,383.606c-1.384,0-6.48.11-7.9.11H189.44l-4.747-5.324-.147-5.828a11.112,11.112,0,0,1-.822-5.816,20.894,20.894,0,0,1,3.414-7.512c.624.836,4.459.071,5.951-.7.343-.178,3.283-2.059,3.731-3.119l.1-.225.066.207c.487,1.536,2.036,3.29,2.934,5.47.132.493.345,1.28.345,1.28.933,3.446-.215,7.264-.713,10.715-.111.769-.214,1.673-.4,2.564a8.353,8.353,0,0,0,.114,1.057c.245,1.417,1.319,5.688,1.165,7.1Z" transform="translate(-169.457 -331.977)" fill="#f4b467"/><path d="M191.2,393.525c2.986,0,5.973-.066,8.958-.1.568-.006,1.137-.013,1.7-.013a.559.559,0,0,0,0-1.117c-2.979,0-5.958.066-8.937.1-.575.006-1.15.014-1.725.014a.559.559,0,0,0,0,1.117Z" transform="translate(-171.221 -341.227)" fill="#211715"/><path d="M189.161,353.47c.077.138.155.276.227.417.038.073.073.146.107.22.009.019.016.038.026.056.029.064-.045-.113-.02-.047.017.045.035.089.051.133.029.081.054.164.075.246.011.043.02.086.029.128,0,.022.008.044.012.065.014.077,0-.028-.005-.049,0,.1.017.194.016.293q0,.072-.007.144c0,.024-.005.049-.008.073-.006.074.023-.145,0-.018a.6.6,0,0,0,.056.43.558.558,0,0,0,1.02-.133,2.921,2.921,0,0,0-.1-1.447,6.729,6.729,0,0,0-.513-1.076.558.558,0,1,0-.964.564Z" transform="translate(-170.828 -331.338)" fill="#211715"/><path d="M189.418,355.694a14.236,14.236,0,0,0-.755,1.7c-.057.14-.114.281-.173.422-.016.039-.043.1-.011.029l-.039.091c-.032.075-.065.149-.1.224a6.337,6.337,0,0,1-.393.752.563.563,0,0,0,.2.763.57.57,0,0,0,.763-.2,10.818,10.818,0,0,0,.79-1.69c.057-.141.113-.282.171-.423.028-.07.056-.139.085-.208,0,0,.056-.135.029-.07s.023-.055.029-.067a7.835,7.835,0,0,1,.367-.758.558.558,0,0,0-.964-.564Z" transform="translate(-170.525 -332.034)" fill="#211715"/><path d="M200.7,355.438a13.846,13.846,0,0,0,1.534,2.893,15.348,15.348,0,0,1,1.706,3.425c.215.683,1.293.391,1.077-.3a15.985,15.985,0,0,0-1.719-3.53,13.7,13.7,0,0,1-1.522-2.788c-.222-.68-1.3-.389-1.077.3Z" transform="translate(-173.715 -331.868)" fill="#211715"/><path d="M188.089,359.766a3.865,3.865,0,0,0,2.206.242,14.065,14.065,0,0,0,2.793-.571,11.226,11.226,0,0,0,3.54-2.047,5.438,5.438,0,0,0,1.726-1.8.574.574,0,0,0-.2-.763.561.561,0,0,0-.763.2,4.269,4.269,0,0,1-1.256,1.339,19.421,19.421,0,0,1-1.7,1.226,9.258,9.258,0,0,1-3.707,1.246,7.938,7.938,0,0,1-1.293.1c-.139,0-.365-.018-.434-.029s-.152-.033-.227-.053c-.122-.032,0,.019-.12-.049-.631-.346-1.194.618-.564.964Z" transform="translate(-170.51 -331.867)" fill="#211715"/><path d="M198.233,363.28a2.427,2.427,0,0,1,2.42-1.477,3.135,3.135,0,0,1,2.4,2.022c.324.642,1.288.077.964-.564a4.17,4.17,0,0,0-3.366-2.576,3.506,3.506,0,0,0-3.384,2.03.574.574,0,0,0,.2.764.564.564,0,0,0,.764-.2Z" transform="translate(-172.851 -333.345)" fill="#211715"/><path d="M203.674,364.427c.761,2.888.072,5.9-.441,8.768-.2,1.109-.335,2.225-.513,3.337a9.974,9.974,0,0,1-.728,2.715,3.054,3.054,0,0,1-2.146,1.83c-.7.151-.405,1.228.3,1.077,2.232-.48,3.146-2.645,3.54-4.673.213-1.1.322-2.211.509-3.312.266-1.575.592-3.139.783-4.726a14.129,14.129,0,0,0-.224-5.314.559.559,0,0,0-1.077.3Z" transform="translate(-173.41 -334.106)" fill="#211715"/><path d="M195.917,365.722a33.642,33.642,0,0,0-.789,10.158c.05.712,1.167.718,1.117,0a32.619,32.619,0,0,1,.748-9.861c.165-.7-.911-1-1.077-.3Z" transform="translate(-172.311 -334.502)" fill="#211715"/><path d="M204.473,392.9a50.836,50.836,0,0,1,.657,6.292,16.6,16.6,0,0,1-.085,3.041,3.408,3.408,0,0,1-1.506,2.453c-.595.4-.036,1.365.564.965a4.473,4.473,0,0,0,1.782-2.181,7.748,7.748,0,0,0,.367-2.4,36.589,36.589,0,0,0-.324-5.759c-.107-.9-.23-1.808-.378-2.707a.563.563,0,0,0-.687-.39.572.572,0,0,0-.39.687Z" transform="translate(-174.367 -341.2)" fill="#211715"/><path d="M203.576,382.167a32.93,32.93,0,0,0,.778,4.206c.147.725.287,1.453.394,2.185a6.75,6.75,0,0,1,.1,1.616.562.562,0,0,0,.559.559.57.57,0,0,0,.558-.559,7.323,7.323,0,0,0-.11-1.712c-.1-.74-.239-1.474-.387-2.207a32.794,32.794,0,0,1-.774-4.088c-.05-.713-1.167-.718-1.117,0Z" transform="translate(-174.439 -338.567)" fill="#211715"/><path d="M186.627,359.888a16.975,16.975,0,0,0-2.582,4.588,11.751,11.751,0,0,0-1.158,5.555,17.091,17.091,0,0,0,.936,3.806c.23.676,1.31.386,1.077-.3a14.076,14.076,0,0,1-.934-4.1,9.252,9.252,0,0,1,.6-3.2,23.127,23.127,0,0,1,1.254-3.014,12.751,12.751,0,0,1,1.592-2.557c.462-.545-.324-1.339-.79-.79Z" transform="translate(-169.273 -333.101)" fill="#211715"/><path d="M181.559,376.7a3.72,3.72,0,0,0-.952-1.35,8.688,8.688,0,0,0-1.4-1.266,3.88,3.88,0,0,0-1.242-.5,4.143,4.143,0,0,0-1.742-.116,1.4,1.4,0,0,0-1.191,1.324.563.563,0,0,0,.558.559.569.569,0,0,0,.559-.559c.005-.068,0-.068,0,0q.009-.044.023-.088c.022-.06.019-.056-.008.014a.761.761,0,0,1,.042-.071c-.113.069.014-.006.048-.035-.112.095.03-.006.061-.023-.126.065.04-.009.073-.019a1.534,1.534,0,0,1,.184-.037c-.137.019.075,0,.1,0,.07,0,.14,0,.209,0s.143.008.215.015c.037,0,.073.008.109.012-.058-.008-.053-.007.015,0q.216.036.428.088c.134.033.267.071.4.113.06.02.119.041.179.062.028.01.209.085.065.022a2.3,2.3,0,0,1,.244.12c.046.028.089.059.134.088l.075.055c-.047-.037-.045-.035.008.007a9.438,9.438,0,0,1,.743.675,10.385,10.385,0,0,1,.711.777l.074.092c-.03-.039-.026-.033.013.018s.077.106.112.161.052.1.083.142c.063.084-.035-.121,0,.011a.559.559,0,0,0,1.077-.3Z" transform="translate(-167.323 -336.522)" fill="#211715"/><path d="M176.57,375.464c-.525-.085-1.042-.209-1.567-.3a4.428,4.428,0,0,0-1.577-.224,1.647,1.647,0,0,0-1.115,1.061,1.425,1.425,0,0,0,.271,1.486,2.084,2.084,0,0,0,1.323.626.571.571,0,0,0,.687-.39.565.565,0,0,0-.39-.687,4.085,4.085,0,0,1-.569-.13c-.128-.042.089.056-.027-.014-.022-.013-.177-.118-.077-.038-.038-.031-.071-.067-.107-.1-.077-.071.009.035-.044-.055-.021-.033-.041-.067-.059-.1.027.074.03.08.01.022a.4.4,0,0,1-.014-.059c-.008-.042-.006-.027.006.045,0-.014.011-.183,0-.1s.023-.086.029-.1c.014-.044.057-.124.013-.041.03-.056.062-.11.095-.164.057-.095-.057.045.03-.037.012-.011.133-.127.081-.083s.079-.049.1-.058c-.091.045.037,0,.06-.008-.12.019.059.011.086.013s.035,0-.014,0l.11.023c.243.055.478.14.724.179.551.089,1.093.218,1.644.307a.573.573,0,0,0,.687-.39.565.565,0,0,0-.39-.687Z" transform="translate(-166.62 -336.894)" fill="#211715"/><path d="M173.078,377.91a2.156,2.156,0,0,0,.086,2.669l-.087-.676a2.2,2.2,0,0,0-.034,2.188A3.3,3.3,0,0,0,175,383.453a10.167,10.167,0,0,0,1.381.207,3.492,3.492,0,0,0,.973.012c.836-.122,1.653-.354,2.492-.459a.576.576,0,0,0,.559-.559.561.561,0,0,0-.559-.558c-.754.095-1.493.254-2.238.4a3.561,3.561,0,0,1-.694.1,8.261,8.261,0,0,1-.986-.111,2.86,2.86,0,0,1-1.77-.784,1.048,1.048,0,0,1-.116-1.241.562.562,0,0,0-.087-.677.68.68,0,0,1-.185-.6,2.329,2.329,0,0,1,.273-.713c.377-.614-.589-1.176-.964-.564Z" transform="translate(-166.732 -337.574)" fill="#211715"/><path d="M195.624,385.239c-1.884.494-5.624.1-7.557-.173a34.839,34.839,0,0,1-6.153-1.714,17.186,17.186,0,0,1,1.213-5.085c1.78.194,3.2.3,5.05.538s3.838.429,4.777.5Z" transform="translate(-169.039 -337.729)" fill="#f4b467"/><path d="M195.29,384.515a9.483,9.483,0,0,1-2.335.216c-.937,0-1.874-.058-2.807-.143a27.239,27.239,0,0,1-5.705-1.095c-.861-.27-1.706-.592-2.566-.865l.41.538a14.594,14.594,0,0,1,.47-2.754c.109-.451.228-.9.371-1.344.053-.166.108-.333.176-.493-.04.094.021-.046.037-.076a1.2,1.2,0,0,1,.083-.136l-.482.276c1.727.186,3.456.336,5.179.555,1.545.2,3.1.366,4.648.48.717.052.713-1.065,0-1.117-2.432-.176-4.844-.534-7.268-.776-.62-.062-1.24-.121-1.86-.185-.3-.03-.712-.155-.98,0a.846.846,0,0,0-.3.373,10.313,10.313,0,0,0-.7,2.231,16.05,16.05,0,0,0-.489,2.963.569.569,0,0,0,.411.538,44.078,44.078,0,0,0,5.577,1.622,34.28,34.28,0,0,0,5.546.52,11.26,11.26,0,0,0,2.883-.254.559.559,0,0,0-.3-1.077Z" transform="translate(-168.854 -337.543)" fill="#211715"/><path d="M182.888,366.411c-.6,1.145-.98,2.39-1.609,3.519a2.455,2.455,0,0,1-.9.974,7.041,7.041,0,0,1-1.5.6c-.682.216-.391,1.295.3,1.076a4.865,4.865,0,0,0,2.933-1.859c.724-1.176,1.107-2.527,1.743-3.748.332-.637-.632-1.2-.964-.564Z" transform="translate(-168.186 -334.703)" fill="#211715"/><path d="M192.672,325.018a9.974,9.974,0,0,1,8.373,5,8.378,8.378,0,0,1,1.094,4.807c-.035.226-.063.41-.063.41-.105.691-.233,1.655-.345,2.657a20.182,20.182,0,0,0-.148,7.078,6.668,6.668,0,0,1,.024,2.312c-.221,1.341-2.135,2.757-4.97,1.333l-.977-.491a5.118,5.118,0,0,1-1.37-.17c-.681-.17-2.124-.722-1.793-1.1a3.641,3.641,0,0,0,.841-2.337,10.451,10.451,0,0,0-.647-3.229,4.028,4.028,0,0,0,2.279-3.273,1.616,1.616,0,0,0-.548-1.507,1.207,1.207,0,0,0-1.07-.082,1.881,1.881,0,0,0-.742.541l-.5-.153a20.988,20.988,0,0,1-4.418-2.666,22.648,22.648,0,0,1-3.654-3.63l-.056-.072a9.614,9.614,0,0,1,.47-1.069,7.842,7.842,0,0,1,4.82-3.985,11.36,11.36,0,0,1,1.821-.305c.515-.051,1.034-.087,1.553-.087Z" transform="translate(-169.555 -324.452)" fill="#957f6e"/><path d="M195.527,341.1c.27-.345.824-.836,1.248-.523.355.263.321.914.232,1.348a3.539,3.539,0,0,1-2.092,2.535.562.562,0,0,0-.2.764.574.574,0,0,0,.764.2,4.578,4.578,0,0,0,2.688-3.779,1.855,1.855,0,0,0-3.428-1.335.577.577,0,0,0,0,.79.562.562,0,0,0,.79,0Z" transform="translate(-172.197 -328.034)" fill="#211715"/><path d="M181.936,347.924a2.728,2.728,0,0,0,2.175-.433.559.559,0,0,0-.395-.953.625.625,0,0,0-.395.164l-.028.023.113-.088a1.246,1.246,0,0,1-.256.144l.134-.056a2.051,2.051,0,0,1-.516.135l.149-.02a3.086,3.086,0,0,1-.776,0l.148.02-.056-.008a.611.611,0,0,0-.43.056.558.558,0,0,0-.2.763.534.534,0,0,0,.333.257Z" transform="translate(-168.943 -329.819)" fill="#211715"/><path d="M184.734,340.008c-.145.387-.138,1.3.568,1.432.941.062,1.074-1.034.8-1.575A.735.735,0,0,0,184.734,340.008Z" transform="translate(-169.724 -328.056)" fill="#211715"/><path d="M181.871,334.16c-.257,1.387-.071,2.811-.366,4.189a2.462,2.462,0,0,1-.678,1.4c-.224.191-.506.3-.722.5a1.576,1.576,0,0,0-.491,1.006c-.049.691.475,1.031.869,1.5a2.926,2.926,0,0,1,.4,1.636,5.086,5.086,0,0,0,1.632,3.628,4.735,4.735,0,0,0,2.121.751,7.1,7.1,0,0,0,1.3.092,5.388,5.388,0,0,0,.6-.055c.062-.009.125-.018.188-.03s.119-.024.177-.039c-.106-.057-.14-.051-.1.019.329.639,1.293.075.965-.564a1.015,1.015,0,0,0-.871-.562c-.317-.005-.637.1-.958.114a6.208,6.208,0,0,1-2.031-.286,2.205,2.205,0,0,1-1.363-1.1,5.438,5.438,0,0,1-.5-1.728,16.2,16.2,0,0,0-.193-1.642,2.588,2.588,0,0,0-.5-.94c-.165-.2-.391-.356-.547-.563-.135-.179-.045-.33.119-.471.235-.2.529-.312.757-.537a3.378,3.378,0,0,0,.829-1.521c.411-1.474.166-3.012.441-4.5.13-.7-.946-1-1.077-.3Z" transform="translate(-168.465 -326.633)" fill="#211715"/><path d="M205.151,342.287a22.145,22.145,0,0,0-.236,6.037,13.8,13.8,0,0,1,.224,2.49,1.876,1.876,0,0,1-.953,1.73,3.531,3.531,0,0,1-3.255-.2c-.643-.315-1.209.648-.564.965a5.073,5.073,0,0,0,3.624.52,3.11,3.11,0,0,0,1.992-1.646,6.113,6.113,0,0,0,.117-3.361c-.05-.324-.066-.439-.1-.8-.042-.418-.067-.838-.077-1.257a23.172,23.172,0,0,1,.3-4.177.576.576,0,0,0-.39-.687.563.563,0,0,0-.687.39Z" transform="translate(-173.569 -328.658)" fill="#211715"/><path d="M192.244,324.267a12.485,12.485,0,0,0-4.04.573,8.23,8.23,0,0,0-2.931,1.812,10.073,10.073,0,0,0-2.9,6.5c-.056.717,1.061.713,1.117,0a8.885,8.885,0,0,1,2.572-5.71,6.887,6.887,0,0,1,2.54-1.56,11.722,11.722,0,0,1,3.641-.5.558.558,0,0,0,0-1.116Z" transform="translate(-169.153 -324.267)" fill="#211715"/><path d="M195.379,325.393c4.57.1,8.978,3.9,8.939,8.645a14.128,14.128,0,0,1-.2,1.765q-.162,1.2-.29,2.408a.562.562,0,0,0,.558.559.571.571,0,0,0,.559-.559q.114-1.087.258-2.169a18.212,18.212,0,0,0,.23-1.821,8.962,8.962,0,0,0-.916-4.121,10.344,10.344,0,0,0-5.123-4.912,10.486,10.486,0,0,0-4.013-.911.558.558,0,0,0,0,1.116Z" transform="translate(-172.262 -324.269)" fill="#211715"/><path d="M194.8,346.794a8.286,8.286,0,0,1,.577,3.361,3.122,3.122,0,0,1-.457,1.307c-.237.375-.565.669-.313,1.143.319.6,1.236.873,1.835,1.062a4.282,4.282,0,0,0,2.835.059,2.772,2.772,0,0,0,1.554-2.79c-.047-.713-1.164-.718-1.117,0a1.591,1.591,0,0,1-1.543,1.885,4.807,4.807,0,0,1-2.444-.658c-.068-.041-.1-.086-.133-.092-.047-.05-.048-.047,0,.007a.39.39,0,0,1-.014.361c.071.012.354-.485.39-.547a4.369,4.369,0,0,0,.522-1.683,9.263,9.263,0,0,0-.611-3.711c-.212-.684-1.29-.392-1.077.3Z" transform="translate(-172.182 -329.712)" fill="#211715"/><path d="M183.477,332.571a20.823,20.823,0,0,0,4.064,3.937,15.811,15.811,0,0,0,4.253,2.5c.686.219.98-.859.3-1.076a9.4,9.4,0,0,1-2.1-1.1c-.644-.408-1.271-.843-1.887-1.292a19.9,19.9,0,0,1-3.839-3.763.562.562,0,0,0-.789,0,.572.572,0,0,0,0,.79Z" transform="translate(-169.389 -326.1)" fill="#211715"/></g><g transform="translate(99.81 352.374)"><path d="M123.464,375.728c0-1.477-2.69-2.1-4.811-2.1-2.25,0-5.206.854-5.206,2.267,0,1.671,2.507,2.039,5.013,2.039C120.388,377.931,123.464,377.4,123.464,375.728Z" transform="translate(-112.889 -369.242)" fill="#fff"/><path d="M123.837,375.541c-.053-1.916-2.592-2.416-4.075-2.586a9.812,9.812,0,0,0-5.7.915,2.325,2.325,0,0,0-1.351,1.718,2.086,2.086,0,0,0,1.134,1.946,6.831,6.831,0,0,0,2.835.709,14.96,14.96,0,0,0,2.881-.01c1.559-.171,4.226-.67,4.275-2.691a.559.559,0,0,0-1.117,0,.768.768,0,0,1-.163.467,1.923,1.923,0,0,1-.669.5,6.472,6.472,0,0,1-1.989.563,12.69,12.69,0,0,1-2.2.107,10.442,10.442,0,0,1-2.5-.3c-.5-.137-1.17-.384-1.337-.891a.626.626,0,0,1,.017-.51,1.482,1.482,0,0,1,.537-.52,8.011,8.011,0,0,1,4.443-.954,8.677,8.677,0,0,1,2.661.471,2.755,2.755,0,0,1,.884.486.793.793,0,0,1,.316.581A.559.559,0,0,0,123.837,375.541Z" transform="translate(-112.704 -369.055)" fill="#211715"/><path d="M121.9,372.969a8.1,8.1,0,0,0,.713-3.326l-.032-.158c.014-.655-1.883-.9-3.519-.944-2.061-.051-3.874.157-3.984.907a8.052,8.052,0,0,0,.506,3.82,3.171,3.171,0,0,0,3.031,1.715,3.134,3.134,0,0,0,2.946-1.4A4.683,4.683,0,0,0,121.9,372.969Z" transform="translate(-113.293 -367.972)" fill="#fff"/><path d="M121.87,369.767a7.331,7.331,0,0,1-.537,2.813,3.026,3.026,0,0,1-1.364,1.679,3.707,3.707,0,0,1-2.6.134,2.48,2.48,0,0,1-1.6-1.554,8.813,8.813,0,0,1-.315-3.268.559.559,0,0,0-1.117,0c-.051,2.111.049,4.739,2.29,5.728a4.86,4.86,0,0,0,3.381.143,3.687,3.687,0,0,0,2.094-1.871,8.153,8.153,0,0,0,.886-3.8.559.559,0,0,0-1.117,0Z" transform="translate(-113.109 -368.097)" fill="#211715"/><path d="M118.895,368.912a11.357,11.357,0,0,1,2.32.243,3.057,3.057,0,0,1,.634.22c.077.05.028-.005.027.016,0,.116.009-.383-.01-.211,0,.04,0,.142.011-.017,0,.01-.037.078-.051.082.05-.016.08-.07,0-.01-.028.021-.053.049-.08.071.11-.092-.036.017-.082.042-.026.015-.227.105-.1.056-.09.037-.183.068-.276.1a5.192,5.192,0,0,1-1.179.2,13.4,13.4,0,0,1-2.891-.11,8.378,8.378,0,0,1-1.23-.27c-.082-.026-.162-.054-.242-.083-.032-.011-.125-.054,0,0-.036-.016-.072-.031-.107-.05-.05-.027-.1-.061-.152-.086-.121-.059.068.068-.043-.039a.6.6,0,0,1,.054.094c0-.013,0,.3.016.147,0,.053-.023.043.022.008a2.322,2.322,0,0,1,.635-.236,11.32,11.32,0,0,1,2.732-.161.558.558,0,0,0,0-1.116,12.478,12.478,0,0,0-3.028.2c-.6.137-1.4.46-1.47,1.174-.1.955,1.287,1.256,1.974,1.4a13.747,13.747,0,0,0,3.636.254c.9-.059,2.213-.167,2.775-1,.478-.708-.086-1.324-.751-1.585a9.458,9.458,0,0,0-3.136-.442A.558.558,0,0,0,118.895,368.912Z" transform="translate(-113.125 -367.786)" fill="#211715"/></g><g transform="translate(92.433 354.601)"><path d="M124.866,382.408c.467-2.462,1.531-8.95,1.854-10.6a.281.281,0,0,0-.353-.322c-2.441.7-11.547,4.511-13.227,5.1a.285.285,0,0,0-.194.218c-.2,1.087-.468,2.76-.739,4.491-2.518,1.2-6.828,3.262-8.433,4.047a.284.284,0,0,0,.037.521,69.7,69.7,0,0,0,7.756,2.939c.665-.031,10.514-4.609,13.067-5.79a.257.257,0,0,0,.152-.181C124.809,382.706,124.837,382.564,124.866,382.408Z" transform="translate(-103.062 -370.933)" fill="#fff"/><path d="M111.44,388.436c.458-2.806.875-5.618,1.322-8.426q.158-.994.321-1.986.065-.389.132-.777c.018-.1.036-.209.055-.314,0-.021.038-.125.026-.141.014.02-.26.126-.116.123a1.623,1.623,0,0,0,.423-.157l.541-.209q.721-.283,1.44-.571c2.528-1.01,5.048-2.039,7.59-3.011.957-.366,1.917-.737,2.9-1.043.035-.011.212-.04.227-.069s-.318-.315-.309-.323c-.014.013-.007.054-.014.073a.727.727,0,0,0-.026.14c-.038.2-.076.411-.113.616q-.152.852-.3,1.706c-.454,2.637-.88,5.281-1.374,7.912a3.359,3.359,0,0,1-.131.6l.143-.247a1.161,1.161,0,0,1-.355.179l-.506.234-1.133.524q-1.41.652-2.823,1.3c-1.971.9-3.943,1.8-5.933,2.664-.614.266-1.13.5-1.8.739-.079.028-.158.053-.236.079a.82.82,0,0,0-.084.023c-.109.047.144-.01.064-.009-.114,0,.148.044.011,0-.055-.016-.113-.024-.168-.038-.174-.044-.346-.1-.517-.152-1.122-.359-2.221-.79-3.316-1.223q-.938-.37-1.868-.759-.392-.164-.781-.332l-.386-.168a1.573,1.573,0,0,0-.432-.192l-.037.444.149-.073.232-.113c.162-.08.325-.158.488-.236l1.061-.507q1.146-.545,2.295-1.083c1.339-.628,2.68-1.251,4.018-1.881.65-.306.084-1.269-.564-.965-1.4.661-2.808,1.314-4.211,1.972q-1.143.537-2.284,1.079l-1.043.5c-.341.164-.809.3-1.017.641a.855.855,0,0,0,.281,1.143,5.989,5.989,0,0,0,.888.4q1.093.472,2.2.917c1.293.522,2.594,1.04,3.921,1.473a3.633,3.633,0,0,0,1.086.266,1.784,1.784,0,0,0,.582-.143c.8-.29,1.585-.641,2.367-.982,2.332-1.016,4.643-2.078,6.953-3.141q1.421-.654,2.842-1.313c.468-.217.923-.358,1.053-.923.1-.436.167-.883.245-1.323.472-2.638.906-5.283,1.368-7.924.078-.448.157-.9.24-1.344a1.547,1.547,0,0,0,.041-.766.863.863,0,0,0-1.092-.529,24.968,24.968,0,0,0-2.636.929c-2.474.935-4.923,1.932-7.377,2.917-.893.358-1.784.72-2.683,1.061-.471.179-.941.3-1.061.869-.105.5-.175,1.01-.258,1.514-.465,2.832-.892,5.671-1.337,8.506q-.123.777-.248,1.554a.575.575,0,0,0,.39.687.562.562,0,0,0,.687-.39Z" transform="translate(-102.877 -370.753)" fill="#211715"/><path d="M123.382,383.3a1.279,1.279,0,0,0,1.5-.651,1.043,1.043,0,0,0-.285-1.336,1.391,1.391,0,0,0-1.71.624,1.118,1.118,0,0,0,.041,1.081A.981.981,0,0,0,123.382,383.3Z" transform="translate(-107.837 -373.36)" fill="#211715"/></g><g transform="translate(66.695 312.954)"><path d="M77.034,335.089a14.128,14.128,0,0,1-2.2-7.692c.1-5.007,2.686-7.669,4.7-8.718a11.992,11.992,0,0,1,9.059-.923c2.691.759,6.218,2.859,6.524,7.469" transform="translate(-70.147 -315.771)" fill="none"/><path d="M85.241,330.912l-.25.038a1.779,1.779,0,0,0-.184-.113,1.334,1.334,0,0,0-1.185-.055,1.784,1.784,0,0,0-.8,1.577,4.454,4.454,0,0,0,1.4,3.394,8.432,8.432,0,0,1-5.111,3.586,6.568,6.568,0,0,1,.664,3.052c1.162.369,3.194,1.072,4.976,1.691,1.413.492,2.669.931,3.211,1.11l.2-.683a11.317,11.317,0,0,1,.866-2.17.494.494,0,0,1,.631-.272,6.853,6.853,0,0,0,3.675.086l.063-.017a2.9,2.9,0,0,0,1.58-1.239,10.7,10.7,0,0,0,1.17-3.508,2.289,2.289,0,0,1,.622-.914c.443-.386,1.117-.651.869-1.429a1.4,1.4,0,0,0-.565-.7c-1.287-.885-1.123-2.962-1.009-4.459a10.4,10.4,0,0,0,0-3.434c-.217-.479-4.414-.156-4.911.162C87.8,328.289,85.256,329.861,85.241,330.912Z" transform="translate(-71.214 -318.001)" fill="#fff"/><path d="M89.451,316.9a11.084,11.084,0,0,0-2.552-.733,12.761,12.761,0,0,0-4.633.093,7.236,7.236,0,0,0-3.537,1.644,6.491,6.491,0,0,0-1.29,1.786c-.056.1-.082.262-.116.324a5.97,5.97,0,0,1-1.261,1.323,6.246,6.246,0,0,0-2.048,3.174,11.621,11.621,0,0,0-.217,4.5,9.334,9.334,0,0,0,1.551,4.064c.681,1.052,1.365,1.8,1.845,2.689a9.992,9.992,0,0,1,.562,1.029,8.429,8.429,0,0,0,5.111-3.585,4.453,4.453,0,0,1-1.4-3.394,1.784,1.784,0,0,1,.8-1.577,1.334,1.334,0,0,1,1.185.055,2.265,2.265,0,0,1,.894.95,6.808,6.808,0,0,1,1.551-1.594,8.532,8.532,0,0,1,1.127-.724c1.54-.789,3.323-1.568,4.877-2.513a.457.457,0,0,1,.662.232l0,.012a.468.468,0,0,0,.7.221c.461-.312,1.122-.815,1.456-1.028l.027-.014a8.707,8.707,0,0,0-3.92-6.238,9.025,9.025,0,0,0-1.056-.553Q89.61,316.97,89.451,316.9Z" transform="translate(-69.858 -315.457)" fill="#7a7473"/><path d="M99.895,364.978c-.209-.167-.389-.309-.528-.418-.311.414-1.407,1.716-1.627,2.031l-.933,1.119c.075.931.143,1.863.194,2.8.021.4-.052,2.1-.048,2.5l.056,1.677,2.516-1.626a4.348,4.348,0,0,1,.58-1.577c.268-.339.76-.483,1.1-.749.681-.536,1.293-1.136,1.956-1.68a3.257,3.257,0,0,1,.685-.545A35.9,35.9,0,0,0,99.895,364.978Z" transform="translate(-75.626 -327.562)" fill="#bdbdbd"/><path d="M104.36,365.955l-.041.089-.044.07c-.938-.922-2.551-2.254-3.49-3l.5-.415c2.7-1.818,1.458-3.214,3.366-3.993.587-.24,3.023-1.417,4.136-1.189l2.03.2c.516-.73,1.173-.122,1.333.619l.044-.021c.236-.111,1.444-.625,1.655-.151.557,1.252-1.911,2.137-1.744,2.064-.04.266-.091.528-.151.787a.885.885,0,0,1-.6.7l-.854.245c-.1.441-.465,1.05-.855,1.146a4.58,4.58,0,0,1-3.439,1.377A1.906,1.906,0,0,0,104.36,365.955Z" transform="translate(-76.618 -325.774)" fill="#fff"/><path d="M108.166,372.738a.891.891,0,0,0-.488-.566c-.442-.2-1.226.071-1.69.169-.521.111-1.254.336-1.877.465.47-.276.726-.834,1.11-1.222.357-.362.7-.7.5-1.261a.988.988,0,0,0-1.032-.6c-.388.042-.628.375-.915.611-.663.544-1.275,1.144-1.956,1.68-.336.266-.829.41-1.1.749a4.347,4.347,0,0,0-.58,1.576l-.861.8c.731,1.239,1.606,3.027,2.319,4.54,1.149-.045,2.4.125,2.793.038a9.711,9.711,0,0,0,2.108-.513,2.73,2.73,0,0,0,.989-1.286c.1-.587.35-1.651-.023-2.073.345-.334.561-.566.49-.941a.857.857,0,0,0-.6-.724,1.243,1.243,0,0,0,.759-.685A1.08,1.08,0,0,0,108.166,372.738Z" transform="translate(-76.242 -328.848)" fill="#fff"/><path d="M82.408,402.655a29.7,29.7,0,0,1-5.211-1.128s-5.839-1.477-7.873-2.274c.146-.922,1.944-5.775,2.68-9.113.233-1.151.447-2.447.568-3.409,1.333,5.773,5.558,5.023,9.7,3.606.908-.312,1.8-.658,2.667-1.032-2.2,2.388-4.126,4.458-5.318,5.723a.437.437,0,0,0-.095.241c0,.58,0,1.917,0,2.757a.557.557,0,0,0,.557.562h7.186c-1.134,1.531-1.617,2.094-2.413,3.1a2.428,2.428,0,0,1-2.441.962" transform="translate(-68.774 -333.089)" fill="#bdbdbd"/><path d="M77.241,349.689c-.217.822-.455,1.489-.621,2.068-1.314,2.177-4.026,3.985-4.454,6.55-.011.061-.02.121-.03.181a25.567,25.567,0,0,0-.4,6.994c.158,2.706,1.081,9.918,1.493,12.311l.045.164c1.449,5.269,5.555,4.522,9.579,3.144,4.3-1.474,8.126-3.754,12.137-5.835a46.819,46.819,0,0,0-3.185-6.039c-.5.189-1.082.44-1.677.709.015-1.2-.06-2.337-.06-3.123a12.193,12.193,0,0,0-.91-3.847c-.685-1.157-3.44-4.662-4.537-6.107a56.948,56.948,0,0,0-7.251-7.17" transform="translate(-69.356 -323.852)" fill="#bdbdbd"/><path d="M93.474,352.167c-.435-.487-.995-1.069-1.39-1.525l.062.444a18.689,18.689,0,0,1,.755,3.082l-.09.077c.29,1.252,1.2,7.28,1.261,8.149l.173.812a12.193,12.193,0,0,1,.91,3.847c0,.786.075,1.924.06,3.122.19-.086.379-.17.564-.251l0-.39c0-.4.069-2.1.048-2.5-.066-1.218-.161-2.435-.264-3.651-.227-2.706-.48-5.416-.84-8.108-.068-.5-.136-1-.232-1.5a1.875,1.875,0,0,0-.143-.556c-.084-.149-.219-.22-.307-.357A6.374,6.374,0,0,0,93.474,352.167Z" transform="translate(-74.448 -324.092)" fill="#fff"/><path d="M90.6,359.166c-.309-2.107-.745-4.853-.931-5.653l.09-.077a18.688,18.688,0,0,0-.755-3.082c-.233-.005-.522-.005-.771-.016l-.087.244c-1.077-.35-6.363-2.233-8.417-2.874-.042.321-.188,1.175-.236,1.621a57.762,57.762,0,0,1,7.073,7.038c1.037,1.367,3.558,4.576,4.407,5.9l-.043-.6C90.911,361.348,90.778,360.36,90.6,359.166Z" transform="translate(-71.31 -323.361)" fill="#fff"/><path d="M92.27,354.388c.29,1.252,1.2,7.28,1.261,8.149l.068.959c-.619-.8-1.79-2.5-2.828-3.993-.038-1.642.166-3.319.142-4.795-.043-.058-.081-.113-.081-.113-.186-.266-.686-.733-.845-.983l-.071-.113c.323-.712.747-1.707,1-2.281.226.008.477.008.684.013.177.507.36,2.146.665,3.158Z" transform="translate(-73.908 -324.235)" fill="#6dbf6b"/><path d="M73.116,404.878c.1,1.1.225,2.2.414,3.287a.561.561,0,0,0,.687.39.575.575,0,0,0,.39-.687c-.026-.151-.05-.3-.073-.454-.016-.107-.031-.212-.046-.318-.009-.064-.017-.127-.026-.19s0-.031,0,.013l-.016-.116q-.126-.961-.215-1.925a.572.572,0,0,0-.559-.559.565.565,0,0,0-.559.559Z" transform="translate(-69.719 -337.474)" fill="#211715"/><path d="M87.182,332.718a2.28,2.28,0,0,0-2.5-1.243,2.227,2.227,0,0,0-1.377,2.179,5.007,5.007,0,0,0,2.469,4.46.559.559,0,0,0,.564-.964,3.891,3.891,0,0,1-1.909-3,1.774,1.774,0,0,1,.389-1.512c.529-.411,1.149.226,1.4.646a.559.559,0,0,0,.965-.564Z" transform="translate(-72.258 -319.295)" fill="#211715"/><path d="M98.956,333.685c.107.444-.025,1.446-.815,1.492-1.039-.06-1.036-1.279-.658-1.834A.81.81,0,0,1,98.956,333.685Z" transform="translate(-75.736 -319.69)" fill="#211715"/><path d="M91.38,347.193a11.074,11.074,0,0,0-.938,2.332.563.563,0,0,0,.39.687.57.57,0,0,0,.687-.39c.121-.392.251-.781.4-1.163.019-.048.038-.1.057-.144.012-.031.086-.192.017-.043.036-.078.068-.158.1-.236.076-.164.157-.324.248-.48a.558.558,0,1,0-.964-.564Z" transform="translate(-74.034 -323.165)" fill="#211715"/><path d="M92.637,342.816c-.034.051-.05-.033-.02.026.017.035.222.077.26.087a4.392,4.392,0,0,0,.481.111,7.556,7.556,0,0,0,1.227.115,6.312,6.312,0,0,0,2.233-.3,4.734,4.734,0,0,0,2.588-3.418c.1-.32.179-.643.251-.968a3.352,3.352,0,0,1,.219-.863c.313-.58.981-.792,1.306-1.357a1.612,1.612,0,0,0-.523-2,2.276,2.276,0,0,1-.623-.637,2.745,2.745,0,0,1-.3-.858c-.328-1.667.211-3.382.11-5.061-.044-.714-1.161-.719-1.117,0,.093,1.529-.29,3.034-.174,4.564a4.5,4.5,0,0,0,.512,1.92,2.641,2.641,0,0,0,.61.724c.2.168.6.383.559.709-.019.165-.208.286-.336.384a3.836,3.836,0,0,0-.816.773,4.844,4.844,0,0,0-.6,1.808c-.306,1.209-.77,2.866-2.13,3.264a6.362,6.362,0,0,1-2.431.166,7.975,7.975,0,0,1-1.055-.249,1.082,1.082,0,0,0-1.2.5c-.4.6.571,1.163.965.564Z" transform="translate(-74.322 -318.236)" fill="#211715"/><path d="M99.808,340.662l-1.33-.108a.979.979,0,0,0-.833.179,1.225,1.225,0,0,0-.29.77,3.031,3.031,0,0,0,.7,2.176.559.559,0,0,0,.953-.395.637.637,0,0,0-.164-.395c-.063-.078.083.12.012.014l-.057-.084c-.033-.051-.065-.1-.093-.158a1.877,1.877,0,0,0-.1-.2c.032.078.04.1.024.057l-.019-.047c-.012-.032-.024-.063-.035-.1a3.272,3.272,0,0,1-.112-.431c-.009-.061-.008-.045.005.047,0-.023-.005-.045-.008-.068s-.005-.068-.007-.1a1.758,1.758,0,0,1,0-.218c0-.017,0-.033,0-.05.008-.061,0-.044-.007.05a.525.525,0,0,0,.019-.1c.008-.032.017-.062.026-.094.019-.056.012-.041-.02.046a.3.3,0,0,1-.232.162c-.18.052-.055.029.012.034l.128.011.279.023,1.137.092a.56.56,0,0,0,.559-.558.572.572,0,0,0-.559-.559Z" transform="translate(-75.758 -321.573)" fill="#211715"/><path d="M83.469,338.848a7.907,7.907,0,0,1-4.248,2.951.559.559,0,0,0,.3,1.077,9.127,9.127,0,0,0,4.916-3.465.562.562,0,0,0-.2-.763.571.571,0,0,0-.764.2Z" transform="translate(-71.143 -321.083)" fill="#211715"/><path d="M88.616,331.573c1.34-1.59,3.317-2.29,5.126-3.206.507-.257,1.011-.522,1.5-.806.05-.029.427-.206.429-.253,0,0-.221.021-.153-.091-.088.144.393.537.477.583a1.235,1.235,0,0,0,1.375-.259c.374-.266.739-.547,1.124-.8.6-.391.041-1.358-.563-.964-.385.251-.751.531-1.125.8-.05.035-.321.177-.331.231-.042.018-.033.019.026,0l.077.056q.043.132-.044-.091a.607.607,0,0,0-.128-.2,1.069,1.069,0,0,0-.234-.216c-.536-.348-1.016-.041-1.492.233-.53.3-1.071.589-1.617.863-1.864.938-3.861,1.688-5.239,3.324-.46.546.326,1.34.79.789Z" transform="translate(-73.352 -317.871)" fill="#211715"/><path d="M79.555,349.227l0-.007.077.282v0l-.41.538h-.3c.009,0-.179-.08-.11-.041s-.05-.039-.062-.05c.051.043.1.083.155.125.156.13.31.262.463.395q.76.658,1.5,1.338c1.323,1.213,2.619,2.462,3.824,3.793,1.058,1.169,1.988,2.448,2.946,3.7a38.73,38.73,0,0,1,2.762,3.8,7.824,7.824,0,0,1,.718,2.855,25.459,25.459,0,0,1,.159,3.471.558.558,0,0,0,1.116,0,25.068,25.068,0,0,0-.146-3.384,13.475,13.475,0,0,0-.577-2.84,7.758,7.758,0,0,0-1.055-1.778c-.534-.744-1.087-1.474-1.642-2.2-1.026-1.346-2.023-2.738-3.138-4.013a52.93,52.93,0,0,0-3.965-3.995c-.582-.537-1.17-1.067-1.769-1.584-.334-.288-.7-.734-1.179-.666a.557.557,0,0,0-.41.538.566.566,0,0,0,.845.49.561.561,0,0,0,.2-.763Z" transform="translate(-71.064 -323.671)" fill="#211715"/><path d="M92.33,355.408c.227.994.369,2.011.528,3.017.2,1.284.4,2.569.576,3.856.026.192.053.381.085.646.02.16.04.32.052.481.053.712,1.17.718,1.116,0-.073-.968-.245-1.934-.387-2.892-.194-1.322-.4-2.643-.623-3.96-.083-.483-.161-.968-.271-1.444-.16-.7-1.237-.4-1.077.3Z" transform="translate(-74.505 -325.107)" fill="#211715"/><path d="M90.8,351.586c.257.01.514.01.771.016l-.538-.41c.146.423.27.854.383,1.287q.111.421.2.848c.032.147.062.295.089.444.014.077.027.153.04.23l.016.1c0,.024.02.143,0,.024l.41-.538c-.2.047-.408.093-.613.134-.093.019-.186.036-.279.053l-.157.026c-.015,0-.152.022-.074.011s-.065.007-.066.007l-.11.01c-.065.005-.131.009-.2.009s-.113-.007-.169-.007.133.036.05,0c-.023-.008-.049-.012-.072-.02a.563.563,0,0,0-.687.39.572.572,0,0,0,.39.687,2.1,2.1,0,0,0,.911.029c.462-.059.917-.152,1.371-.257a.561.561,0,0,0,.41-.539,16.547,16.547,0,0,0-.775-3.23.577.577,0,0,0-.538-.41c-.257-.005-.514-.006-.771-.016a.562.562,0,0,0-.558.559.569.569,0,0,0,.558.559Z" transform="translate(-73.876 -324.049)" fill="#211715"/><path d="M90.451,355.538c.032,1.5-.142,2.986-.145,4.481a.558.558,0,0,0,1.116,0c0-1.495.177-2.986.145-4.481a.558.558,0,0,0-1.116,0Z" transform="translate(-74.005 -325.178)" fill="#211715"/><path d="M79.853,349.276c.044-.538.156-1.069.228-1.6l-.687.39c2.83.886,5.6,1.956,8.418,2.874l-.39-.687a19.992,19.992,0,0,0-.289,1.992c-.036.293-.071.586-.122.878-.023.134-.047.268-.08.4-.014.052-.029.1-.044.155-.035.116.041-.075-.008.019l.764-.2c-1.572-.748-3.037-1.7-4.591-2.481-.64-.323-1.206.64-.564.964,1.554.783,3.019,1.733,4.591,2.482a.569.569,0,0,0,.764-.2,5.123,5.123,0,0,0,.372-1.742c.083-.656.137-1.322.284-1.969a.573.573,0,0,0-.39-.686c-2.819-.919-5.587-1.989-8.417-2.875a.561.561,0,0,0-.687.39c-.086.634-.216,1.263-.268,1.9-.059.716,1.058.712,1.116,0Z" transform="translate(-71.12 -323.175)" fill="#211715"/><path d="M76.668,359.9a4.732,4.732,0,0,1,4.818,3.365.559.559,0,0,0,1.077-.3,5.854,5.854,0,0,0-5.895-4.185.572.572,0,0,0-.559.559.563.563,0,0,0,.559.559Z" transform="translate(-70.466 -326.118)" fill="#211715"/><path d="M78.174,350.139a14.048,14.048,0,0,0-.606,2.786.582.582,0,0,0,.257.631c1.018.55,2.088,1,3.128,1.505l-.256-.631c-.074.308-.122.621-.164.935-.049.358-.212.882.016,1.2a3.052,3.052,0,0,0,.483.465c.565.491,1.152.956,1.739,1.42q2.411,1.906,4.888,3.729c.709.522,1.419,1.044,2.146,1.54.6.405,1.155-.562.564-.965-2.671-1.82-5.254-3.814-7.759-5.855a12.69,12.69,0,0,1-1.228-1.067l.164.395a12.119,12.119,0,0,1,.228-1.5.568.568,0,0,0-.257-.631c-1.04-.5-2.11-.956-3.128-1.505l.256.631a14.058,14.058,0,0,1,.606-2.786c.243-.677-.836-.969-1.077-.3Z" transform="translate(-70.827 -323.872)" fill="#211715"/><path d="M91.51,350.846c.378.432.775.848,1.163,1.273.321.351.594.745.913,1.092a1.212,1.212,0,0,1,.21.66c.073.408.132.817.188,1.227.1.772.2,1.545.285,2.319.346,3.064.631,6.146.806,9.225.051.9-.041,1.8-.037,2.7a.559.559,0,0,0,1.117,0c0-.808.071-1.616.05-2.423-.038-1.518-.206-3.041-.336-4.552-.138-1.606-.288-3.211-.468-4.814q-.139-1.235-.3-2.468a10.4,10.4,0,0,0-.354-2.118,2.94,2.94,0,0,0-.508-.726c-.178-.241-.374-.468-.573-.691-.449-.5-.92-.987-1.363-1.495-.474-.541-1.261.251-.79.79Z" transform="translate(-74.269 -323.901)" fill="#211715"/><path d="M101.559,363.026a5.572,5.572,0,0,0,2.056-2.29c.124-.278.252-.647.347-.842a1.37,1.37,0,0,1,.477-.61,4.64,4.64,0,0,1,.872-.419c.325-.142.651-.281.981-.408a11.5,11.5,0,0,1,1.337-.441,4.31,4.31,0,0,1,.559-.112,2.144,2.144,0,0,1,.441-.005.573.573,0,0,0,.687-.39.563.563,0,0,0-.39-.687,4.37,4.37,0,0,0-2.055.248,20.111,20.111,0,0,0-2.038.793l-.306.134c-.1.044-.006,0-.017.008-.1.044-.2.084-.3.131a2.529,2.529,0,0,0-.781.559,4.727,4.727,0,0,0-.766,1.46,4.557,4.557,0,0,1-1.664,1.905c-.589.4-.031,1.372.564.965Z" transform="translate(-76.607 -325.622)" fill="#211715"/><path d="M116.08,358.8l.07-.032.042-.019c.071-.031-.164.068-.063.027.081-.033.163-.065.245-.094a3.206,3.206,0,0,1,.613-.16l-.149.02a1.251,1.251,0,0,1,.313-.008l-.149-.02c.045.007.086.022.129.032-.147-.037-.128-.047-.065-.021-.092-.074-.119-.095-.078-.06l.02.02c-.077-.055-.093-.122-.045-.051.034.05-.056-.151-.015-.032a1.031,1.031,0,0,1,.041.173l-.02-.149a.929.929,0,0,1,0,.228l.02-.149a.955.955,0,0,1-.031.139c-.008.023-.017.045-.024.068-.014.045.071-.155.02-.048a1.2,1.2,0,0,1-.073.128c-.011.018-.023.036-.036.053-.056.08.014-.026.035-.043a1.018,1.018,0,0,0-.1.117c-.036.039-.074.076-.112.112s-.08.071-.121.106l-.053.043c.145-.122.067-.051.031-.025a4.677,4.677,0,0,1-.92.522.56.56,0,0,0-.257.334.57.57,0,0,0,.056.43.562.562,0,0,0,.334.257.654.654,0,0,0,.43-.056,4.954,4.954,0,0,0,.8-.436,2.846,2.846,0,0,0,.923-.923,1.462,1.462,0,0,0,.025-1.441,1.2,1.2,0,0,0-1.351-.377,4.661,4.661,0,0,0-1.046.368.561.561,0,0,0-.2.763.573.573,0,0,0,.764.2Z" transform="translate(-80.221 -325.782)" fill="#211715"/><path d="M114.115,358.73a4.632,4.632,0,0,1,.131-.759c.029-.114-.086.13.017-.026.02-.036.042-.071.065-.105-.032.035-.028.03.014-.017.023-.024.131-.108.026-.038.1-.065.056,0,.007-.017a.462.462,0,0,1,.071-.019c-.09.01-.1.014-.044.013-.163-.009-.05,0-.011.007-.077-.035-.089-.039-.035-.011.017.009.032.019.048.029.034.023.022.013-.035-.029.02.017.04.036.059.056.038.038.076.091.023.017a1.58,1.58,0,0,1,.1.152c.023.041.044.083.062.125-.05-.117.011.044.017.069.017.055.028.11.041.166.032.138.006-.1,0,.045,0,.172.016.344.014.515a7.555,7.555,0,0,1-.065.938c-.04.294-.115.6-.174.9-.022.107.017,0-.029.083a1.024,1.024,0,0,1-.055.092c.036-.044.033-.043-.008,0s-.047.044-.015.02l-.018.012a.741.741,0,0,1-.08.044c.066-.026.069-.029.01-.009a.558.558,0,0,0,.3,1.077,1.436,1.436,0,0,0,.748-.543,2.2,2.2,0,0,0,.318-.893,8.937,8.937,0,0,0,.183-2.058,2.285,2.285,0,0,0-.565-1.534,1.114,1.114,0,0,0-1.445-.206,2.379,2.379,0,0,0-.787,1.9.562.562,0,0,0,.558.559.57.57,0,0,0,.559-.559Z" transform="translate(-79.662 -325.59)" fill="#211715"/><path d="M111.316,363.677a1.031,1.031,0,0,0,1.316.155,2.17,2.17,0,0,0,.771-.971,4.4,4.4,0,0,0,.265-1.226,7.112,7.112,0,0,0,.071-1.318,1.834,1.834,0,0,0-.45-1.266,1.168,1.168,0,0,0-1.167-.259c-.952.33-1.1,1.417-1.2,2.284a6.73,6.73,0,0,0-.031,1.38,2.053,2.053,0,0,0,.42,1.221.563.563,0,0,0,.79,0,.572.572,0,0,0,0-.79c-.062-.07.066.126.028.035a.378.378,0,0,0-.033-.059c-.053-.08.042,0,.015.04a.371.371,0,0,0-.026-.074c-.02-.062-.035-.123-.048-.186-.005-.024-.01-.049-.014-.074s-.008-.052-.012-.077q.015.113.007.047a9.751,9.751,0,0,1-.018-.994q.014-.248.043-.493s.02-.159.008-.072.011-.071.011-.07c.014-.093.03-.185.047-.278.028-.145.058-.291.1-.432.005-.017.063-.169.01-.047.012-.028.026-.055.039-.081s.044-.074.065-.11c.065-.107-.076.071.011-.012a.647.647,0,0,1,.08-.078c.008.006-.121.074-.029.023.014-.008.071-.056.088-.051s-.128.034-.043.019c.008,0,.087-.031.091-.024s-.157,0-.042.008a.257.257,0,0,0,.075,0c-.1-.015-.119-.017-.061,0l.029.008c.107.032-.131-.044-.024-.009.012,0,.1.065.019.008s0,0,.013.02c.068.083-.036-.09-.017-.022,0,.008.047.075.044.076s-.042-.125,0,.007a1.959,1.959,0,0,1,.057.263c0-.023-.011-.115,0-.006,0,.05.008.1.011.149,0,.086.006.172.006.257,0,.194-.012.387-.029.58-.014.168-.035.336-.056.5s.012-.079,0,.013c0,.036-.01.073-.015.109-.011.078-.02.156-.032.233a1.609,1.609,0,0,1-.047.206c-.01.032-.021.062-.031.092-.043.137.038-.066-.013.037-.038.076-.074.152-.119.224q-.021.037-.045.072c-.018.028-.134.161-.036.054-.053.059-.107.113-.164.167.014-.013.1-.063.026-.022-.035.018-.179.089-.017.019a.311.311,0,0,1-.062.017c.1-.011.116-.014.056-.012.092.017.115.02.071.01s-.1-.046.026.016c-.049-.031-.042-.022.022.026a.6.6,0,0,1-.059-.056.558.558,0,1,0-.79.79Z" transform="translate(-79.132 -326.109)" fill="#211715"/><path d="M106.419,364.2c.1-.057.2-.112.3-.163l.11-.054c.029-.013.19-.1.05-.026a2.138,2.138,0,0,1,.529-.167l.128-.024-.038.005.075-.008a2.39,2.39,0,0,1,.264-.006c.051,0,.1.007.154.011.115.007-.116-.023.008,0,.109.021.215.044.322.074a.559.559,0,0,0,.3-1.077,3.128,3.128,0,0,0-1.471-.06,4.3,4.3,0,0,0-1.29.529.559.559,0,0,0,.564.965Z" transform="translate(-77.812 -327.085)" fill="#211715"/><path d="M110.06,363.512l0-.026.02.149a3.578,3.578,0,0,1,.005-.931l-.02.148a2.1,2.1,0,0,1,.108-.519l-.056.134a.391.391,0,0,1,.047-.078l-.087.113a.524.524,0,0,1,.077-.075l-.113.088a.662.662,0,0,1,.138-.079l-.134.056a.993.993,0,0,1,.227-.061l-.149.02a1.1,1.1,0,0,1,.273,0l-.149-.02a.828.828,0,0,1,.2.053l-.134-.056a.556.556,0,0,1,.119.069l-.113-.087a.427.427,0,0,1,.064.064l-.087-.113a.434.434,0,0,1,.034.054.563.563,0,0,0,.763.2.57.57,0,0,0,.2-.763,1.256,1.256,0,0,0-1.4-.48,1.147,1.147,0,0,0-.61.343,1.031,1.031,0,0,0-.227.455,5.263,5.263,0,0,0-.093.55,4.027,4.027,0,0,0,.02,1.092.556.556,0,0,0,.256.334.572.572,0,0,0,.431.056.566.566,0,0,0,.333-.257l.056-.134a.567.567,0,0,0,0-.3Z" transform="translate(-78.649 -326.756)" fill="#211715"/><path d="M110.2,364.457c-.654.929-2.069,1.055-3.131,1.17a2.438,2.438,0,0,0-1.585.7,4.147,4.147,0,0,0-.652,1.132.575.575,0,0,0,.2.764.563.563,0,0,0,.764-.2c.084-.183.16-.371.252-.551a2.8,2.8,0,0,1,.153-.264c.086-.133-.068.07.037-.052.035-.04.071-.078.109-.115a1.082,1.082,0,0,1,.477-.242,7.291,7.291,0,0,1,.956-.122,4.636,4.636,0,0,0,3.383-1.652.564.564,0,0,0-.2-.764.571.571,0,0,0-.764.2Z" transform="translate(-77.609 -327.467)" fill="#211715"/><path d="M109.512,360.628c.19-.093.382-.18.577-.263l-.134.056a4.4,4.4,0,0,1,1.089-.355l-.148.02a.766.766,0,0,1,.1-.007.559.559,0,1,0,0-1.117,2.887,2.887,0,0,0-.98.238c-.363.137-.72.292-1.067.462a.562.562,0,0,0-.2.764.572.572,0,0,0,.763.2Z" transform="translate(-78.584 -326.166)" fill="#211715"/><path d="M98.344,366.689c.02-.028.04-.054.06-.082-.031.042-.042.055,0,.006.066-.085.134-.169.2-.252q.241-.3.485-.6c.3-.366.6-.73.886-1.107l-.877.113c.787.613,1.557,1.248,2.315,1.9a15.858,15.858,0,0,1,2.158,2.046.562.562,0,0,0,.79,0,.573.573,0,0,0,0-.79,15.819,15.819,0,0,0-2.158-2.046c-.757-.648-1.528-1.283-2.314-1.9a.572.572,0,0,0-.877.113c-.082.108.08-.1-.022.028l-.068.086c-.073.092-.147.184-.221.276l-.5.61c-.278.339-.564.675-.819,1.031a.563.563,0,0,0,.2.764.571.571,0,0,0,.764-.2Z" transform="translate(-75.748 -327.379)" fill="#211715"/><path d="M100.782,374.307a4.607,4.607,0,0,1,.348-1.153,1.336,1.336,0,0,1,.674-.589A14.263,14.263,0,0,0,104,370.779c.173-.148.348-.294.515-.448a.732.732,0,0,1,.348-.237.414.414,0,0,1,.462.31c.036.294-.34.537-.509.73a7.65,7.65,0,0,1-.845.995.562.562,0,0,0,0,.79.571.571,0,0,0,.79,0,6.061,6.061,0,0,0,.789-.928,4.847,4.847,0,0,0,.749-.931,1.468,1.468,0,0,0-1.019-2.035c-.953-.215-1.576.533-2.227,1.1-.363.316-.718.641-1.084.953a6.5,6.5,0,0,1-.971.661,3.12,3.12,0,0,0-1.29,2.272.573.573,0,0,0,.39.687.564.564,0,0,0,.687-.39Z" transform="translate(-76.345 -328.665)" fill="#211715"/><path d="M105.831,373.927c.592-.132,1.172-.309,1.763-.441.246-.055.489-.124.737-.174.067-.014.134-.026.2-.036.04-.006.038-.006-.005,0q.056-.007.113-.009c.062,0,.125,0,.188,0,.042,0,.035,0-.023-.005a.812.812,0,0,1,.094.023c.059.02.059.02,0,0l.045.026c.054.036.056.037.008,0a.846.846,0,0,1,.071.068c.08.077-.014-.052.026.042.016.027.031.056.044.084-.026-.059-.029-.059-.007,0,0,.02.028.171.016.039.006.065,0,.128,0,.191,0-.11,0,0-.011.04s-.017.061-.028.091c.029-.065.027-.061-.008.012-.03.053-.058.1-.092.154.048-.071-.073.074-.087.089-.074.08.056-.023-.042.033-.055.032-.108.062-.164.091.086-.043.008,0-.038.013s-.1.032-.152.047c-.106.029-.213.053-.321.079a.559.559,0,0,0,.3,1.077,2.433,2.433,0,0,0,1.263-.6,1.737,1.737,0,0,0,.45-1.6,1.438,1.438,0,0,0-1.2-1.086,4.5,4.5,0,0,0-1.592.221c-.62.144-1.233.322-1.854.461a.558.558,0,1,0,.3,1.076Z" transform="translate(-77.699 -329.454)" fill="#211715"/><path d="M107.921,376.03c-.247-.029-.071-.044-.044.027s.108.144.113.232c.009.186-.217.336-.339.455a.574.574,0,0,0,0,.79,1.959,1.959,0,0,1,.013.711,7.872,7.872,0,0,1-.135.825c0,.016-.034.1-.006.022s-.035.067-.044.086a3.682,3.682,0,0,1-.185.327,1.3,1.3,0,0,1-.559.54,5.461,5.461,0,0,1-1.213.3c-.2.034-.4.062-.592.107-.285.068.056.009-.1.022-.063,0-.127.005-.191.006-.83.005-1.654-.092-2.484-.062-.717.026-.72,1.143,0,1.117.9-.033,1.829.134,2.729.05a12.757,12.757,0,0,0,1.423-.255,3.142,3.142,0,0,0,1.356-.552,3.491,3.491,0,0,0,.782-4.032v.79a1.563,1.563,0,0,0,.611-1.579,1.364,1.364,0,0,0-1.132-1.041.561.561,0,0,0-.559.558.571.571,0,0,0,.559.559Z" transform="translate(-76.824 -330.142)" fill="#211715"/><path d="M76.517,349.363c-.166.618-.366,1.224-.552,1.835a4.021,4.021,0,0,1-.839,1.243c-.7.848-1.481,1.631-2.16,2.5a7.09,7.09,0,0,0-1.5,2.9,28.373,28.373,0,0,0-.51,3.8,35.863,35.863,0,0,0,.213,5.831c.191,1.9.42,3.789.667,5.678.216,1.661.413,3.333.727,4.978.135.706,1.212.407,1.077-.3-.258-1.348-.428-2.717-.609-4.077-.249-1.88-.481-3.764-.681-5.651a44.126,44.126,0,0,1-.318-5.488,24.572,24.572,0,0,1,.371-3.684,7.479,7.479,0,0,1,.385-1.609,6.748,6.748,0,0,1,.781-1.341c.7-.977,1.576-1.821,2.343-2.746a5.483,5.483,0,0,0,1.071-1.549c.222-.666.425-1.344.607-2.022a.559.559,0,0,0-1.077-.3Z" transform="translate(-69.17 -323.674)" fill="#211715"/><path d="M84.121,367.536a24.763,24.763,0,0,1,.161,5.478,43.005,43.005,0,0,0-.255,4.579.558.558,0,0,0,1.116,0,42.8,42.8,0,0,1,.256-4.579,24.765,24.765,0,0,0-.161-5.478.577.577,0,0,0-.559-.559.561.561,0,0,0-.559.559Z" transform="translate(-72.439 -328.164)" fill="#211715"/><path d="M81.461,380.536c1.811-.621,3.58-1.366,5.348-2.1.867-.358,1.733-.715,2.588-1.1.961-.435,1.913-.895,2.9-1.269l-.631-.257a20.608,20.608,0,0,1,1.572,2.716c.562,1.1,1.092,2.207,1.613,3.323l.2-.764a104.618,104.618,0,0,1-10.907,5.383,23.234,23.234,0,0,1-4.248,1.257,5.782,5.782,0,0,1-3.261-.213,4.9,4.9,0,0,1-2.479-3.4.559.559,0,0,0-1.077.3,6.4,6.4,0,0,0,2.429,3.757,5.716,5.716,0,0,0,3.66.772,17.606,17.606,0,0,0,4.177-1,47.94,47.94,0,0,0,5.91-2.544c2.142-1.074,4.234-2.243,6.359-3.347a.57.57,0,0,0,.2-.763c-.521-1.116-1.05-2.228-1.613-3.323a20.636,20.636,0,0,0-1.572-2.715.573.573,0,0,0-.631-.257c-1.863.7-3.648,1.609-5.489,2.37-1.768.731-3.537,1.477-5.348,2.1-.676.232-.385,1.311.3,1.077Z" transform="translate(-69.705 -330.156)" fill="#211715"/><path d="M82.225,401.948a41.353,41.353,0,0,1-5.325-1.174c-1.624-.417-3.244-.85-4.853-1.318-.926-.27-1.858-.539-2.757-.889l.39.687a9.832,9.832,0,0,1,.366-1.31c.236-.751.482-1.5.722-2.248.57-1.774,1.137-3.557,1.551-5.375.273-1.194.455-2.414.616-3.627a.562.562,0,0,0-.559-.559.573.573,0,0,0-.559.559,38.71,38.71,0,0,1-1.214,5.752c-.483,1.664-1.033,3.307-1.558,4.958a11.471,11.471,0,0,0-.443,1.553.58.58,0,0,0,.39.687,52.076,52.076,0,0,0,5.356,1.614c1.451.391,2.9.781,4.36,1.155a27.025,27.025,0,0,0,3.517.652.561.561,0,0,0,.559-.558.572.572,0,0,0-.559-.559Z" transform="translate(-68.592 -332.94)" fill="#211715"/><path d="M95.17,324.178a9.3,9.3,0,0,0-4.59-7.445,12.882,12.882,0,0,0-8.906-1.135,7.9,7.9,0,0,0-3.6,1.793,5.928,5.928,0,0,0-1.343,1.923,1.863,1.863,0,0,1-.374.622,7.01,7.01,0,0,1-.824.784c-2.617,2.129-2.987,5.84-2.335,8.954a12.514,12.514,0,0,0,2.441,4.86,8.552,8.552,0,0,1,2.034,5.05.559.559,0,0,0,1.117,0,8.631,8.631,0,0,0-1.414-4.478,40.439,40.439,0,0,1-2.578-4.012,10.084,10.084,0,0,1-.75-4.362,7.053,7.053,0,0,1,1.348-4.294,16.675,16.675,0,0,1,1.4-1.34,3.829,3.829,0,0,0,1.082-1.559,4.965,4.965,0,0,1,1.466-1.721,6.7,6.7,0,0,1,1.715-.9,11.7,11.7,0,0,1,7.6.163,8.083,8.083,0,0,1,5.4,7.1c.053.712,1.17.718,1.116,0Z" transform="translate(-69.671 -315.275)" fill="#211715"/></g><path d="M158.777,386.3c2.243,2.49,4.488,4.979,6.762,7.442q.306.332.614.663a4.739,4.739,0,0,1,.541.579c.026.04.027-.013.024.137,0,.116,0,.232,0,.348v.986c0,.224.1,1.149-.055,1.228a1.152,1.152,0,0,1-.373,0H83.669c-.065,0-.345.041-.39,0-.066-.062-.005-.538-.005-.645q0-.574,0-1.149a3.569,3.569,0,0,1,0-.89c-.008.024.088-.089.12-.124l.3-.325q.7-.749,1.4-1.5,1.69-1.816,3.371-3.641c.486-.528-.3-1.32-.79-.79q-1.769,1.92-3.547,3.83-.7.749-1.4,1.5a2.121,2.121,0,0,0-.512.658,2.528,2.528,0,0,0-.068.878c0,.73-.041,1.471,0,2.2a1.148,1.148,0,0,0,1.179,1.12c.3.01.609,0,.912,0H165.79c.284,0,.569.008.853,0a1.142,1.142,0,0,0,1.18-1.007,16.662,16.662,0,0,0,.012-1.908,2.373,2.373,0,0,0-.264-1.6c-.378-.448-.806-.863-1.2-1.293q-1.576-1.706-3.135-3.428-1.837-2.023-3.665-4.055c-.482-.534-1.27.257-.79.79Z" transform="translate(-5.274 -19.786)" fill="#211715"/><rect width="120" height="100" transform="translate(59.338 295.968)" fill="none"/></g></svg>