<svg xmlns="http://www.w3.org/2000/svg" width="120" height="100" viewBox="0 0 120 100"><g transform="translate(12.645 4.716)"><path d="M328.114,122.683a19.242,19.242,0,0,1,14.293,1.216,18.373,18.373,0,0,1,3.5,2.3c.561.47,1.374-.335.809-.809a20.411,20.411,0,0,0-14.556-4.638,19.636,19.636,0,0,0-4.354.831c-.7.219-.4,1.324.3,1.1Z" transform="translate(-286.056 -118.163)" fill="#211715"/><path d="M347.214,114.6a28.428,28.428,0,0,0,.964,5.03.572.572,0,0,0,1.1-.3,26.741,26.741,0,0,1-.923-4.726.588.588,0,0,0-.572-.572.576.576,0,0,0-.572.572Z" transform="translate(-300.193 -113.407)" fill="#211715"/><path d="M372.382,118.434c-.5,1.464-1,2.922-1.568,4.361a.576.576,0,0,0,.4.7.586.586,0,0,0,.7-.4c.564-1.439,1.071-2.9,1.568-4.362a.572.572,0,1,0-1.1-.3Z" transform="translate(-317.024 -116.252)" fill="#211715"/><g transform="translate(57.214 12.237)"><path d="M406.7,201.91c.081-.61.077-1.2.132-1.8a10.988,10.988,0,0,0-.545-3.376l-.312-.73a7.636,7.636,0,0,1-4.06-.86,3.186,3.186,0,0,1-1.524-1.833,13.052,13.052,0,0,1-.142-4.734l-.116-.037c-.519-.166-.785-.511-.7-.815a2.644,2.644,0,0,1,.467-.706,6.435,6.435,0,0,0,.807-1.026c.425-.8.444-2.737.6-3.689a12.837,12.837,0,0,1,.6-2.62l.99-.78a11.054,11.054,0,0,0,2.409,1.564c.953.679,1.967,1.4,1.967,1.4,2.35,1.682,4.028,3.919,3.738,6.795a4.716,4.716,0,0,0,1.32-1.2l.734-.113a1.663,1.663,0,0,1,1.374.384,1.341,1.341,0,0,1,.178,1.585,4.343,4.343,0,0,1-1.4,1.689,4.113,4.113,0,0,1,1.6,2.514,15.332,15.332,0,0,1,.326,2.4,2.436,2.436,0,0,0,.132.7,1.976,1.976,0,0,0,.621.762c.083.067.168.132.252.193a7.258,7.258,0,0,0,.148,2.594,5.565,5.565,0,0,0,1.148,2.223s-.762,3.1-5.592,3.1S406.7,201.91,406.7,201.91Z" transform="translate(-394.685 -171.965)" fill="#fff"/><path d="M428.606,174.362a11.068,11.068,0,0,1,.829-1.272,10.18,10.18,0,0,0,1.317-6.262,10.929,10.929,0,0,0-1.073-3.659,11.82,11.82,0,0,0-9.762-6.5s-1.275-.029-1.895.008a13.808,13.808,0,0,0-2.2.293,9.567,9.567,0,0,0-6,4.666,11.976,11.976,0,0,0-.658,1.373c.788-.434.373-.5.351-.376-.011.064.041.12.089.164a10.9,10.9,0,0,0,2.662,1.785l1.969,1.409c2.35,1.682,4.028,3.919,3.738,6.795a4.71,4.71,0,0,0,1.32-1.2l.734-.112a1.663,1.663,0,0,1,1.374.384,1.341,1.341,0,0,1,.178,1.585,4.343,4.343,0,0,1-1.4,1.689,4.113,4.113,0,0,1,1.6,2.513,15.332,15.332,0,0,1,.326,2.4c.194.491,3.333.261,3.333.261a1.823,1.823,0,0,0,1.643-.452,1.963,1.963,0,0,0,.253-1.059,10.464,10.464,0,0,1,1.3-4.4" transform="translate(-401.641 -156.081)" fill="#7a7473"/><path d="M395.776,258.481a8.727,8.727,0,0,0,5.272,1.7,20.117,20.117,0,0,0,5.548-.866l.434-.039c1.458-.132,2.571,1.28,3.15,2.624,1.512,3.513,1.421,7.49,1.1,11.3-.439,5.2-.589,10.007-1.784,15.091a6.9,6.9,0,0,1-1.254,3,4.664,4.664,0,0,1-1.352,1.007c-.728-.692.744,4.97.416,5.463a1.054,1.054,0,0,1-.55.38c-.587.2-14.87-1.89-15.855-2.078-2.707-.517-2.891-1.47-5.091-2.256-.427-.152-.985-.5-.975-.915.02-.894.986-2.723,1.23-3.536.936-2.735,2.188-4.838,2.648-7.695a7.4,7.4,0,0,0-.372-3.829,11.4,11.4,0,0,1-.366-5.957,11.625,11.625,0,0,1,1.161-2.692l3.825-7.144a9.036,9.036,0,0,1,2.625-3.429" transform="translate(-384.268 -228.781)" fill="#f4b467"/><path d="M416.553,320.856a11.563,11.563,0,0,1-.954-1.239.777.777,0,0,1-.123-.441,1.052,1.052,0,0,1,.253-.43c.975-1.4.2-1.395.819-3.006a3.346,3.346,0,0,0,.179-.892.643.643,0,0,0-.3-.578.861.861,0,0,0-.766-.013,7.489,7.489,0,0,0-1.1.943.8.8,0,0,1-.858.1l-.543-.088c-.221-.49-.416-1-.56-1.3a.712.712,0,0,0-.826-.466,1.094,1.094,0,0,0-.466.381,2.378,2.378,0,0,0-.038,1.925l.207.85c1.142,1.977-1.442-2.77-2.556-4.556a.651.651,0,0,0-.907-.1c-.572.413-.385.943-.254,1.444a1.033,1.033,0,0,0-.487-.533.631.631,0,0,0-.72.286,1.369,1.369,0,0,0-.1.636,17.237,17.237,0,0,0,1.792,5.539,7.035,7.035,0,0,0-2.536-2.17.4.4,0,0,0-.219-.061c-.159.018-.237.2-.259.361a3.337,3.337,0,0,0,1.329,2.578,6.368,6.368,0,0,0,1.385,1.152c.812.448,1.779.523,2.629.9a8.09,8.09,0,0,1,2.075,1.5" transform="translate(-398.822 -266.855)" fill="#fff"/><path d="M398.875,195.057a2.2,2.2,0,0,1-.275-.156c-.143-.072.081.023-.029.061,0,0,.118-.19.154-.239.1-.134.2-.266.305-.392a4.238,4.238,0,0,0,.975-1.5,23,23,0,0,0,.444-3.307.591.591,0,0,0-.4-.7.576.576,0,0,0-.7.4c-.1.652-.137,1.311-.207,1.967a4.772,4.772,0,0,1-.359,1.635c-.328.6-.939,1-1.229,1.631-.376.814.3,1.454,1.02,1.707.7.245,1-.86.3-1.1Z" transform="translate(-393.271 -179.033)" fill="#211715"/><path d="M399.9,211.152a12.964,12.964,0,0,0-.031,4.355,4.151,4.151,0,0,0,1.147,2.27,5.644,5.644,0,0,0,2.374,1.216,6.593,6.593,0,0,0,3.161.251c.72-.15.416-1.253-.3-1.1a5.806,5.806,0,0,1-2.983-.39,3.154,3.154,0,0,1-2.058-1.707,6.213,6.213,0,0,1-.334-2.467q0-.662.046-1.324c.012-.166.025-.332.043-.5a2.047,2.047,0,0,1,.042-.3c.132-.72-.97-1.029-1.1-.3Z" transform="translate(-394.882 -194.694)" fill="#211715"/><path d="M421.426,239.967a8.312,8.312,0,0,1,.481,2.243,12.186,12.186,0,0,1-.088,2.78.575.575,0,0,0,.572.572.587.587,0,0,0,.572-.572,12.192,12.192,0,0,0,.081-2.844,9.189,9.189,0,0,0-.515-2.484.591.591,0,0,0-.7-.4.576.576,0,0,0-.4.7Z" transform="translate(-410.372 -215.045)" fill="#211715"/><path d="M440.717,207.543a1.244,1.244,0,0,1,.819.11.693.693,0,0,1,.245.212.334.334,0,0,1,.073.151c.007.023.024.181.018.08a1.25,1.25,0,0,1-.006.229c.014-.11-.014.046-.019.068a3.144,3.144,0,0,1-.13.395c.034-.089.021-.044-.01.017s-.055.108-.085.16c-.057.1-.12.2-.186.293-.013.019-.109.146-.083.114s-.08.1-.1.114q-.133.155-.279.3a3.786,3.786,0,0,1-.658.534,3.85,3.85,0,0,1-.728.374,2.762,2.762,0,0,1-.879.172.572.572,0,0,0,0,1.144,4.7,4.7,0,0,0,3.258-1.606c.709-.777,1.419-2.017.833-3.058a2.1,2.1,0,0,0-2.086-.946.591.591,0,0,0-.572.572c0,.277.263.613.572.572Z" transform="translate(-422.328 -191.581)" fill="#211715"/><path d="M457.535,230.323a7.12,7.12,0,0,0-1.785,4.422,9.357,9.357,0,0,0,.249,2.331,6.617,6.617,0,0,0,1.175,2.189c.4.612,1.4.039.988-.577a6.361,6.361,0,0,1-1.034-1.8,7.41,7.41,0,0,1-.237-2.027,5.871,5.871,0,0,1,1.454-3.724c.483-.552-.323-1.364-.809-.809Z" transform="translate(-434.897 -208.544)" fill="#211715"/><path d="M405.159,164.981a11.176,11.176,0,0,1,3.554-7.043,8.422,8.422,0,0,1,3.2-1.759,13.418,13.418,0,0,1,3.854-.386,11.181,11.181,0,0,1,10.458,8.177,10,10,0,0,1,.067,4.809,8.757,8.757,0,0,1-.678,1.965c-.336.669-.847,1.225-1.187,1.891s.653,1.234.988.577c.325-.638.813-1.171,1.143-1.806a9.6,9.6,0,0,0,.736-1.923,11.373,11.373,0,0,0,.276-4.628,11.914,11.914,0,0,0-4.193-7.333,12.131,12.131,0,0,0-7.178-2.867,17.8,17.8,0,0,0-3.674.213,9.253,9.253,0,0,0-3.877,1.663,12.181,12.181,0,0,0-4.639,8.449.575.575,0,0,0,.572.572.586.586,0,0,0,.572-.572Z" transform="translate(-397.961 -154.64)" fill="#211715"/><path d="M403.162,218.3q.493.027.984.079c.156.016.313.035.469.055s-.128-.018.018,0l.128.018.255.038-.4-.7a3.043,3.043,0,0,1-.148.557l-.025.063c-.028.072.007-.023.018-.043-.025.044-.042.093-.065.138q-.064.129-.141.252c-.048.077-.106.147-.154.224.025-.04.072-.091.016-.022l-.043.052c-.029.034-.059.068-.091.1-.065.07-.134.137-.207.2-.038.034-.078.065-.117.1-.056.046.1-.068.035-.027l-.069.049a.615.615,0,0,0-.263.342.572.572,0,0,0,.84.646,3.624,3.624,0,0,0,1.516-2.326.608.608,0,0,0-.058-.441.554.554,0,0,0-.342-.263c-.715-.112-1.434-.192-2.157-.233a.576.576,0,0,0-.572.572.585.585,0,0,0,.572.572Z" transform="translate(-396.945 -199.277)" fill="#211715"/><path d="M408.8,197.87a1.248,1.248,0,0,1,.3,0l-.152-.02a1.317,1.317,0,0,1,.321.088l-.137-.057a1.286,1.286,0,0,1,.274.16l-.116-.09a1.306,1.306,0,0,1,.119.106.589.589,0,0,0,.4.168.582.582,0,0,0,.4-.168.575.575,0,0,0,.168-.4.6.6,0,0,0-.168-.4,1.792,1.792,0,0,0-1.126-.521,1.244,1.244,0,0,0-.293,0,.637.637,0,0,0-.4.167.572.572,0,0,0,0,.809.553.553,0,0,0,.4.168Z" transform="translate(-400.974 -184.683)" fill="#211715"/><path d="M447.552,221.58c1.009,1.037,1.139,2.556,1.258,3.924a2.663,2.663,0,0,0,.811,1.948,5.517,5.517,0,0,0,1.866,1.078c.7.245,1-.86.3-1.1a3.7,3.7,0,0,1-1.559-.978,1.333,1.333,0,0,1-.268-.817c-.034-.382-.064-.764-.11-1.145a6.175,6.175,0,0,0-1.494-3.716c-.515-.528-1.323.281-.809.809Z" transform="translate(-428.93 -201.734)" fill="#211715"/><path d="M467.4,216.933a11.051,11.051,0,0,0-1.265,3.7c-.048.328-.086.658-.108.989a1.522,1.522,0,0,1-.125.694c-.217.348-.857.265-1.2.245-.736-.043-.733,1.1,0,1.144a2.723,2.723,0,0,0,1.739-.336,2.211,2.211,0,0,0,.736-1.852,9.881,9.881,0,0,1,1.21-4.011c.355-.646-.632-1.224-.988-.577Z" transform="translate(-440.897 -198.915)" fill="#211715"/><path d="M409.665,175.829a.636.636,0,0,0-.955-.358.679.679,0,0,0-.077,1.055,8.03,8.03,0,0,0,1.313,1.045,11.682,11.682,0,0,0,2.938,1.449.572.572,0,1,0,.3-1.1,10.267,10.267,0,0,1-2.026-.925,10.952,10.952,0,0,1-.948-.629c-.125-.092-.241-.184-.372-.294-.08-.066-.158-.134-.236-.2-.034-.03-.069-.061-.1-.092s-.055-.1-.022-.025l.078.289,0-.046-.078.289.014-.028-.205.205-.2.054-.289-.078.022.014-.263-.342.008.026a.572.572,0,1,0,1.1-.3Z" transform="translate(-401.107 -169.441)" fill="#211715"/><path d="M425.18,188.341a9.525,9.525,0,0,1,2.654,2.745,5.769,5.769,0,0,1,.8,3.556.576.576,0,0,0,.861.494,5.112,5.112,0,0,0,2.3-3.075.572.572,0,0,0-1.1-.3,3.939,3.939,0,0,1-1.771,2.391l.861.494a6.817,6.817,0,0,0-.958-4.133,10.9,10.9,0,0,0-3.064-3.155.576.576,0,0,0-.783.205.585.585,0,0,0,.205.783Z" transform="translate(-412.872 -177.938)" fill="#211715"/><path d="M443.254,188.632a5.543,5.543,0,0,1,.547,1.726c.009.059.03.27.037.388q.015.237.01.475a4.977,4.977,0,0,1-.086.859.587.587,0,0,0,.4.7.577.577,0,0,0,.7-.4,6.71,6.71,0,0,0-.624-4.329.572.572,0,0,0-.988.577Z" transform="translate(-425.928 -178.298)" fill="#211715"/><path d="M460.382,203.3a5.062,5.062,0,0,1-1.293,4.116c-.5.539.306,1.349.809.809A6.273,6.273,0,0,0,461.486,203a.576.576,0,0,0-.7-.4.586.586,0,0,0-.4.7Z" transform="translate(-437.172 -188.867)" fill="#211715"/><path d="M405.06,173.511l-3.7,2.919a.576.576,0,0,0,0,.809.586.586,0,0,0,.809,0l3.7-2.919a.576.576,0,0,0,0-.809.587.587,0,0,0-.809,0Z" transform="translate(-395.949 -167.998)" fill="#211715"/><path d="M421.261,257.475c3.308,2.564,7.6,1.993,11.38.975a.573.573,0,0,0-.3-1.1c-3.3.89-7.332,1.594-10.267-.681a.591.591,0,0,0-.809,0,.575.575,0,0,0,0,.809Z" transform="translate(-410.157 -227.37)" fill="#211715"/><path d="M443.574,278.19a3.235,3.235,0,0,1,.106-.4c.021-.062.053-.125.069-.188l-.029.069c.009-.022.019-.045.029-.067s.025-.055.039-.082a3.318,3.318,0,0,1,.208-.363c.033-.051.069-.1.1-.15.069-.1-.071.086,0,0,.023-.028.046-.057.07-.084a3.389,3.389,0,0,1,.278-.288q.074-.068.151-.131c.1-.082-.044.031,0,0l.074-.053a3.291,3.291,0,0,1,.34-.21c.064-.034.13-.065.2-.1.1-.047-.116.042,0,0l.1-.038a.572.572,0,1,0-.3-1.1,3.93,3.93,0,0,0-2.531,2.882.572.572,0,1,0,1.1.3Z" transform="translate(-425.411 -240.559)" fill="#211715"/><path d="M384.1,364.9c-.224.72-.573,1.4-.844,2.1-.262.679-.652,1.6-.174,2.261.516.716,1.5.872,2.24,1.273.6.324,1.149.728,1.757,1.034a17.606,17.606,0,0,0,5.383,1.219q3.741.55,7.488,1.051c1.086.144,2.173.285,3.261.409a17.221,17.221,0,0,0,1.939.174,1.457,1.457,0,0,0,1.209-.639,2,2,0,0,0,.1-1.31c-.157-1.264-.471-2.6-.59-3.8a2.894,2.894,0,0,1-.017-.575.576.576,0,0,0-.572-.572.585.585,0,0,0-.572.572,5.914,5.914,0,0,0,.131,1.442c.1.655.218,1.306.327,1.959a12.036,12.036,0,0,1,.2,1.507c0,.083,0,.166,0,.249,0,.118.04-.127,0-.032-.028.077.072-.062.028-.058a2.141,2.141,0,0,0-.222.121c0-.007.182,0,.064-.011-.527-.064-1.07-.067-1.6-.124-.976-.106-1.95-.23-2.924-.356-2.343-.3-4.705-.638-7.062-.981-1.461-.212-2.956-.362-4.4-.688a7.466,7.466,0,0,1-2.314-.95,13.467,13.467,0,0,0-2.084-1.11c-.251-.1-.819-.233-.863-.543a2.978,2.978,0,0,1,.293-1.038c.284-.768.67-1.5.913-2.284.219-.7-.885-1.006-1.1-.3Z" transform="translate(-382.855 -304.476)" fill="#211715"/><path d="M386.887,383.238q.5,4.836.532,9.7a.572.572,0,0,0,1.144,0q-.032-4.862-.532-9.7a.588.588,0,0,0-.572-.572.576.576,0,0,0-.572.572Z" transform="translate(-385.732 -317.447)" fill="#211715"/><path d="M453.966,397.759a12.133,12.133,0,0,0-.422,2.951l-.293,3.108a.576.576,0,0,0,.572.572.584.584,0,0,0,.572-.572l.282-2.99a11.341,11.341,0,0,1,.392-2.764.578.578,0,0,0-.4-.7.584.584,0,0,0-.7.4Z" transform="translate(-433.116 -327.923)" fill="#211715"/><path d="M441.146,302.043l.116,4.447a.572.572,0,0,0,1.144,0l-.116-4.447a.572.572,0,0,0-1.144,0Z" transform="translate(-424.474 -259.489)" fill="#211715"/><path d="M443.646,260.372c1.139-.076,1.921.913,2.408,1.825a12.707,12.707,0,0,1,1.188,3.836,34.5,34.5,0,0,1,.015,8.517c-.236,2.96-.406,5.928-.773,8.876-.184,1.486-.427,2.966-.742,4.43a7.658,7.658,0,0,1-1.345,3.621,5.792,5.792,0,0,1-3.209,1.548,7.72,7.72,0,0,1-4.216-.6.591.591,0,0,0-.783.205.576.576,0,0,0,.205.783,8.383,8.383,0,0,0,7.83-.339,5.241,5.241,0,0,0,2.205-3.188,37.4,37.4,0,0,0,.95-4.655c.484-3.178.694-6.385.936-9.588a43.525,43.525,0,0,0,.116-9.35,13.977,13.977,0,0,0-1.415-4.72c-.675-1.241-1.847-2.447-3.371-2.345-.731.049-.736,1.193,0,1.144Z" transform="translate(-420.883 -229.31)" fill="#211715"/><path d="M388.223,288.34c.668-1.933,1.6-3.771,2.189-5.73a12.253,12.253,0,0,0,.58-3.146,9.76,9.76,0,0,0-.531-3.082,9.846,9.846,0,0,1,.009-6.54c.429-1.027,1.012-2,1.538-2.979l1.678-3.134c.595-1.111,1.172-2.233,1.791-3.33a7.09,7.09,0,0,1,2-2.463c.6-.416.03-1.408-.577-.988-1.75,1.211-2.629,3.258-3.6,5.076-1.128,2.107-2.287,4.2-3.383,6.326a9.643,9.643,0,0,0-1.061,3.132,11.364,11.364,0,0,0,.1,3.5c.191,1.107.617,2.153.81,3.257a7.768,7.768,0,0,1-.2,3.116,70.42,70.42,0,0,1-2.448,6.686c-.241.7.864,1,1.1.3Z" transform="translate(-385.876 -227.615)" fill="#211715"/><path d="M436.781,324.944a6.43,6.43,0,0,1-.864-1.124q-.027-.131-.052-.047a1.387,1.387,0,0,1,.122-.164q.129-.172.241-.356a3.752,3.752,0,0,0,.289-.585c.251-.641.1-1.333.3-1.969a4.579,4.579,0,0,0,.309-1.359,1.208,1.208,0,0,0-.97-1.211,1.6,1.6,0,0,0-1.42.472c-.234.189-.451.394-.668.6-.14.134-.192.1-.384.033-.7-.242-1,.863-.3,1.1a1.374,1.374,0,0,0,1.415-.243c.227-.205.435-.426.672-.621a.949.949,0,0,1,.352-.239.247.247,0,0,1,.163.033c-.045-.036,0,.072,0,.138a2.007,2.007,0,0,1-.11.535,6.613,6.613,0,0,0-.325,1.326c-.013.138-.013.275-.015.413,0,.07,0,.14,0,.211,0,.023-.026.231-.006.113a2.384,2.384,0,0,1-.493.992,1.275,1.275,0,0,0,.035,1.613c.275.4.614.758.913,1.143a.575.575,0,0,0,.809,0,.587.587,0,0,0,0-.809Z" transform="translate(-418.646 -271.347)" fill="#211715"/><path d="M427.444,318.511c-.017-.02-.064-.082.008.015-.014-.019-.027-.037-.04-.056-.032-.047-.064-.094-.094-.142-.071-.113-.135-.23-.2-.349-.129-.249-.243-.5-.353-.761l-.045-.106c0,.011.028.067,0,.007l-.074-.177c-.061-.146-.122-.293-.185-.439a2.04,2.04,0,0,0-.42-.694,1.254,1.254,0,0,0-.862-.366,1.279,1.279,0,0,0-.871.383,2.148,2.148,0,0,0-.5,2c.13.8.373,1.6.566,2.39a.572.572,0,0,0,1.1-.3c-.151-.619-.3-1.237-.452-1.855-.032-.133-.064-.267-.09-.4a1.736,1.736,0,0,1-.042-.345c0-.065,0-.13,0-.194,0-.031,0-.064.008-.1,0,.016-.009.057.006,0a.9.9,0,0,1,.13-.31c-.049.087,0,0,.037-.033.018-.019.122-.1.053-.054.053-.038.126-.047.034-.031.058-.011.009-.023,0,0-.027.037-.045-.013.019,0s-.112-.027-.033-.007a.423.423,0,0,0,.061.016l-.027-.013c-.035-.017-.037-.017-.008,0a.408.408,0,0,1,.06.034c-.08-.047.006.008.037.041-.051-.056.045.076.06.106.039.076.073.155.107.234l.055.128-.01-.023.04.1c.1.244.2.489.31.732a5.564,5.564,0,0,0,.8,1.391.577.577,0,0,0,.809,0,.584.584,0,0,0,0-.809Z" transform="translate(-412.065 -269.452)" fill="#211715"/><path d="M416.467,314.66q-.807-1.483-1.652-2.945c-.259-.449-.514-.9-.8-1.34a1.236,1.236,0,0,0-1.744-.325,1.448,1.448,0,0,0-.638,1.078,2.9,2.9,0,0,0,.15.989.572.572,0,0,0,1.1-.3c-.039-.15-.08-.3-.11-.45-.012-.069-.013-.075,0-.016q0-.055,0-.111c-.011-.12-.013.064.006-.065.021-.064.021-.071,0-.021a.8.8,0,0,1,.061-.1c-.022.028.1-.067.114-.076.116-.055.021-.008.072-.011s.038,0-.017-.005q.1.031,0-.009a.628.628,0,0,1,.072.042c-.065-.052-.076-.059-.034-.021s.028.027-.041-.057l.049.078q.093.15.183.3.226.374.445.753.921,1.582,1.8,3.192c.352.647,1.34.07.988-.577Z" transform="translate(-403.401 -265.44)" fill="#211715"/><path d="M409.922,314.19a1.608,1.608,0,0,0-.761-.768,1.129,1.129,0,0,0-1.128.185c-.642.5-.491,1.369-.382,2.073a19.009,19.009,0,0,0,1.625,4.68.576.576,0,0,0,.783.205.587.587,0,0,0,.205-.783,23.281,23.281,0,0,1-1.282-3.34,7.093,7.093,0,0,1-.289-1.636,1.018,1.018,0,0,1,.012-.233c.021-.1,0-.022.041-.079.015-.022-.037-.051.008,0a1.582,1.582,0,0,1,.179.271.572.572,0,0,0,.988-.577Z" transform="translate(-400.489 -267.952)" fill="#211715"/><path d="M406.86,330.2a7.081,7.081,0,0,0-2.4-1.848.848.848,0,0,0-1.184.569,2.222,2.222,0,0,0,.1,1.376,6.639,6.639,0,0,0,1.826,2.344,4.946,4.946,0,0,0,1.241.885,8.747,8.747,0,0,0,1.457.488,5.573,5.573,0,0,1,1.548.613,10.078,10.078,0,0,1,1.367,1.092c.547.49,1.359-.317.809-.809a9.053,9.053,0,0,0-2.079-1.535c-.782-.371-1.646-.472-2.441-.8a5.668,5.668,0,0,1-1.845-1.493,4.478,4.478,0,0,1-.7-.927,1.752,1.752,0,0,1-.176-.469,1.1,1.1,0,0,1-.026-.273l0-.109q.046-.172-.188.115l-.289-.078a6.282,6.282,0,0,1,2.17,1.669c.484.557,1.29-.255.809-.809Z" transform="translate(-397.385 -278.613)" fill="#211715"/><path d="M412.363,316.5c.676,1.655,1.431,3.29,2.1,4.935a.591.591,0,0,0,.7.4.576.576,0,0,0,.4-.7c-.676-1.655-1.431-3.29-2.1-4.934a.591.591,0,0,0-.7-.4.576.576,0,0,0-.4.7Z" transform="translate(-403.902 -269.689)" fill="#211715"/><path d="M423.5,337.038q.527-.353,1.087-.656.275-.148.557-.283.141-.067.283-.131l.152-.067.077-.033c-.073.031-.08.034-.021.009a.63.63,0,0,0,.342-.263.572.572,0,0,0-.205-.783.551.551,0,0,0-.441-.058,13.849,13.849,0,0,0-2.407,1.275.572.572,0,1,0,.577.988Z" transform="translate(-411.257 -283.236)" fill="#211715"/><path d="M432.4,340.817q-3.119,1.93-6.065,4.121a.59.59,0,0,0-.205.783.576.576,0,0,0,.783.205q2.943-2.189,6.065-4.121c.625-.386.051-1.377-.577-.988Z" transform="translate(-413.698 -287.505)" fill="#211715"/></g><path d="M203.706,130.182a32.057,32.057,0,0,1-.382-4.3,12.451,12.451,0,0,1,2.425-7.88,7.3,7.3,0,0,1,1.666-1.727l.883-.6.442-.235a12.954,12.954,0,0,1,5.049-1.518,12.689,12.689,0,0,1,8.436,2.333c2.238,1.74,3.97,4.959,4.628,9.514a17.025,17.025,0,0,1-3.548-3.035,26.177,26.177,0,0,1-2.085-3.207,12.987,12.987,0,0,1-5.483,6.069c-.6.348-.49-1.754-.612-2.7-1.482,2.354-5.945,7.155-6.67,8.1a1.334,1.334,0,0,0-1.192.017,1.285,1.285,0,0,0-.677.879,2.99,2.99,0,0,0,.019.969,3.728,3.728,0,0,0,1.178,2.116,5.467,5.467,0,0,0,1.54,1.044,7.755,7.755,0,0,0,1.137.308,11.987,11.987,0,0,0,2.255,2.166c-.263-1.177.237,3.3-.672,4.206a11.77,11.77,0,0,1-2.946,1.856l-1.2-.015a3.412,3.412,0,0,1-4.877-2.5,8.716,8.716,0,0,1,.241-3.022,26.481,26.481,0,0,0,.443-8.827" transform="translate(-197.214 -113.284)" fill="#ad7b59"/><path d="M214.366,216.512a4.528,4.528,0,0,0,3.643,1.331.585.585,0,0,0,.572-.572.578.578,0,0,0-.572-.572,4.823,4.823,0,0,1-.86-.01c-.09-.008.086.016,0,0l-.128-.022q-.1-.019-.2-.043a4.092,4.092,0,0,1-.419-.123l-.1-.035c-.01,0-.109-.042-.05-.018s-.038-.017-.048-.022l-.092-.043a3.763,3.763,0,0,1-.373-.207q-.084-.053-.165-.111l-.08-.058c.043.033.039.032,0,0a3.974,3.974,0,0,1-.319-.3.577.577,0,0,0-.809,0,.583.583,0,0,0,0,.809Z" transform="translate(-205.227 -185.883)" fill="#211715"/><path d="M201.742,169.508a28.71,28.71,0,0,1-.184,7.53c-.406,2.266-1.249,4.937.755,6.709a4.051,4.051,0,0,0,4.484.608.577.577,0,0,0,.205-.783.585.585,0,0,0-.783-.205,2.86,2.86,0,0,1-3.2-.526,3.587,3.587,0,0,1-.8-3.237c.1-.834.346-1.648.485-2.477a24.754,24.754,0,0,0,.309-2.891,34.6,34.6,0,0,0-.121-4.728.587.587,0,0,0-.572-.572.576.576,0,0,0-.572.572Z" transform="translate(-195.822 -152.61)" fill="#211715"/><path d="M224.374,205.789a11.77,11.77,0,0,0,2.946-1.856c.546-.546.583-2.382.583-3.5l-.042-.8a12.031,12.031,0,0,0,1.458.97,10.091,10.091,0,0,0,4.634,1.147,7.47,7.47,0,0,0,3.283-.632c.062.77.108,1.551.171,2.193a1.458,1.458,0,0,0,.306.778,13.858,13.858,0,0,0,3.415,1.7s-1.9,4.856-8.507,4.856S224.374,205.789,224.374,205.789Z" transform="translate(-212.488 -174.524)" fill="#fff"/><path d="M219.186,150.413c.072.016.141.029.206.041a12.715,12.715,0,0,0,3.583,3.037,10.091,10.091,0,0,0,4.634,1.147A8.143,8.143,0,0,0,235,150.12a11.752,11.752,0,0,0,1.066-6.573,28.968,28.968,0,0,0-.284-3.659,16.958,16.958,0,0,1-3.547-3.032,26.213,26.213,0,0,1-2.085-3.207,12.987,12.987,0,0,1-5.483,6.069c-.6.348-.49-1.754-.612-2.7-1.481,2.354-5.943,7.153-6.669,8.1a1.336,1.336,0,0,0-1.192.017,1.285,1.285,0,0,0-.677.879,2.99,2.99,0,0,0,.019.969,3.728,3.728,0,0,0,1.178,2.116,5.467,5.467,0,0,0,1.54,1.044A8.312,8.312,0,0,0,219.186,150.413Z" transform="translate(-206.143 -127.416)" fill="#fff"/><path d="M201.582,218.483l.583-.351a11.72,11.72,0,0,0,3.134,1.794,13.2,13.2,0,0,0,3.622.925,10.742,10.742,0,0,0,3.729-.215A5.729,5.729,0,0,0,216.3,218.4a28.861,28.861,0,0,1,3.381,1.582,7.616,7.616,0,0,1,2.39,1.9,8.311,8.311,0,0,1,.985,1.854A54.172,54.172,0,0,1,226,233.365l1.04-1.823c.831-1.453,2.839-5.289,3.054-5.378.3-.123,4.713,2.694,6.773,4.049a94.808,94.808,0,0,1-5.8,10.379c-1.149,1.659-2.77,3.277-4.785,3.384-1.579.085-3.016-.836-4.327-1.72l-1.074-.491c-.269,1.716-.379,3.218-.621,5.323a130.529,130.529,0,0,1-18.09.9l-11.056-.532.4-10.213c.578-4.276.981-7.072,1.676-11.323a5.235,5.235,0,0,1,2.207-3.72C197.642,220.739,199.379,219.8,201.582,218.483Z" transform="translate(-188.745 -187.735)" fill="#f4b3b3"/><path d="M275.451,188.434c-.454-1.195-1.083-2.352-.858-3.583l-.417-.119a10.164,10.164,0,0,1-.72,1.861,8.435,8.435,0,0,1-4.11,3.884c.062.769.108,1.551.171,2.193a1.458,1.458,0,0,0,.306.778,7.987,7.987,0,0,0,2.294,1.228c2.749-1.117,3.895-3.328,3.734-4.753A6.169,6.169,0,0,0,275.451,188.434Z" transform="translate(-244.597 -163.888)" fill="#ad7b59"/><path d="M223.274,206.9c.52-.328,1.093-.553,1.628-.853a4.616,4.616,0,0,0,1.649-1.371,4.1,4.1,0,0,0,.457-1.737,17.8,17.8,0,0,0,.079-1.893.572.572,0,0,0-1.144,0c0,.581-.01,1.163-.063,1.743a5.475,5.475,0,0,1-.113.74c-.028.124-.063.243-.1.364-.009.027-.019.055-.03.082.018-.042.019-.046,0-.01s-.049.09-.073.135-.06.075-.007.015c-.055.062-.118.119-.178.176-.123.116-.25.229-.383.333a5.656,5.656,0,0,1-.8.507c-.5.267-1.02.481-1.5.783-.621.392-.047,1.382.577.988Z" transform="translate(-211.1 -175.144)" fill="#211715"/><path d="M267.4,204.13c.052.675.081,1.355.16,2.028a1.944,1.944,0,0,0,.8,1.412,7.245,7.245,0,0,0,1.4.75c.6.264,1.2.5,1.8.76a.591.591,0,0,0,.783-.205.577.577,0,0,0-.205-.783A19.2,19.2,0,0,1,269.1,206.7l-.107-.073c-.113-.075.05.054-.033-.026a.692.692,0,0,1-.143-.151.551.551,0,0,1-.093-.241c-.011-.043-.016-.091-.029-.134-.034-.119.006.112.005.038,0-.313-.055-.634-.078-.947-.025-.345-.05-.69-.076-1.035a.586.586,0,0,0-.572-.572.576.576,0,0,0-.572.572Z" transform="translate(-243.206 -177.33)" fill="#211715"/><path d="M265.011,132.868c.484.8.948,1.62,1.478,2.394a14.438,14.438,0,0,0,5.487,4.489c.7.227,1-.878.3-1.1a9.988,9.988,0,0,1-3.7-2.694,9.542,9.542,0,0,1-1.207-1.43c-.484-.727-.919-1.485-1.369-2.233a.572.572,0,0,0-.988.577Z" transform="translate(-241.441 -126.251)" fill="#211715"/><path d="M233.362,131.972a13.038,13.038,0,0,1-3.637,4.755,11.912,11.912,0,0,1-1.246.869c-.1.059-.2.114-.292.174q-.181.1-.036.031a.4.4,0,0,1,.378.094c.059.047.039.013.041.063a1.537,1.537,0,0,0-.062-.225c-.147-.676-.087-1.417-.171-2.114a.577.577,0,0,0-1.066-.289,37.607,37.607,0,0,1-3.358,4.264c-1.024,1.191-2.094,2.346-3.092,3.56-.464.565.341,1.378.809.809,1.736-2.112,3.628-4.089,5.314-6.243.46-.588.915-1.182,1.315-1.813l-1.066-.289c.082.686.065,1.38.156,2.066.077.581.345,1.443,1.124,1.213a4.559,4.559,0,0,0,1.149-.681,14.36,14.36,0,0,0,1.166-.891,13.09,13.09,0,0,0,1.9-2.01,14.417,14.417,0,0,0,1.662-2.768.589.589,0,0,0-.205-.783.577.577,0,0,0-.783.205Z" transform="translate(-209.852 -126.019)" fill="#211715"/><path d="M221.973,114.5a12.3,12.3,0,0,1,10.824-.4,9.188,9.188,0,0,1,3.257,2.363,12.279,12.279,0,0,1,2.129,3.739,22.168,22.168,0,0,1,1.256,6.148c.053.73,1.2.736,1.144,0-.262-3.635-1.129-7.434-3.433-10.348a12.039,12.039,0,0,0-9.372-4.139,13.9,13.9,0,0,0-6.382,1.652c-.652.344-.074,1.331.577.988Z" transform="translate(-210.158 -111.855)" fill="#211715"/><path d="M203.717,134.566a22.509,22.509,0,0,1-.3-2.85,20.356,20.356,0,0,1-.038-2.475,11.859,11.859,0,0,1,1.788-5.694c.285-.434.627-.824.952-1.227a5.125,5.125,0,0,1,1.047-1.02c.6-.418.029-1.41-.577-.988a9.63,9.63,0,0,0-2.058,2.163,10.542,10.542,0,0,0-1.484,2.815,15.339,15.339,0,0,0-.793,6.092,26.126,26.126,0,0,0,.363,3.488c.136.723,1.238.417,1.1-.3Z" transform="translate(-196.673 -117.82)" fill="#211715"/><path d="M264.8,171.433q.082.219.156.442a3.206,3.206,0,0,1,.139.478l-.021-.152a.386.386,0,0,1,0,.1l.02-.152a.249.249,0,0,1-.012.043l.058-.136a.161.161,0,0,1-.014.026l.089-.116a.189.189,0,0,1-.032.032l.116-.09a.662.662,0,0,1-.106.061l.137-.057a.46.46,0,0,1-.107.029l.152-.02a1.413,1.413,0,0,1-.194-.006.572.572,0,0,0,0,1.144c.055,0,.11.011.166.008a1.039,1.039,0,0,0,.474-.135.744.744,0,0,0,.376-.479,1.03,1.03,0,0,0-.027-.509c-.078-.275-.17-.545-.27-.813a.618.618,0,0,0-.263-.342.585.585,0,0,0-.441-.057.577.577,0,0,0-.342.263.561.561,0,0,0-.058.441Z" transform="translate(-241.215 -153.875)" fill="#211715"/><path d="M246.62,165.172c-.1.508.115,1.629,1.057,1.629,1.231-.134,1.156-1.51.674-2.11A.981.981,0,0,0,246.62,165.172Z" transform="translate(-228.355 -149.322)" fill="#211715"/><path d="M273.8,161.49c-.1.489.041,1.59.793,1.636.986-.071.968-1.412.6-2.02C274.9,160.609,274.086,160.447,273.8,161.49Z" transform="translate(-247.759 -146.742)" fill="#211715"/><path d="M243.906,158.489c.891,3.283.8,7.262-1.468,10a7.786,7.786,0,0,1-3.742,2.521,9.016,9.016,0,0,1-5-.133,10.449,10.449,0,0,1-4.847-3.357c-.475-.564-1.281.249-.809.809a11.834,11.834,0,0,0,4.772,3.459,10.456,10.456,0,0,0,5.586.478,9.26,9.26,0,0,0,6.92-7.387,14.531,14.531,0,0,0-.3-6.7.573.573,0,0,0-1.1.3Z" transform="translate(-215 -144.645)" fill="#211715"/><path d="M281,183.575a5.515,5.515,0,0,0,.5,2.993,6.524,6.524,0,0,1,.748,2.645c-.083,1.571-1.527,2.882-2.867,3.575-.654.338-.076,1.326.577.988a6.061,6.061,0,0,0,3.386-4.14,5.224,5.224,0,0,0-.482-2.733,5.991,5.991,0,0,1-.759-3.024.589.589,0,0,0-.4-.7.577.577,0,0,0-.7.4Z" transform="translate(-251.559 -162.764)" fill="#221714"/><path d="M216.035,171.412a1.93,1.93,0,0,0-2.224.684,2.514,2.514,0,0,0-.228,2.081,4.48,4.48,0,0,0,.854,1.739,6.106,6.106,0,0,0,1.607,1.361,5.047,5.047,0,0,0,2.125.651.577.577,0,0,0,.572-.572.583.583,0,0,0-.572-.572q-.1-.01-.019,0l-.132-.023c-.072-.014-.144-.03-.216-.047-.176-.041-.35-.089-.522-.142a2.825,2.825,0,0,1-.762-.348,4.631,4.631,0,0,1-1.388-1.279,3.045,3.045,0,0,1-.517-1.645.771.771,0,0,1,.264-.7.823.823,0,0,1,.853-.093.577.577,0,0,0,.7-.4.585.585,0,0,0-.4-.7Z" transform="translate(-204.698 -154.292)" fill="#211715"/><path d="M262.612,184.676c-.929.134-1.844.356-2.769.516a.581.581,0,0,0-.4.7,4.129,4.129,0,0,0,1.081,2.085.572.572,0,0,0,.809-.809c-.069-.066-.131-.135-.193-.207-.076-.088.061.09-.011-.015-.024-.034-.048-.068-.071-.1a3.609,3.609,0,0,1-.26-.471c-.017-.036-.03-.077-.049-.111.072.126.012.026,0-.011q-.048-.124-.089-.25-.066-.2-.112-.414l-.4.7c.925-.16,1.84-.382,2.769-.516a.574.574,0,0,0,.4-.7.59.59,0,0,0-.7-.4Z" transform="translate(-237.518 -163.841)" fill="#211715"/><path d="M332.031,225.3c.644-1.09,1.218-2.764,1.883-4.19.954-2.043,2.914-3.4,4.787-4.654a.721.721,0,0,1,.57-.177.517.517,0,0,1,.272.222,1.5,1.5,0,0,1-.315,1.708c-.454.546-1.079.963-1.312,1.659,2.667.169,4.333-.713,6.758-1.657.554-.216,1.468-.26,1.706.285a.8.8,0,0,1-.23.86,1.94,1.94,0,0,1-.747.407c1.243-.556,1.693-.314,1.866.108a.856.856,0,0,1-.559,1.1c-.355.166-.665.338-1.053.521.325-.09.786.379.777.728a1.136,1.136,0,0,1-.254.6c-1.256,1.038-2.117,1.619-3.529,2.636a7.478,7.478,0,0,1-1.6.829,4.334,4.334,0,0,1-1.241.218,18.7,18.7,0,0,1-2.324.007l-.25.4-.811,1.137" transform="translate(-289.354 -186.4)" fill="#fff"/><path d="M274.155,216.85a28.314,28.314,0,0,1,3.331,1.413,9.508,9.508,0,0,1,2.965,2.023,10.96,10.96,0,0,1,1.695,3.472q.724,1.934,1.293,3.922.646,2.24,1.1,4.528c.144.721,1.247.416,1.1-.3a54.788,54.788,0,0,0-2.329-8.268,14.5,14.5,0,0,0-1.787-3.828,8.965,8.965,0,0,0-3.065-2.328,29.756,29.756,0,0,0-4.007-1.734c-.7-.243-1,.862-.3,1.1Z" transform="translate(-247.751 -186.008)" fill="#211715"/><path d="M303.159,250.471c.954-1.673,1.788-3.425,2.815-5.056.035-.055.072-.11.107-.165.057-.089.067-.054-.009.006.027-.021.062-.046-.024.01-.067.043-.388.12-.3.107-.121.017-.129-.048-.033.01.12.072-.108-.057.046.018l.154.074c.164.082.326.169.486.258.914.507,1.8,1.063,2.689,1.618q1.565.981,3.109,2l-.205-.783c-1.4,2.688-2.726,5.423-4.286,8.025a22.242,22.242,0,0,1-2.392,3.474,5.483,5.483,0,0,1-3.132,1.956c-1.6.235-3.06-.768-4.319-1.616-.612-.412-1.186.578-.577.988a8.609,8.609,0,0,0,4.194,1.8,5.507,5.507,0,0,0,3.844-1.525,15.224,15.224,0,0,0,2.7-3.418c.864-1.356,1.65-2.76,2.4-4.18.867-1.632,1.694-3.284,2.548-4.923a.587.587,0,0,0-.205-.783c-1.9-1.249-3.809-2.51-5.8-3.614-.48-.266-1.253-.816-1.733-.281a4.987,4.987,0,0,0-.546.846c-.258.444-.506.895-.754,1.345-.593,1.079-1.169,2.169-1.778,3.238a.572.572,0,0,0,.988.577Z" transform="translate(-264.365 -206.376)" fill="#211715"/><path d="M291.2,244.844c.416,1.491.784,3,1.09,4.512a18.71,18.71,0,0,1,.492,3.655,21.2,21.2,0,0,1-.378,3.307c-.214,1.331-.533,2.64-.736,3.973-.267,1.746-.412,3.508-.612,5.262a.576.576,0,0,0,.572.572.585.585,0,0,0,.572-.572c.177-1.558.3-3.124.529-4.677.2-1.365.524-2.705.748-4.066a30.067,30.067,0,0,0,.444-3.549,16.107,16.107,0,0,0-.408-3.6c-.323-1.725-.737-3.434-1.209-5.125a.572.572,0,0,0-1.1.3Z" transform="translate(-260.098 -206.302)" fill="#211715"/><path d="M228.4,319.432a131.545,131.545,0,0,0,18.049-.9.59.59,0,0,0,.572-.572.575.575,0,0,0-.572-.572,131.545,131.545,0,0,1-18.049.9.572.572,0,0,0,0,1.144Z" transform="translate(-214.966 -258.601)" fill="#211715"/><path d="M290.486,320.289a41.1,41.1,0,0,1,1.664,5.634,41.854,41.854,0,0,1,.541,7.643c0,.989-.02,1.979.011,2.967.023.734,1.168.738,1.144,0-.065-2.073.015-4.146-.092-6.219a40.865,40.865,0,0,0-.427-4.263,23.156,23.156,0,0,0-.758-3.1c-.3-1-.642-1.984-.981-2.97-.238-.692-1.344-.395-1.1.3Z" transform="translate(-259.667 -260.176)" fill="#211715"/><path d="M212.072,331.466c-.114,4.177-1.388,8.191-2.644,12.14-.224.7.881,1,1.1.3,1.288-4.049,2.568-8.161,2.685-12.444a.572.572,0,0,0-1.144,0Z" transform="translate(-201.796 -268.26)" fill="#211715"/><path d="M207.795,253.917l2.343,9.634c.174.715,1.278.412,1.1-.3l-2.343-9.634c-.174-.715-1.278-.412-1.1.3Z" transform="translate(-200.638 -212.777)" fill="#211715"/><path d="M201.475,216.191c-1.381.835-2.785,1.632-4.172,2.459q-1.078.643-2.135,1.319a6.571,6.571,0,0,0-1.6,1.311,8.064,8.064,0,0,0-1.493,4.071q-.387,2.4-.741,4.8c-.269,1.83-.521,3.663-.769,5.5a.592.592,0,0,0,.4.7.576.576,0,0,0,.7-.4c.421-3.113.861-6.223,1.354-9.326a10.6,10.6,0,0,1,1.13-4.225,4.191,4.191,0,0,1,1.252-1.225q1.019-.666,2.063-1.292c1.52-.917,3.066-1.789,4.585-2.707a.572.572,0,0,0-.577-.988Z" transform="translate(-188.344 -186.288)" fill="#211715"/><path d="M189.822,289.138c-1.377-.127-2.607.623-3.887,1.046a1.9,1.9,0,0,0-.976,1.1,2.41,2.41,0,0,0,.039,1.731,8.773,8.773,0,0,0,.967,1.772.3.3,0,0,0,.039.032l-.014.049a18.445,18.445,0,0,0-.835,5.645,1.448,1.448,0,0,0,.051.391.817.817,0,0,0,.423.488.88.88,0,0,0,1.217-.632c.4-1.407.575-3.185,1.1-3.388q.006,1.1.114,2.191c.049.505.092,1.164.166,1.706.181.563.228,1.2.775,1.435a1.3,1.3,0,0,0,1.627-1.061c.166.623.824,1.232,1.446,1.081a.692.692,0,0,0,.324-.175.893.893,0,0,0,.223-.74c-.1-1.279-.287-2.484-.379-3.766.473.905.8,1.63,1.272,2.354.364.556,1.164,1.521,1.768,1.33.365-.116.451-.341.334-.7a16.76,16.76,0,0,0-.777-1.85l-.566-2.237a5.531,5.531,0,0,1,.2-2.531,3.874,3.874,0,0,0-.051-2.514,3.721,3.721,0,0,0-1.387-1.377,10.949,10.949,0,0,0-3.217-1.391" transform="translate(-184.244 -238.423)" fill="#fff"/><path d="M194.783,322.438a4.753,4.753,0,0,0,.406,1.167,1.488,1.488,0,0,0,1.188.714,1.925,1.925,0,0,0,1.9-1.55h-1.1a2.174,2.174,0,0,0,1.29,1.431,1.341,1.341,0,0,0,1.767-.827,2.486,2.486,0,0,0,.03-.949c-.034-.383-.075-.765-.118-1.147-.083-.735-.171-1.469-.228-2.206a.586.586,0,0,0-.572-.572.576.576,0,0,0-.572.572c.088,1.151.256,2.293.354,3.443.01.12.023.239.026.359,0,.1,0,.157-.02.191a.219.219,0,0,1-.075.072c-.051.032.026.009-.071.013-.021,0-.095-.007-.034,0a.97.97,0,0,1-.673-.687.585.585,0,0,0-.552-.42.574.574,0,0,0-.551.42.7.7,0,0,1-.1.312.781.781,0,0,1-.225.254c.065-.052-.082.051-.082.051s-.162.078-.079.045c-.022.009-.232.059-.131.045a.723.723,0,0,1-.172,0c.1.011-.065-.023-.075-.027.1.039-.131-.081-.067-.044-.02-.011-.011,0-.043-.052a1.078,1.078,0,0,1-.084-.153c.033.071-.033-.1-.04-.118-.023-.07-.043-.141-.062-.212-.039-.145-.076-.291-.119-.435a.573.573,0,0,0-1.1.3Z" transform="translate(-191.342 -259.397)" fill="#211715"/><path d="M211.516,319.239c.227.6.5,1.181.77,1.766.131.287.211.468.319.75.054.142.108.286.152.432.007.023.013.047.019.07.03.1,0,0,0-.023,0,.02,0,.039,0,.059-.009.075.029-.126,0-.027a.516.516,0,0,1,.053-.1c.059-.108-.036.069.027-.023.046-.068-.074.039-.019.012.086-.042-.094.025-.093.023l.04-.007c.052-.006.053-.009,0-.006l-.037,0,.078.01s-.117-.035-.132-.038c-.057-.009.033.012.041.017-.023-.015-.052-.026-.077-.04-.046-.026-.09-.055-.134-.084l-.057-.041c.043.03.045.037,0,0a4.309,4.309,0,0,1-.508-.521c-.023-.028-.114-.144-.046-.055q-.049-.064-.1-.129c-.063-.088-.123-.177-.181-.268a20.638,20.638,0,0,1-.991-1.83.576.576,0,0,0-.783-.205.586.586,0,0,0-.205.783A8.705,8.705,0,0,0,211.8,322.9a1.4,1.4,0,0,0,1.7.185c.7-.5.35-1.322.082-1.965-.308-.741-.69-1.478-.956-2.184a.585.585,0,0,0-.7-.4.579.579,0,0,0-.4.7Z" transform="translate(-201.932 -259.404)" fill="#211715"/><path d="M200.746,288.283a8.547,8.547,0,0,1,2.106.781,6.112,6.112,0,0,1,1.855,1.271,2.647,2.647,0,0,1,.321,2.407,6.793,6.793,0,0,0-.23,2.955c.162.718,1.265.414,1.1-.3a9.042,9.042,0,0,1,.361-3.108,3.318,3.318,0,0,0-.746-2.759,7,7,0,0,0-2.086-1.45,9.719,9.719,0,0,0-2.379-.9c-.719-.146-1.026.956-.3,1.1Z" transform="translate(-195.324 -237.025)" fill="#211715"/><path d="M201.336,315.722a13.745,13.745,0,0,0,.45,4.52.572.572,0,0,0,1.1-.3,12.746,12.746,0,0,1-.409-4.216.572.572,0,0,0-1.144,0Z" transform="translate(-196.017 -257.005)" fill="#211715"/><path d="M193.756,313.516a29.8,29.8,0,0,0,.306,5.032.575.575,0,0,0,.7.4.587.587,0,0,0,.4-.7c-.1-.705-.147-1.426-.2-2.136a24.553,24.553,0,0,1-.063-2.591.572.572,0,0,0-1.144,0Z" transform="translate(-190.62 -255.444)" fill="#211715"/><path d="M184.8,307.7a16.4,16.4,0,0,0-.67,3.025c-.08.583-.143,1.168-.172,1.756a4.49,4.49,0,0,0,.075,1.6,1.414,1.414,0,0,0,2.6.116,7.181,7.181,0,0,0,.456-1.7,10.571,10.571,0,0,1,.386-1.471.577.577,0,0,0-.4-.7.585.585,0,0,0-.7.4,24.74,24.74,0,0,0-.635,2.553c-.053.208-.116.644-.419.613-.34-.034-.239-.62-.237-.838a16.43,16.43,0,0,1,.818-5.046c.237-.7-.868-1-1.1-.3Z" transform="translate(-183.61 -251.402)" fill="#211715"/><path d="M188.395,287.145a8.467,8.467,0,0,0-3.619.917,4.438,4.438,0,0,0-.768.308,2.37,2.37,0,0,0-.675.664,2.823,2.823,0,0,0-.514,1.671,5.409,5.409,0,0,0,.887,2.463,2,2,0,0,0,.917.925,1.445,1.445,0,0,0,1.665-.27,1.9,1.9,0,0,0,.345-1.48c-.027-.259-.069-.516-.118-.772-.02-.1-.041-.209-.061-.313-.009-.047-.018-.094-.026-.141-.005-.032-.029-.219-.011-.066a.589.589,0,0,0-.572-.572.576.576,0,0,0-.572.572c.036.323.107.638.165.958a3.885,3.885,0,0,1,.061.438c.006.079.01.159.01.239,0,.044,0,.088,0,.132,0,.021-.011.1,0,.035,0,.024-.056.222-.028.14a.266.266,0,0,1-.04.072c-.057.068.058-.045-.012.009s.063-.017-.018.008c-.025.008-.026.014-.051.015a.533.533,0,0,1-.222-.023.861.861,0,0,1-.19-.11.456.456,0,0,1-.054-.057c.006.006.057.078.016.021a3.8,3.8,0,0,1-.261-.428c-.164-.3-.311-.606-.453-.916l-.071-.156c-.012-.026-.07-.174-.02-.041a2.077,2.077,0,0,1-.127-.5,1.753,1.753,0,0,1,.279-1.175,1.657,1.657,0,0,1,.968-.6,7.34,7.34,0,0,1,3.176-.823.577.577,0,0,0,.572-.572.583.583,0,0,0-.572-.572Z" transform="translate(-182.818 -237.002)" fill="#211715"/><path d="M195.8,298.386a3.887,3.887,0,0,0-.9.215,5.672,5.672,0,0,0-.845.368.572.572,0,0,0,.577.988,4.055,4.055,0,0,1,.4-.19l-.137.057a4.2,4.2,0,0,1,1.01-.309l-.152.02.046-.006a.621.621,0,0,0,.4-.167.573.573,0,0,0,0-.809.557.557,0,0,0-.4-.168Z" transform="translate(-190.64 -245.035)" fill="#211715"/><path d="M227.851,217.167A13.229,13.229,0,0,0,234,219.91a11.333,11.333,0,0,0,6.512-.642,4.924,4.924,0,0,0,2.407-2,.572.572,0,0,0-.988-.577,4.243,4.243,0,0,1-2.39,1.742,9.811,9.811,0,0,1-3.658.541,12.532,12.532,0,0,1-3.966-.819,11.061,11.061,0,0,1-3.256-1.794c-.558-.474-1.371.331-.809.809Z" transform="translate(-214.835 -186.365)" fill="#211715"/><path d="M337.077,218.487a7.243,7.243,0,0,1,1.047-1.212,2.632,2.632,0,0,0,.708-1.528,1.411,1.411,0,0,0-.709-1.383c-.625-.3-1.222.224-1.71.557a19.45,19.45,0,0,0-2.7,2.125,8.928,8.928,0,0,0-1.935,2.812,37.252,37.252,0,0,1-1.676,3.732.572.572,0,0,0,.988.577c.982-1.69,1.387-3.7,2.535-5.293a10.033,10.033,0,0,1,1.915-1.914c.348-.278.711-.538,1.076-.793q.28-.2.563-.386c.172-.117.446-.378.656-.352l-.289-.078c.4.169-.048.912-.268,1.155a7.767,7.767,0,0,0-1.189,1.4c-.352.647.635,1.225.988.577Z" transform="translate(-287.917 -184.981)" fill="#211715"/><path d="M349.017,223.508a12.239,12.239,0,0,0,4.907-1c.4-.156.792-.318,1.188-.477a4.375,4.375,0,0,1,.967-.331c.115-.017.524-.063.6.072.131.229-.482.449-.6.495l.441,1.046a2.189,2.189,0,0,1,.918-.245c.009,0,.124.014.093.019.034,0-.04-.046.015.012-.08-.086.005,0,.018.033s.028.045.021.08a.338.338,0,0,1-.141.21,7.105,7.105,0,0,1-1.246.63.568.568,0,0,0-.234.714.584.584,0,0,0,.675.331c-.174.027.033.065.05.173.007.043-.1.215-.084.2a3.386,3.386,0,0,1-.537.435q-.237.188-.477.372c-.732.556-1.484,1.083-2.23,1.619a5.172,5.172,0,0,1-2.407,1.065,17.268,17.268,0,0,1-3.205-.01c-.733-.063-.729,1.081,0,1.144a19.266,19.266,0,0,0,2.064.071,8.273,8.273,0,0,0,1.978-.2,9.968,9.968,0,0,0,3.069-1.744c.44-.315.878-.632,1.309-.959q.381-.29.756-.588a2.931,2.931,0,0,0,.617-.554,1.346,1.346,0,0,0,.124-1.452,1.3,1.3,0,0,0-1.33-.678l.441,1.045a4.291,4.291,0,0,0,1.68-1.037,1.339,1.339,0,0,0,.1-1.448c-.549-.987-1.8-.581-2.608-.229-.588.256-.165,1.279.441,1.046a2.2,2.2,0,0,0,1.277-.927,1.258,1.258,0,0,0-.124-1.425,2.176,2.176,0,0,0-2.43-.208c-.99.391-1.969.821-2.988,1.133a9.479,9.479,0,0,1-3.1.422c-.736-.023-.736,1.121,0,1.144Z" transform="translate(-300.183 -189.456)" fill="#211715"/><path d="M367.162,225.706c-1.616.579-3.205,1.23-4.813,1.83a.588.588,0,0,0-.4.7.577.577,0,0,0,.7.4c1.608-.6,3.2-1.252,4.813-1.83a.587.587,0,0,0,.4-.7.577.577,0,0,0-.7-.4Z" transform="translate(-310.7 -193.124)" fill="#211715"/><path d="M367.326,232.776c-1.356.685-2.793,1.2-4.149,1.881a.572.572,0,1,0,.577.988c1.356-.685,2.792-1.2,4.148-1.881a.572.572,0,1,0-.577-.988Z" transform="translate(-311.392 -198.14)" fill="#211715"/><path d="M346.274,251.769l-.811,1.136a.576.576,0,0,0-.058.441.583.583,0,0,0,.263.342.576.576,0,0,0,.441.058l.137-.058a.571.571,0,0,0,.205-.205l.811-1.136a.578.578,0,0,0,.058-.441.585.585,0,0,0-.263-.342.577.577,0,0,0-.441-.057l-.137.057a.574.574,0,0,0-.205.205Z" transform="translate(-298.889 -211.548)" fill="#211715"/><path d="M360.637,231.55l.314,2.837a.586.586,0,0,0,.572.572.578.578,0,0,0,.572-.572l-.314-2.837a.586.586,0,0,0-.572-.572.578.578,0,0,0-.572.572Z" transform="translate(-309.777 -196.907)" fill="#211715"/><rect width="120" height="100" transform="translate(-12.645 -4.716)" fill="none"/></g></svg>