<svg xmlns="http://www.w3.org/2000/svg" width="120" height="100" viewBox="0 0 120 100"><g transform="translate(-365 -290)"><path d="M44.085,149.014A23.249,23.249,0,0,1,38.241,133.1c0-16.533,10.425-25.348,23.981-25.348S86.2,116.569,86.2,133.1c0,15.12-11.99,23.789-23.981,23.789a24.962,24.962,0,0,1-14.469-4.6c-1.384.782-4.769,2.53-6.368,3.253C42.172,153.42,43.2,150.991,44.085,149.014Z" transform="translate(387.124 191.246)" fill="#fff" stroke="#211715" stroke-miterlimit="10" stroke-width="1.2"/><path d="M167.837,245.639c0-2.4.011-6.488.011-7.928H163.16c0,.842.011,5.526.011,7.928" transform="translate(289.191 89.364)" fill="#f4b467" stroke="#211715" stroke-miterlimit="10" stroke-width="1.2"/><path d="M129.912,220.017c0-2.4.011-13.548.011-14.989h-4.688c0,.842.011,12.586.011,14.989" transform="translate(318.923 114.986)" fill="#f4b467" stroke="#211715" stroke-miterlimit="10" stroke-width="1.2"/><path d="M92.637,191.254c0-2.431.011-20.858.011-22.315H87.9c0,.852.011,19.884.011,22.315" transform="translate(348.191 143.279)" fill="#f4b467" stroke="#211715" stroke-miterlimit="10" stroke-width="1.2"/><path d="M205.762,264.855c0-2.4.011-1.192.011-2.633h-4.688c0,.842.011,2.633.011,2.633" transform="translate(259.459 70.148)" fill="#f4b467" stroke="#211715" stroke-miterlimit="10" stroke-width="1.2"/><path d="M148.727,150.5a14.778,14.778,0,0,1,4.606,3.586,20.422,20.422,0,0,1,3.826,6.886,18.952,18.952,0,0,1-4.94.478,34.949,34.949,0,0,1,9.491,5.642,41.6,41.6,0,0,0,2.175-8.7,10.109,10.109,0,0,1-2.754,1.561,25.2,25.2,0,0,0-5.711-6.623,14.892,14.892,0,0,0-7.494-3.187Q148.332,150.305,148.727,150.5Z" transform="translate(301.135 158.017)" fill="#f2635f" stroke="#211715" stroke-miterlimit="10" stroke-width="1.2"/><path d="M109.254,274.407c-7.449.016-33.472.027-34.654.027" transform="translate(358.62 60.595)" fill="none" stroke="#211715" stroke-miterlimit="10" stroke-width="1.2"/><g transform="translate(380.558 311.39)"><path d="M115.152,189.4c.546-.172,1.956-.606,2.022-.631,1.007-.363.968-1.011,1.094-1.734.061-.341.108-.659.147-.989a10.538,10.538,0,0,1-2.839-2.174,12.068,12.068,0,0,1-2.484-3.94l-.223.079a1.467,1.467,0,0,1-1.355-.333,3.907,3.907,0,0,1-1.093-1.257,6.144,6.144,0,0,1-.836-3.209,2.05,2.05,0,0,1,.161-.837,1.45,1.45,0,0,1,1-.759,1.5,1.5,0,0,1,1.4.418l.946-1.136a69.959,69.959,0,0,1,6.55-6.769c.071.241.845,2.181.951,2.44.213-.193,2.744-2.29,3.675-3.05l2.1.115a7.346,7.346,0,0,1,3.509,2.311,14.2,14.2,0,0,1,2.251,3.478l.656,1.458a1.535,1.535,0,0,1,1.2-.434,1.45,1.45,0,0,1,1.085.624,2.052,2.052,0,0,1,.268.809,6.142,6.142,0,0,1-.414,3.29,3.9,3.9,0,0,1-.922,1.388,1.178,1.178,0,0,1-1.16.352l-.236-.056c-.075.371-.164.685-.207.852-.3,1.013-2.182,4.774-4.724,6.017.035.448.095.894.17,1.339.122.692.083,1.311,1.048,1.658.043.018,1.362.64,2.2,1.038a8.838,8.838,0,0,1-7.9,4.068A9.112,9.112,0,0,1,115.152,189.4Z" transform="translate(-101.613 -155.646)" fill="#fff"/><path d="M115.757,282.272a9,9,0,0,0-2.624-3.931,44.954,44.954,0,0,0-8.322-3.983l-.287.237c-1.578,1.141-5.527,2.235-8.383,2.227a11.981,11.981,0,0,1-8.044-2.605.449.449,0,0,0-.459-.144,34.494,34.494,0,0,0-7.451,3.081,6.691,6.691,0,0,0-3.125,3.971,40.673,40.673,0,0,0-1.706,11.322,59.03,59.03,0,0,0,.4,6.607,9.838,9.838,0,0,0,1.027,3.583,4.977,4.977,0,0,0,2.753,2.412,7.02,7.02,0,0,0,2.519.2,56.366,56.366,0,0,0,11.6-2.355l.394.243c.218.135,6.836.742,8.361.778,3.782.089,7.711.5,11.46-.146,1.574-.274,3.291-.773,4.171-2.624.644-1.355.523-3.3.451-5.225a47.064,47.064,0,0,0-2.707-13.6" transform="translate(-74.831 -240.558)" fill="#fff"/><path d="M109.142,338.741a42.916,42.916,0,0,0-3.323-3.462,1.125,1.125,0,0,0-.463-.3.393.393,0,0,0-.469.2,2.786,2.786,0,0,0-.205.487l-.156-.137a2.853,2.853,0,0,0-.952-.558,1.14,1.14,0,0,0-1.034.131.665.665,0,0,0-.181.939,1.868,1.868,0,0,0,.362.482l-.077-.011a1.106,1.106,0,0,0-1.062.317.813.813,0,0,0-.126.859,3.155,3.155,0,0,0,.7.917q.286.286.568.577l-.375.02a.868.868,0,0,0-.694.315.737.737,0,0,0-.12.731,2.167,2.167,0,0,0,.408.657l1.41,1.759.045.058c1.95-.271,5.462-.917,6.087-1.058l1.677-.377,0-.005Q110.2,339.973,109.142,338.741Z" transform="translate(-95.2 -288.16)" fill="#fff"/><path d="M190.417,359.175l-.018,0a4.93,4.93,0,0,1-2.894-.537l-.062-.023c-.53-1.613-1.26-3.69-1.74-5.214l.157-.063c1.348-.374,2.176-.664,3.5-1.118,1.176-.4,2.822-1.187,4.015-1.123a5.744,5.744,0,0,1,1.669.435c.214.079,1.051.4,1.265.484l.39.149c-.336,2.934-.685,5.6-.874,6.492a2.7,2.7,0,0,1-1.064.679,7.606,7.606,0,0,1-1.653-.4A9.013,9.013,0,0,0,190.417,359.175Z" transform="translate(-161.162 -300.827)" fill="#fff"/><path d="M190.238,256.466a19.456,19.456,0,0,0,.275,2.012,1.812,1.812,0,0,0,.892,1.3c.061.034.124.063.188.091-.005,0,.3.126.132.052l.118.055.534.251,1.538.728a.537.537,0,0,0,.715-.187.527.527,0,0,0-.187-.715c-.783-.371-1.56-.759-2.356-1.1a1.645,1.645,0,0,1-.29-.16c-.031-.022-.028-.02.008.006-.024-.02-.046-.042-.068-.064s-.041-.043-.061-.066q.048.065.017.019c-.027-.041-.05-.084-.075-.127-.05-.085.017.077-.019-.048-.028-.1-.054-.189-.073-.287a16.013,16.013,0,0,1-.242-1.756.536.536,0,0,0-.522-.522.526.526,0,0,0-.522.522Z" transform="translate(-164.71 -226.387)" fill="#211715"/><path d="M109.471,136.207a15.1,15.1,0,0,1,.149-2.985,8.9,8.9,0,0,1,1.93-4.35c-.332-.3-.618-.512-.78-.681a11.024,11.024,0,0,1,4.595-3.562,21.79,21.79,0,0,1,2.245-.759c-.13-.339-.243-.72-.245-.722a6.829,6.829,0,0,1,2.964-.6c3.082-.124,7.29,1.076,8.547,3.473l1.405,1c1.375.487,2.906,2.483,3.449,3.9a16.335,16.335,0,0,1,.654,8.048,1.477,1.477,0,0,0-.512-.138,1.547,1.547,0,0,0-1.093.338l-.761-1.363a14.2,14.2,0,0,0-2.251-3.478,7.346,7.346,0,0,0-3.509-2.311l-1.975-.215c-.806.655-3.575,2.947-3.8,3.15-.106-.26-.879-2.2-.951-2.44a69.957,69.957,0,0,0-6.55,6.769l-.862,1.242a1.472,1.472,0,0,0-1.482-.524,1.408,1.408,0,0,0-.373.137A9,9,0,0,1,109.471,136.207Z" transform="translate(-101.513 -122.021)" fill="#645d5b"/><path d="M214.581,196.3a.994.994,0,0,1,1.456.061,1.834,1.834,0,0,1,.249.906,6.06,6.06,0,0,1-.005,1.179,5.3,5.3,0,0,1-.648,2.057c-.242.424-.66,1.064-1.223.949a.535.535,0,0,0-.643.365.527.527,0,0,0,.365.643,1.7,1.7,0,0,0,1.331-.219,3.485,3.485,0,0,0,.981-1.059,6.386,6.386,0,0,0,.9-2.931,3.3,3.3,0,0,0-.8-2.843,2.06,2.06,0,0,0-2.7.155c-.484.468.255,1.206.739.739Z" transform="translate(-183.053 -178.687)" fill="#211715"/><path d="M192.953,219.487a5.838,5.838,0,0,1-.359,2.076c-.029.08-.06.159-.091.238-.052.132.013-.025-.024.058-.027.06-.053.12-.08.179-.117.255-.242.506-.375.754a12.531,12.531,0,0,1-2.5,3.355,5.046,5.046,0,0,1-1.906,1.16.523.523,0,0,0,.278,1.008,7.733,7.733,0,0,0,3.72-2.95,14.066,14.066,0,0,0,1.929-3.387,6.585,6.585,0,0,0,.448-2.491c-.02-.671-1.065-.674-1.045,0Z" transform="translate(-162.378 -197.471)" fill="#211715"/><path d="M110.33,200.565a2.051,2.051,0,0,0-2.656.239,3.385,3.385,0,0,0-.406,2.951,6.368,6.368,0,0,0,1.251,2.738,2.559,2.559,0,0,0,2.565,1.144.523.523,0,0,0-.278-1.007c-.6.178-1.216-.438-1.548-.875a5.441,5.441,0,0,1-.921-2,5.368,5.368,0,0,1-.151-1.09,1.823,1.823,0,0,1,.143-1.01,1.006,1.006,0,0,1,1.474-.19.526.526,0,0,0,.715-.187.535.535,0,0,0-.187-.715Z" transform="translate(-99.688 -182.766)" fill="#211715"/><path d="M121.78,225.622a12.31,12.31,0,0,0,5.685,7.283,7.493,7.493,0,0,0,2.471.848.54.54,0,0,0,.643-.365.526.526,0,0,0-.365-.643c-2.96-.431-5.367-2.9-6.662-5.468a11.821,11.821,0,0,1-.765-1.934.523.523,0,0,0-1.007.278Z" transform="translate(-111.135 -202.162)" fill="#211715"/><path d="M134.744,162.831c-1.273,1.035-2.577,2.053-3.8,3.15l.873.231c-.328-.8-.7-1.612-.951-2.441a.529.529,0,0,0-.873-.231,67.892,67.892,0,0,0-6.55,6.77.539.539,0,0,0,0,.739.526.526,0,0,0,.739,0,67.89,67.89,0,0,1,6.55-6.769l-.873-.231c.256.828.623,1.638.951,2.44a.531.531,0,0,0,.873.23c1.22-1.1,2.525-2.115,3.8-3.15a.526.526,0,0,0,0-.739.535.535,0,0,0-.739,0Z" transform="translate(-112.342 -153.426)" fill="#211715"/><path d="M184.673,164.683a6.867,6.867,0,0,1,3.3,2.2,12.811,12.811,0,0,1,2.148,3.349.526.526,0,0,0,.715.187.535.535,0,0,0,.187-.715,13.533,13.533,0,0,0-2.368-3.621,7.8,7.8,0,0,0-3.7-2.409c-.653-.157-.932.85-.278,1.008Z" transform="translate(-160.065 -154.189)" fill="#211715"/><path d="M109.269,149.323c-2.28,2.588-2.531,6.361-2.056,9.627a6.492,6.492,0,0,0,.591,2.1c.313.6,1.215.068.9-.527-.025-.048-.049-.1-.072-.145s0,0,0,.012c-.013-.032-.026-.064-.038-.1-.049-.132-.093-.267-.131-.4a8.7,8.7,0,0,1-.2-.93,15.415,15.415,0,0,1-.19-2.111,12,12,0,0,1,.564-4.34,7.245,7.245,0,0,1,1.368-2.444c.443-.5-.293-1.244-.739-.739Z" transform="translate(-99.601 -142.842)" fill="#211715"/><path d="M120.256,126.275a18.594,18.594,0,0,0-2.32.787,9.291,9.291,0,0,0-1.9,1,12.863,12.863,0,0,0-2.572,2.261c-.236.277-.694.8-.276,1.145a.537.537,0,0,0,.739,0,.527.527,0,0,0,0-.739l0,0,.134.231c.022.056.011.321-.035.345.016-.008.021-.059.039-.063s.035-.048.043-.06c.044-.064-.081.1.013-.017.146-.174.3-.343.454-.507a13.16,13.16,0,0,1,1.415-1.275,9.632,9.632,0,0,1,1.984-1.213,15.033,15.033,0,0,1,2.566-.887c.654-.155.377-1.162-.278-1.008Z" transform="translate(-104.298 -124.931)" fill="#211715"/><path d="M155.882,123.893a7.112,7.112,0,0,0-4.117-3,13.721,13.721,0,0,0-5.329-.71,12.507,12.507,0,0,0-1.488.177,3.141,3.141,0,0,0-1.293.469.539.539,0,0,0-.187.715.526.526,0,0,0,.715.187,4.2,4.2,0,0,1,2.057-.49,13.181,13.181,0,0,1,2.31.015,11.166,11.166,0,0,1,4.782,1.507,4.513,4.513,0,0,1,1.649,1.655c.318.593,1.22.066.9-.527Z" transform="translate(-128.066 -120.156)" fill="#211715"/><path d="M203.115,141.715a4.8,4.8,0,0,1,1.806,1.466,7.5,7.5,0,0,1,1.278,2.066,14.955,14.955,0,0,1,.879,5.094,10.969,10.969,0,0,1-.225,2.677c-.152.654.855.934,1.007.278a15.035,15.035,0,0,0,.023-5.633,13.2,13.2,0,0,0-.653-2.63,8.871,8.871,0,0,0-1.413-2.4,5.843,5.843,0,0,0-2.425-1.927.527.527,0,0,0-.643.365.533.533,0,0,0,.365.643Z" transform="translate(-174.484 -136.214)" fill="#211715"/><path d="M131.6,273.347c3.786,3.282,9.386,3.256,13.939,1.85a10.891,10.891,0,0,0,3.121-1.39.537.537,0,0,0,.187-.715.527.527,0,0,0-.715-.187,9.148,9.148,0,0,1-2.412,1.136,20.779,20.779,0,0,1-3.386.828,14.529,14.529,0,0,1-6.871-.5,9.321,9.321,0,0,1-3.125-1.759c-.506-.439-1.248.3-.739.739Z" transform="translate(-118.7 -239.318)" fill="#211715"/><path d="M133.412,262.424c.625-.2,1.252-.387,1.877-.584a2.623,2.623,0,0,0,.939-.491,1.829,1.829,0,0,0,.563-1.027c.109-.521.178-1.057.247-1.584a.523.523,0,0,0-.522-.522.539.539,0,0,0-.522.522c.008-.059-.01.074-.013.092-.01.068-.02.135-.03.2-.02.128-.042.256-.064.384-.028.163-.049.327-.076.49s-.071.289-.109.434c-.017.066.047-.091.014-.032-.008.015-.014.031-.022.046-.015.03-.032.06-.05.089-.032.052-.053.069,0,.008-.033.037-.063.074-.1.108s-.057.052-.087.076c.081-.066-.012,0-.048.026s-.079.046-.12.066l-.065.032c.052-.025.012,0-.018.007-.068.026-.137.047-.206.069-.282.089-.564.176-.846.263-.34.106-.681.211-1.021.318a.523.523,0,0,0,.278,1.008Z" transform="translate(-119.734 -228.164)" fill="#211715"/><path d="M81.818,279.472a6.491,6.491,0,0,1,2.75-3.581,31.877,31.877,0,0,1,4.8-2.25c.492-.188.988-.364,1.489-.523q.335-.106.673-.2.172-.048.345-.093c.05-.013.1-.024.15-.038-.04.011-.112-.048-.049.01.493.456,1.234-.281.739-.739-.454-.421-.924-.3-1.462-.148-.475.133-.945.286-1.411.449-.991.349-1.964.749-2.922,1.18-.868.391-1.725.809-2.56,1.268a7.066,7.066,0,0,0-2.053,1.625,8.946,8.946,0,0,0-1.5,2.763.527.527,0,0,0,.365.643.533.533,0,0,0,.643-.365Z" transform="translate(-79.083 -238.766)" fill="#211715"/><path d="M200.1,383.469a3.822,3.822,0,0,1-.415.352,1.794,1.794,0,0,1-.355.2c-.108.034.067.012-.04,0a.463.463,0,0,1-.123-.014,15.434,15.434,0,0,0-1.738-.432,10.507,10.507,0,0,0-2.415.279,4.481,4.481,0,0,1-2.634-.462.537.537,0,0,0-.715.187.527.527,0,0,0,.187.715,6.188,6.188,0,0,0,2.384.65,12.319,12.319,0,0,0,2.184-.27,3.228,3.228,0,0,1,1.5.071,3.415,3.415,0,0,0,1.612.3,2.907,2.907,0,0,0,1.3-.84c.483-.469-.256-1.208-.739-.739Z" transform="translate(-165.774 -326.036)" fill="#211715"/><path d="M184.738,352.032c1.458-.406,2.9-.88,4.316-1.42a16.01,16.01,0,0,1,2.091-.7,3.518,3.518,0,0,1,.9-.107,4.073,4.073,0,0,1,1.217.279c.555.194,1.1.419,1.649.624a.527.527,0,0,0,.643-.365.534.534,0,0,0-.365-.643,7.837,7.837,0,0,0-3.842-.886,10.389,10.389,0,0,0-2.168.635c-.708.267-1.416.525-2.132.768-.854.291-1.714.562-2.584.8a.523.523,0,0,0,.278,1.007Z" transform="translate(-159.902 -299.014)" fill="#211715"/><path d="M231.531,311.82c-.06,2-.3,4-.5,5.993-.253,2.443-.528,4.885-.854,7.319.012-.092-.01.074-.014.107l-.026.19q-.027.192-.054.384c-.032.221-.064.442-.1.662-.049.318-.1.637-.167.952-.141.656.866.936,1.008.278.145-.674.231-1.363.325-2.045.157-1.144.3-2.29.436-3.437.3-2.5.569-5.012.791-7.524.085-.958.173-1.918.2-2.879.02-.673-1.025-.672-1.045,0Z" transform="translate(-195.662 -269.706)" fill="#211715"/><path d="M106.4,313.093c.23,1.538.7,3.032,1.038,4.549a.523.523,0,0,0,1.008-.278c-.334-1.517-.808-3.011-1.038-4.549a.526.526,0,0,0-.643-.365.536.536,0,0,0-.365.643Z" transform="translate(-99.113 -270.581)" fill="#211715"/><path d="M74.69,304.574a42.058,42.058,0,0,0-1.568,15.516,23.972,23.972,0,0,0,.614,4.583,6.57,6.57,0,0,0,2.869,4.064c1.462.838,3.212.688,4.824.515a55.981,55.981,0,0,0,8.826-1.793,67.68,67.68,0,0,0,8.316-2.808c.294-.124.587-.25.878-.38a.526.526,0,0,0,.187-.715.535.535,0,0,0-.715-.187,59.9,59.9,0,0,1-7.684,2.725,63.876,63.876,0,0,1-8.675,1.969c-.609.089-1.222.16-1.836.21a9.156,9.156,0,0,1-2.434-.017,4.567,4.567,0,0,1-3.21-2.862,14.538,14.538,0,0,1-.852-4.5c-.122-1.438-.22-2.883-.226-4.326a39.97,39.97,0,0,1,1.309-10.376q.179-.675.383-1.343a.523.523,0,0,0-1.008-.278Z" transform="translate(-72.963 -264.145)" fill="#211715"/><path d="M106.133,357.576c2.118-.247,4.228-.643,6.319-1.053s4.149-.919,6.212-1.412c1.227-.293,2.458-.586,3.667-.948a.523.523,0,0,0-.278-1.007c-2.276.683-4.614,1.18-6.93,1.705-1.811.411-3.617.793-5.446,1.113q-.98.171-1.961.329c-.574.091-1.085.17-1.583.228a.539.539,0,0,0-.522.522.526.526,0,0,0,.522.522Z" transform="translate(-98.504 -302.42)" fill="#211715"/><path d="M180.055,354.175c.1-.017-.2.005-.1-.062a1.517,1.517,0,0,0,.059.207q.057.2.118.4c.1.325.2.648.306.97.242.747.495,1.491.747,2.235s.508,1.494.756,2.243q.162.489.317.98a1.323,1.323,0,0,1,.124.4c0,.023.008-.028.007-.025-.025.052-.152.1-.2.132a.523.523,0,0,0,.527.9,1.21,1.21,0,0,0,.715-.937,2.673,2.673,0,0,0-.213-.9c-.209-.655-.428-1.307-.648-1.959-.454-1.345-.923-2.686-1.345-4.041-.091-.291-.163-.59-.261-.878a.991.991,0,0,0-1.185-.668.527.527,0,0,0-.365.643.534.534,0,0,0,.643.365Z" transform="translate(-156.229 -302.431)" fill="#211715"/><path d="M206.965,273.894c.068-.043.6.227.713.271q.544.212,1.086.429c.885.356,1.761.732,2.625,1.137,1,.467,1.977.971,2.922,1.535a7.809,7.809,0,0,1,1.2.8,5.425,5.425,0,0,1,.868,1.006,11.523,11.523,0,0,1,1.236,2.4.537.537,0,0,0,.643.365.526.526,0,0,0,.365-.643,12.889,12.889,0,0,0-1.171-2.387,7.776,7.776,0,0,0-.94-1.223,6.484,6.484,0,0,0-1.285-.975,39.406,39.406,0,0,0-6.087-2.976q-.641-.259-1.286-.508c-.467-.181-.936-.431-1.416-.126-.566.36-.042,1.264.527.9Z" transform="translate(-177.193 -239.612)" fill="#211715"/><path d="M159.1,331.389a1.732,1.732,0,0,0,.6.139c.406.056.813.1,1.221.146,1.079.117,2.161.217,3.242.311,2.488.216,4.974.305,7.47.4a43.952,43.952,0,0,0,5.856-.071,10.933,10.933,0,0,0,4.464-1.1,4.963,4.963,0,0,0,2.352-3.84,16.942,16.942,0,0,0,.062-2.69c-.029-.837-.061-1.675-.126-2.51a47.813,47.813,0,0,0-2.157-10.761q-.229-.718-.479-1.43a.535.535,0,0,0-.643-.365.527.527,0,0,0-.365.643,48.439,48.439,0,0,1,2.466,10.533,45.1,45.1,0,0,1,.281,4.986c0,1.488-.148,3.05-1.32,4.1a6.772,6.772,0,0,1-3.695,1.294,34.9,34.9,0,0,1-5.6.2c-2.576-.072-5.157-.157-7.726-.368q-1.639-.135-3.276-.3c-.445-.045-.889-.091-1.333-.143q-.25-.029-.5-.061c.156.02-.018,0-.076-.011s-.1-.015-.155-.025c-.113-.02-.2-.075-.041.013-.591-.321-1.119.581-.527.9Z" transform="translate(-140.146 -268.363)" fill="#211715"/><path d="M143.034,191.283a2.108,2.108,0,0,1-.219.192l.106-.082a2.874,2.874,0,0,1-.623.374l.125-.053a1.043,1.043,0,0,1-.152.051.523.523,0,0,0-.365.643.529.529,0,0,0,.24.312.56.56,0,0,0,.4.053,1.857,1.857,0,0,0,.352-.138,2.786,2.786,0,0,0,.279-.154,3.16,3.16,0,0,0,.593-.461.542.542,0,0,0,.153-.369.531.531,0,0,0-.153-.369.526.526,0,0,0-.369-.153.539.539,0,0,0-.369.153Z" transform="translate(-126.884 -175.68)" fill="#211715"/><path d="M116.9,335.174a.39.39,0,0,0-.451.205l-.285.417a44.078,44.078,0,0,1,3.779,3.837l.746-.706a42.927,42.927,0,0,0-3.309-3.446,1.125,1.125,0,0,0-.463-.3Z" transform="translate(-106.758 -288.364)" fill="#211715"/><path d="M109.956,337.186c-.733-.808-1.466-1.617-2.237-2.389q-.55-.552-1.127-1.077a5.461,5.461,0,0,0-1.3-.979,1.94,1.94,0,0,0-1.5-.136,1.3,1.3,0,0,0-.869,1.17,2.054,2.054,0,0,0,.735,1.346c.354.346.706.691,1.052,1.044.86.878,1.745,1.733,2.582,2.634.459.493,1.2-.247.739-.739-.654-.7-1.336-1.379-2.014-2.059-.306-.308-.613-.615-.912-.929s-.644-.585-.924-.913a.77.77,0,0,1-.22-.425c0,.027-.019.06.008.013a.413.413,0,0,1,.15-.152c.295-.151.69.057.935.209a6.862,6.862,0,0,1,1,.842q.488.452.956.924c.759.763,1.483,1.561,2.206,2.358.453.5,1.19-.241.739-.739Z" transform="translate(-96.405 -286.285)" fill="#211715"/><path d="M100.952,339.769a1.6,1.6,0,0,0-1.608.5,1.5,1.5,0,0,0,.14,1.938,17.751,17.751,0,0,0,1.4,1.473c.486.5.976.993,1.495,1.458a.534.534,0,0,0,.739,0,.528.528,0,0,0,0-.739c-.815-.731-1.558-1.535-2.329-2.311a5.354,5.354,0,0,1-.485-.522c-.1-.13-.245-.317-.22-.491.02-.137.106-.191.214-.246a.528.528,0,0,1,.38-.051.523.523,0,0,0,.278-1.007Z" transform="translate(-93.368 -291.923)" fill="#211715"/><path d="M100.855,352.236a1.423,1.423,0,0,0-1.205.649,1.382,1.382,0,0,0,.022,1.374,7.683,7.683,0,0,0,.878,1.158l.94,1.173a.526.526,0,0,0,.739,0,.535.535,0,0,0,0-.739c-.488-.61-.988-1.212-1.466-1.83a3.092,3.092,0,0,1-.2-.3c-.014-.031-.053-.2-.042-.109,0-.033,0-.066,0-.1,0-.135-.017.04,0-.03,0-.009.032-.1.013-.05s.048-.043.007-.007.155-.128.064-.062c.026-.019.054-.034.08-.052s.057-.026.006-.008c0,0,.131-.034.075-.025s.088,0,.088,0a.527.527,0,0,0,.522-.522.533.533,0,0,0-.522-.522Z" transform="translate(-93.705 -301.718)" fill="#211715"/><path d="M116.08,333.77c-.05.1-.2-.029-.02.093a2.873,2.873,0,0,1,.348.319q.4.375.784.76.775.77,1.51,1.579a42.055,42.055,0,0,1,2.746,3.352.538.538,0,0,0,.715.187.526.526,0,0,0,.187-.715,44.426,44.426,0,0,0-3.313-4q-.881-.943-1.818-1.833a2.471,2.471,0,0,0-.983-.71.928.928,0,0,0-1.059.441c-.3.6.6,1.129.9.527Z" transform="translate(-105.941 -286.491)" fill="#211715"/><g transform="translate(16.05 17.039)"><path d="M165.476,235.671a1.479,1.479,0,0,1,.108-.117c.017-.017.156-.125.057-.054a2.193,2.193,0,0,1,.272-.167c.017-.009.192-.084.094-.046.062-.024.124-.046.187-.065s.129-.036.195-.05l.1-.019q.085-.013.031-.006t.031,0l.111-.008q.111-.007.222-.007a3.986,3.986,0,0,1,.408.019l.079.009c-.052-.007-.047-.006.016,0s.132.024.2.039.124.031.185.05c.021.007.2.074.085.025a.537.537,0,0,0,.715-.187.528.528,0,0,0-.187-.715,3.839,3.839,0,0,0-2-.253,2.618,2.618,0,0,0-1.644.812.522.522,0,0,0,.739.739Z" transform="translate(-160.694 -226.324)" fill="#211715"/><path d="M171.086,215.242c.056.169.108.338.158.509a3.807,3.807,0,0,1,.137.542l-.019-.139a.474.474,0,0,1,0,.107l.019-.139a.3.3,0,0,1-.012.048l.053-.125a.238.238,0,0,1-.023.042l.082-.106a.134.134,0,0,1-.023.023l.106-.082a.627.627,0,0,1-.118.067l.125-.053a.537.537,0,0,1-.126.035l.139-.019a1.3,1.3,0,0,1-.236-.013.523.523,0,0,0-.369.892.577.577,0,0,0,.369.153,1.852,1.852,0,0,0,.2.016,1.06,1.06,0,0,0,.49-.139.7.7,0,0,0,.355-.462,1.106,1.106,0,0,0-.022-.493c-.077-.318-.171-.633-.274-.943a.553.553,0,0,0-.24-.312.522.522,0,0,0-.767.59Z" transform="translate(-165.573 -211.066)" fill="#211715"/><path d="M146.736,201.8c-.131.514.054,1.667,1.073,1.7a1.267,1.267,0,0,0,.821-2.129A1.086,1.086,0,0,0,146.736,201.8Z" transform="translate(-146.699 -200.423)" fill="#211715"/><path d="M188.277,199.125c.2.492.161,1.655-.845,1.82a1.263,1.263,0,0,1-1.089-2A1.087,1.087,0,0,1,188.277,199.125Z" transform="translate(-177.559 -198.436)" fill="#211715"/></g></g><path d="M88.324,88.346a.561.561,0,0,1-.19.849.583.583,0,0,1-.867-.145l-.156-.23a2.691,2.691,0,0,1-.294-2.758,1.873,1.873,0,0,0-.136-1.938,1.27,1.27,0,0,0-1.931-.253,2.237,2.237,0,0,0-.963,2.015.586.586,0,0,1-.267.5.771.771,0,0,1-1.035-.111.835.835,0,0,1-.115-.5A3.775,3.775,0,0,1,84.1,82.795c1.475-1,2.972-.872,3.865.439a2.765,2.765,0,0,1,.237,2.909c-.4,1.074-.33,1.536.012,2.038Zm1.652,1.722A1,1,0,0,1,88.315,91.2a1,1,0,0,1,1.661-1.131Z" transform="translate(300.236 220.98)"/><rect width="120" height="100" transform="translate(365 290)" fill="none"/></g></svg>