<svg xmlns="http://www.w3.org/2000/svg" width="123" height="115" viewBox="0 0 123 115"><g transform="translate(-19.37 -74.753)"><path d="M220.919,296.05l33.2,13.634,34,13.971L272.1,290.534,256.459,258.2a1.341,1.341,0,0,0-.383-.792c-2.138-2.014-11.924,4.929-21.857,15.506s-16.253,20.784-14.114,22.8A1.346,1.346,0,0,0,220.919,296.05Z" transform="translate(-145.746 -133.902)" fill="#ffbe00"/><path d="M254.518,256.106c-3.125-2.943-13.712,3.246-23.645,13.823s-15.452,21.537-12.326,24.48,13.713-3.246,23.645-13.823S257.644,259.048,254.518,256.106Z" transform="translate(-144.188 -132.596)" fill="#f2982a"/><path d="M128.156,351.05a24.561,24.561,0,0,0-12.136-2.864,32.213,32.213,0,0,0-6.142.566,42.983,42.983,0,0,0-5.974,1.509,62.431,62.431,0,0,0-11.281,5.081q-2.722,1.506-5.336,3.228c-.872.571-1.732,1.162-2.588,1.763l-1.273.914c-.376.378-.831.621-2.578-.9l-.733-1.019c-.871-2.14-.449-2.518.052-2.762l1.385-.91c.929-.6,1.866-1.187,2.817-1.756,1.9-1.138,3.842-2.215,5.835-3.205a57.582,57.582,0,0,1,12.617-4.473,36.877,36.877,0,0,1,13.4-.591C120.618,346.373,125.016,347.981,128.156,351.05Z" transform="translate(-47.409 -201.297)" fill="#b7c800"/><path d="M131.776,210.494a18.8,18.8,0,0,1-3.594-1.788c-1.154-.686-2.281-1.416-3.39-2.177a71.515,71.515,0,0,1-6.4-4.954A49.5,49.5,0,0,1,107.7,189l.313.547-.386-.715a13.075,13.075,0,0,0-.949-1.495,12.651,12.651,0,0,0-1.2-1.408,9.913,9.913,0,0,0-2.807-2.038,8.664,8.664,0,0,0-6.385-.307l-1.35-6.445a16.353,16.353,0,0,1,5.39.034,13.662,13.662,0,0,1,5.077,2.034,15.136,15.136,0,0,1,3.779,3.606,17.439,17.439,0,0,1,1.356,2.121,16.035,16.035,0,0,1,1.061,2.37l-.073-.168a46.441,46.441,0,0,0,8.361,12.924,70.184,70.184,0,0,0,5.566,5.631c.983.888,1.992,1.752,3.033,2.575A18.555,18.555,0,0,0,131.776,210.494Z" transform="translate(-58.683 -77.504)" fill="#b7c800"/><path d="M256.041,137.7a103.194,103.194,0,0,1-9.1-11.431,82.009,82.009,0,0,1-7.309-12.794,44.713,44.713,0,0,1-4.01-14.5,25.023,25.023,0,0,1,3.4-15.287l4.037,2.683a20.725,20.725,0,0,0-3.8,12.457,41.7,41.7,0,0,0,2.628,13.745,80.185,80.185,0,0,0,6.085,13.048A102.465,102.465,0,0,0,256.041,137.7Z" transform="translate(-162.107 -8.934)" fill="#b7c800"/><path d="M41.321,313.43a3.288,3.288,0,1,1-4.357-1.626A3.292,3.292,0,0,1,41.321,313.43Z" transform="translate(-14.62 -176.467)" fill="#d6006c"/><path d="M87.364,229.048a3.288,3.288,0,1,1-4.356-1.626A3.294,3.294,0,0,1,87.364,229.048Z" transform="translate(-48.494 -114.414)" fill="#d6006c"/><path d="M180.719,391.392a2.086,2.086,0,1,1-2.764-1.031A2.09,2.09,0,0,1,180.719,391.392Z" transform="translate(-118.864 -234.316)" fill="#399d26"/><path d="M306.674,206.814a1.5,1.5,0,1,1-1.988-.742A1.5,1.5,0,0,1,306.674,206.814Z" transform="translate(-212.352 -98.833)" fill="#399d26"/><path d="M184.165,205.723a1.5,1.5,0,1,1-1.99-.743A1.506,1.506,0,0,1,184.165,205.723Z" transform="translate(-122.221 -98.03)" fill="#399d26"/><path d="M282.665,119.269a3.288,3.288,0,1,1-4.356-1.626A3.293,3.293,0,0,1,282.665,119.269Z" transform="translate(-192.179 -33.685)" fill="#d6006c"/><rect width="5.497" height="5.492" transform="matrix(0.331, -0.944, 0.944, 0.331, 46.52, 84.136)" fill="#ffbe00"/><rect width="5.5" height="5.494" transform="translate(41.495 137.09) rotate(-89.649)" fill="#ffbe00"/><rect width="5.494" height="5.493" transform="translate(95.261 117.593) rotate(-49.662)" fill="#ffbe00"/><path d="M36.132,249.28l-.258,2.782-.259,2.782-2.277-1.615-2.277-1.615,2.536-1.166Z" transform="translate(-11.69 -130.707)" fill="#0092d9"/><path d="M232.908,236.984l2.242,1.664,2.243,1.662-2.56,1.113-2.56,1.112.317-2.776Z" transform="translate(-159.724 -121.665)" fill="#0092d9"/><path d="M311.771,158.7l1.052,2.587,1.052,2.589-2.764-.382-2.765-.381,1.713-2.206Z" transform="translate(-215.69 -64.1)" fill="#0092d9"/><path d="M204.743,310.919l1.052,2.588,1.053,2.588-2.765-.382-2.765-.382,1.713-2.206Z" transform="translate(-136.95 -176.036)" fill="#0092d9"/></g></svg>