<svg xmlns="http://www.w3.org/2000/svg" width="120" height="100" viewBox="0 0 120 100"><g transform="translate(5.566 -47.647)"><path d="M31.669,191.681a6.148,6.148,0,0,1,1.717,1.11c.125.1.251.207.378.306a2.373,2.373,0,0,0,1.6.674,3.022,3.022,0,0,0,1.1-.473,4.271,4.271,0,0,1,1.827-.7,4.015,4.015,0,0,0,.483-.1.568.568,0,0,0,.36-.235.327.327,0,0,0-.157-.259,1.292,1.292,0,0,0-.735-.161,2.551,2.551,0,0,0-1.612.557.716.716,0,0,1-.664.109,5.355,5.355,0,0,1-2.023-1.259.709.709,0,1,1,1-1.006,3.937,3.937,0,0,0,1.159.8,4,4,0,0,1,2.125-.615c.053,0,.1,0,.154.005-.232-.1-.451-.189-.619-.248a1.308,1.308,0,0,0-.541-.033,1.045,1.045,0,0,1-.666-.1,1.568,1.568,0,0,1-.443-.418l-.049-.062a.778.778,0,0,0-.64-.307,2.039,2.039,0,0,0-.226.238.709.709,0,1,1-1.125-.864,3.544,3.544,0,0,1,2.379-1.353,6.414,6.414,0,0,1,.813-.029c.184,0,.37.005.554-.011a.948.948,0,0,0,.669-.264.825.825,0,0,0,.116-.414,1.944,1.944,0,0,0-.061-.63,8.984,8.984,0,0,1-2.926.476c-.126,0-.252-.014-.379-.023a3.1,3.1,0,0,0-.772,0,3.249,3.249,0,0,0-1.3.825l-.245.209a.721.721,0,0,1-.2.119,4.463,4.463,0,0,0-2.24,2.761c-.1.27-.15.458-.2.625a1.9,1.9,0,0,1-.515.974l.064.047c.3.221.6.45.734.525.058.034.12.06.179.093a.7.7,0,0,1,.009-.467A.709.709,0,0,1,31.669,191.681Z" transform="translate(-13.376 -74.334)" fill="#ffecd6"/><path d="M52.455,154.286l.465.24-.212-.859C52.631,153.876,52.545,154.081,52.455,154.286Z" transform="translate(-25.641 -56.893)" fill="#fff"/><path d="M47.693,201.875c-.04.012-.082.029-.123.045a3,3,0,0,0,.941.138,5.282,5.282,0,0,0,.81-.123l.282-.056a16.218,16.218,0,0,1,2.958-.229,1.634,1.634,0,0,0-.891-1.007,4,4,0,0,0-1.525-.315c-.007.034-.01.069-.02.1a1.841,1.841,0,0,1-1.307,1.2,5.179,5.179,0,0,1-.66.144A4.287,4.287,0,0,0,47.693,201.875Z" transform="translate(-23 -82.12)" fill="#ffecd6"/><path d="M13.489,156.555c-1.553,1.082-3.682,2.564-4.038,3.27a16.305,16.305,0,0,0-.636,3.8,98.315,98.315,0,0,1-.5,11.441,29.931,29.931,0,0,0-.158,4.253,3.592,3.592,0,0,0,.293,1.429A4.245,4.245,0,0,0,9.4,181.82l2.077,1.887a3.413,3.413,0,0,0,1.528.981,3.52,3.52,0,0,0,2.368-.979,32.28,32.28,0,0,0,3.8-3.779c.9-.981,1.762-1.927,2.565-2.709a19.206,19.206,0,0,1-3.59-1.539c-.2-.115-.491-.334-.864-.61-.274-.2-.7-.522-1.033-.742a8.625,8.625,0,0,1-1.037,1.1,6.968,6.968,0,0,0,3.576,1.954.709.709,0,0,1-.113,1.409.694.694,0,0,1-.114-.01,8.883,8.883,0,0,1-4.7-2.676l-.215-.2a.706.706,0,0,1-.218-.443,22.363,22.363,0,0,0-1.784,2.42.709.709,0,1,1-1.2-.76,23.756,23.756,0,0,1,2.173-2.9,1.155,1.155,0,0,1,1.291-.43l.762.186a6.425,6.425,0,0,0,.761-.951.71.71,0,0,1,.565-.325c.026-1.075-.031-2.435-.083-3.665-.027-.628-.051-1.216-.063-1.707a9.215,9.215,0,0,0-.175-1.836,8.976,8.976,0,0,0-1.987-2.92c-.361-.416-.7-.808-.972-1.169a.709.709,0,1,1,1.136-.848c.237.319.562.692.905,1.087a9.562,9.562,0,0,1,2.3,3.532,10.438,10.438,0,0,1,.211,2.122c.011.483.035,1.062.062,1.679.04.936.082,1.946.09,2.868.006-.016.01-.029.016-.045a5.735,5.735,0,0,1,2.95-3.551l.148-.125a4.361,4.361,0,0,1,1.954-1.139,4.251,4.251,0,0,1,1.146-.025c.11.008.22.016.329.021a9.529,9.529,0,0,0,3.055-.6.709.709,0,0,1,.819.31,3.367,3.367,0,0,1,.472,1.96,2.176,2.176,0,0,1-.386,1.151,2.244,2.244,0,0,1-1.693.841c-.24.02-.469.017-.688.016h-.088l.044.055a2.464,2.464,0,0,1,1.024.116,11,11,0,0,1,2.518,1.276,8.364,8.364,0,0,0,2.462,1.439.708.708,0,0,1,.2.116,4.1,4.1,0,0,1,2.038.43l-.005-.265c-.087-4.9-.177-9.962-.243-11.178-.126-2.319-.133-4.548,1.146-6.325a.709.709,0,0,1,1.152.828c-1.009,1.4-.993,3.365-.881,5.421.068,1.241.154,6.093.245,11.23.081,4.539.164,9.215.228,10.844.087.05.183.1.282.149a4.072,4.072,0,0,1,.735.45,64.287,64.287,0,0,0,2.211-6.326c.624-2.008,1.269-4.083,2.051-5.956.678-2.195.144-3.957-.624-6.032l-3.757-10.151a5.539,5.539,0,0,0-1.235-2.231,5.489,5.489,0,0,0-2.677-.985,10.406,10.406,0,0,1-2.214-.6l.54,2.184a.709.709,0,0,1-1.014.8l-1.6-.824a35.493,35.493,0,0,0,.281,3.81.709.709,0,0,1-.613.794.685.685,0,0,1-.091.006.709.709,0,0,1-.7-.619,36.715,36.715,0,0,1-.294-4.024,1.484,1.484,0,0,0-.042-.428,1.418,1.418,0,0,0-.169-.249c-.332-.426-.808-.96-1.269-1.475l-.268-.3-.595,3.681a.709.709,0,0,1-.909.565,22.347,22.347,0,0,1-6.434-3.08A19.909,19.909,0,0,1,13.489,156.555Z" transform="translate(-1.679 -56.335)" fill="#fff"/><path d="M50.759,148.688c-.056-.021-.113-.042-.17-.06-.05.468-.1.936-.136,1.365A9.625,9.625,0,0,0,50.759,148.688Z" transform="translate(-24.558 -54.168)" fill="#fff"/><path d="M183.714,101.728a.407.407,0,0,0-.07-.006.38.38,0,0,0-.373.309l-1.35,6.189a.377.377,0,0,0,.305.427.392.392,0,0,0,.065.007h.007a.377.377,0,0,0,.371-.309l1.35-6.189A.377.377,0,0,0,183.714,101.728Z" transform="translate(-95.635 -28.808)" fill="#fff"/><path d="M200.543,111.89a.379.379,0,0,0-.272.114l-5.643,5.509a.369.369,0,0,0-.1.259.377.377,0,0,0,.114.267.35.35,0,0,0,.052.042h0a.377.377,0,0,0,.484-.049l5.643-5.509a.37.37,0,0,0,.1-.259.378.378,0,0,0-.379-.374Z" transform="translate(-102.455 -34.305)" fill="#fff"/><path d="M29.038,146.287c-.3.7-.587,1.371-.862,1.881a19.861,19.861,0,0,0,5.727,2.97l.628-3.883c-.006-.024-.013-.051-.021-.079a9.263,9.263,0,0,1-4.895-2.19C29.424,145.385,29.207,145.894,29.038,146.287Z" transform="translate(-12.514 -52.199)" fill="#fff"/><path d="M117.756,235c-.421-.6-1.215-1.511-1.99-2.4-.858-.986-1.671-1.919-2.128-2.582-.019,0-.045-.006-.065-.007a14.988,14.988,0,0,0-2.355,2.744.709.709,0,1,1-1.182-.785,16.409,16.409,0,0,1,2.417-2.854l-.577-1.124c-1.078,1.234-2,2.365-2.875,3.507a1.1,1.1,0,0,0-.21.341,1.546,1.546,0,0,0,.049.148,7.967,7.967,0,0,1,.439,1.663.7.7,0,0,1,0,.208,3.167,3.167,0,0,1-.217.734,1.945,1.945,0,0,0-.13.408c.052.124.17.36.243.505h8.65A.713.713,0,0,1,117.756,235Z" transform="translate(-56.1 -97.075)" fill="#8fc31f"/><path d="M27.086,66.655l-3.954-4.627a.418.418,0,0,0-.175-.129.377.377,0,0,0-.427.59l3.954,4.627a.384.384,0,0,0,.489.109.392.392,0,0,0,.056-.037.378.378,0,0,0,.058-.533Z" transform="translate(-9.417 -7.264)" fill="#fff"/><path d="M31.8,239.719a.71.71,0,0,1,.582-.817,16.542,16.542,0,0,0,5.288-1.634,2.386,2.386,0,0,1,.128-.757c-1.522.36-3.339.77-5.106,1.168-1.908.43-3.88.875-5.463,1.252a17.08,17.08,0,0,1-3.942.612c-.267,0-.536-.012-.8-.039a5.315,5.315,0,0,1-2.341-.968,7.44,7.44,0,0,0-1.152-.631,8.324,8.324,0,0,0-1.224-.334c-.1-.022-.2-.047-.306-.07l-.1,2.133a.706.706,0,0,1-.215.476H32.015A.7.7,0,0,1,31.8,239.719Z" transform="translate(-6.552 -101.682)" fill="#a67c52"/><path d="M65,238.008a.784.784,0,0,0,.392.26,4.266,4.266,0,0,0,.247-.482l.178-.385a1.752,1.752,0,0,1-.893.422A.411.411,0,0,0,65,238.008Z" transform="translate(-32.382 -102.164)" fill="#ffecd6"/><path d="M96.654,209.257a.709.709,0,0,1,.891.461,9.721,9.721,0,0,1,.431,2.233,1.5,1.5,0,0,0,.054.388,1.448,1.448,0,0,0,.445.211,11.547,11.547,0,0,1,2.339,1.152.747.747,0,0,1,.114.092c.578-.735,1.188-1.478,1.851-2.251a.7.7,0,0,1-.123-.232c-.221-.754-.663-1.867-1.091-2.943-.441-1.107-.9-2.253-1.135-3.073a5.628,5.628,0,0,1-.141-.879,4.751,4.751,0,0,0-.141-.859,32.942,32.942,0,0,0-3.361-4.107c-.083-.077-.168-.159-.255-.242a4.667,4.667,0,0,0-1.279-.987.148.148,0,0,0-.19.062.192.192,0,0,0-.007.243c.061.071.39.379.588.562.262.244.4.375.476.458,1.9,2.138,2.453,3.115,2.6,3.6.043.011.081.019.125.032a.709.709,0,0,1-.4,1.362,4.174,4.174,0,0,0-.877-.147,3.951,3.951,0,0,1-1.177-.242,4.028,4.028,0,0,1-.454-.221,2.785,2.785,0,0,0-.341-.166.54.54,0,0,0-.458.5,2.477,2.477,0,0,0,.087.929,21.505,21.505,0,0,1,2.517-.032.71.71,0,0,1-.068,1.418,19.884,19.884,0,0,0-2.8.063h0c.015.184.042.368.061.553a8.041,8.041,0,0,1,1.945-.184c.264,0,.53,0,.792-.018a.709.709,0,1,1,.078,1.417c-.284.016-.572.018-.858.021a6.248,6.248,0,0,0-1.71.162l-.061.018a1.179,1.179,0,0,0-.025.25,7.316,7.316,0,0,0,.119,1.5l1.065.1c-.028-.1-.056-.208-.089-.311A.709.709,0,0,1,96.654,209.257Z" transform="translate(-48.576 -80.974)" fill="#ffecd6"/><path d="M63.852,57.153a.421.421,0,0,0-.049-.023.38.38,0,0,0-.465.173l-2.883,5.6a.384.384,0,0,0,.087.493h0a.424.424,0,0,0,.055.036.379.379,0,0,0,.515-.149l2.883-5.6A.384.384,0,0,0,63.852,57.153Z" transform="translate(-29.937 -4.687)" fill="#fff"/><path d="M61.161,201.649c.027.064.058.126.08.193.063-.042.128-.081.19-.124A2.641,2.641,0,0,0,61.161,201.649Z" transform="translate(-30.348 -82.834)" fill="#ffecd6"/><path d="M66.507,225.954c-.026-.1-.2-.208-.4-.312a27.146,27.146,0,0,1-.583,3.234c-.033.109-.069.22-.106.331-.064.2-.127.387-.167.563a3.072,3.072,0,0,0,.347-.69,24.716,24.716,0,0,0,.847-2.712A1.2,1.2,0,0,0,66.507,225.954Z" transform="translate(-32.561 -95.806)" fill="#ffecd6"/><path d="M58.273,242.543a2.437,2.437,0,0,1-.436-.961.7.7,0,0,1,.03-.38,2.06,2.06,0,0,1-.212-.191,16.947,16.947,0,0,1-4.554,1.532Z" transform="translate(-25.99 -104.116)" fill="#3e3a39"/><path d="M44.054,51.345a.391.391,0,0,0-.248-.338.374.374,0,0,0-.163-.023.38.38,0,0,0-.346.409l.843,7.812a.384.384,0,0,0,.343.361.42.42,0,0,0,.068,0,.38.38,0,0,0,.346-.409Z" transform="translate(-20.689 -1.375)" fill="#fff"/><path d="M20.22,212.62a5.315,5.315,0,0,1-2.967,1.271,2.73,2.73,0,0,1-.484-.042,3.278,3.278,0,0,1-1.214-.507c.011.428.011.862.011,1.289,0,1.471,0,3.485.648,3.7a9.9,9.9,0,0,0,1,.254,9.262,9.262,0,0,1,1.445.4,8.58,8.58,0,0,1,1.376.745,4.107,4.107,0,0,0,1.73.759,13.1,13.1,0,0,0,4.276-.541c1.592-.38,3.568-.825,5.48-1.256s3.877-.874,5.459-1.252a.719.719,0,0,1,.1-.014c.039-.135.081-.266.122-.389.033-.1.066-.2.1-.3.129-.428.212-.955.672-3.882l.03-.192,0-.009c-.055-1.207-.123-4.687-.195-8.7a12.608,12.608,0,0,1-1.511.96.705.705,0,0,1-.333.083.763.763,0,0,1-.085-.011,1.669,1.669,0,0,1-.387.039,15.86,15.86,0,0,0-2.936.205l-.262.052a6.438,6.438,0,0,1-1.039.15l-.139,0a6.205,6.205,0,0,1-2.553-.7,2.977,2.977,0,0,1-.557.155,32.947,32.947,0,0,0-3.769,3.752A32.37,32.37,0,0,1,20.22,212.62Z" transform="translate(-5.69 -84.084)" fill="#fff"/><path d="M137.149,201.072a.709.709,0,0,1-.02,1,8.029,8.029,0,0,0-1.705,3.335l-4.229,12.848a.708.708,0,0,1-.065.126H139.6a.705.705,0,0,1-.062-.555c.085-.278.181-.6.283-.938.463-1.544,1.039-3.465,1.55-4.656.061-.144.124-.287.188-.431a8.025,8.025,0,0,0,.691-2.016,8.2,8.2,0,0,0-.5-3.361.709.709,0,1,1,1.361-.4,7.158,7.158,0,0,1-.25,6.35c-.062.139-.123.278-.183.417-.479,1.117-1.066,3.075-1.494,4.5-.1.345-.2.667-.286.946a.681.681,0,0,1-.069.14h18.484a.7.7,0,0,1-.08-.2c-.467-2.211-.8-4.61-1.126-6.931-.321-2.3-.653-4.672-1.109-6.835a19.411,19.411,0,0,0-1.452-4.8,6.1,6.1,0,0,0-3.3-3.116.707.707,0,0,1-.277-.171,27.906,27.906,0,0,0-10.341,1.836c-.164.064-.665.257-.729.473a.71.71,0,0,1-.679.508.711.711,0,0,1-.446-.158c-.726.546-1.463,1.077-2.213,1.587a.7.7,0,0,1-.75.027c-.066.082-.13.166-.192.254A.7.7,0,0,1,137.149,201.072Z" transform="translate(-68.177 -79.956)" fill="#8fc31f"/><path d="M141.886,159.946a2.12,2.12,0,0,0-.455.683,2.1,2.1,0,0,0,.012.709c.056.468.168,1.106.482,1.256a1.586,1.586,0,0,0,.437.086q.509.054,1.022.094a2.61,2.61,0,0,1,1.108.264,2.385,2.385,0,0,1,.834.853c.071.11.131.228.2.342a23.1,23.1,0,0,0,.206-2.777c.082-2.723.066-4.763.01-7.109a13.672,13.672,0,0,0-.261,1.554,24.613,24.613,0,0,0,.01,4.883.709.709,0,0,1-.543.745.671.671,0,0,1-.164.02.709.709,0,0,1-.656-.44,26.59,26.59,0,0,1-2.042-11.793,7.488,7.488,0,0,0-1.056,2.76c-.012.08-.022.162-.032.243a.707.707,0,0,1,.352.386c.27.713.424,1.214.13,1.669a.71.71,0,0,1-.6.324.726.726,0,0,1-.129-.011.708.708,0,0,1-.378-.2,4.33,4.33,0,0,1-.709.894c-.066.063-.134.125-.2.186a2.632,2.632,0,0,0-.343.348.378.378,0,0,0-.087.2,1.621,1.621,0,0,0,.236.238,1.827,1.827,0,0,1,.669,1c0,.024.009.05.012.076l1.41-.318a1.093,1.093,0,0,1,.738.053,1.029,1.029,0,0,1,.546.74,2.19,2.19,0,0,1-.594,1.849C142,159.816,141.941,159.88,141.886,159.946Z" transform="translate(-72.45 -54.541)" fill="#ffecd6"/><path d="M164.675,186.257a12.99,12.99,0,0,0-3.046,1.1.71.71,0,0,1-.531.045q-1.637,1.692-3.409,3.251a29.331,29.331,0,0,1,7.748-1.19c-.146-.283-.31-.548-.478-.819a2.728,2.728,0,0,1-.427-.975,2.8,2.8,0,0,1,.084-1.114C164.637,186.45,164.66,186.348,164.675,186.257Z" transform="translate(-82.536 -74.513)" fill="#fff"/><path d="M209.247,133.558a.358.358,0,0,0-.076.008l-6.03,1.059a.376.376,0,0,0-.277.445.392.392,0,0,0,.019.063h0a.377.377,0,0,0,.429.231l6.029-1.059a.379.379,0,0,0-.094-.747Z" transform="translate(-106.956 -46.02)" fill="#fff"/><path d="M47.276,109.031a3.739,3.739,0,0,1-.833-.612.708.708,0,0,1-1.264-.008A12.419,12.419,0,0,0,43.7,106.12a.709.709,0,0,1,0-.9,12.356,12.356,0,0,0-1.557-.71,5.458,5.458,0,0,1-.757,2.163,1.272,1.272,0,0,1-.761.618,1.211,1.211,0,0,1-1.219-.458,4.258,4.258,0,0,1-.588-.808c-.2.208-.409.421-.632.642a13.333,13.333,0,0,0-2.728,3.5.708.708,0,0,1-.632.387.748.748,0,0,1-.131-.015,5.867,5.867,0,0,1-.408.9l.034.014a.709.709,0,0,1-.557,1.3c-.259-.11-.691-.3-.924-.209-.214.079-.366.465-.346.881a3.515,3.515,0,0,0,.746,1.844,11.874,11.874,0,0,0,1.6,1.642.709.709,0,0,1-.95,1.054q-.2-.183-.406-.369c-.119,1.5-.3,3-.547,4.48a8.071,8.071,0,0,0,4.457,1.856.764.764,0,0,1,.523.309.92.92,0,0,1,.063.1.7.7,0,0,1,.17.153c.311.4.752.9,1.186,1.383.1-1.1.249-2.421.381-3.348a7.3,7.3,0,0,1-.837-.239,21.844,21.844,0,0,1-3.479-1.715.709.709,0,0,1,.741-1.21,20.563,20.563,0,0,0,3.214,1.588,4.482,4.482,0,0,0,2.669.193,4.946,4.946,0,0,0,2.175-1.48,9.674,9.674,0,0,0,2.047-2.885c.174-.528.71-5.1.912-6.821l.065-.553c0-.01.005-.019.006-.029A.716.716,0,0,1,47.276,109.031Zm-8.605,3.78a.979.979,0,0,1-.132-.577.844.844,0,0,1,.5-.729.592.592,0,0,1,.073-.024.709.709,0,0,1,.994.7l.007.085a.873.873,0,0,1-.266.736.808.808,0,0,1-.521.194.607.607,0,0,1-.092-.006A.79.79,0,0,1,38.671,112.811Zm4.742,5.176-.021,0a4.465,4.465,0,0,1-2.35,1.406.472.472,0,0,1-.855.19,5.2,5.2,0,0,1-1.063-2.529.481.481,0,0,1,.17-.43c.216-.176.414-.109.714-.008a7.054,7.054,0,0,0,3.258.435.473.473,0,1,1,.146.934Zm.328-1.777-.393.007H43.34a.473.473,0,0,1-.008-.946l.393-.007a.473.473,0,0,1,.016.946Zm1.734-4.112a.806.806,0,0,1-.522.2.637.637,0,0,1-.094-.006.792.792,0,0,1-.562-.378.966.966,0,0,1-.132-.58.841.841,0,0,1,.5-.727.6.6,0,0,1,.073-.024.709.709,0,0,1,.994.7l.007.085A.885.885,0,0,1,45.475,112.1Z" transform="translate(-14.851 -30.315)" fill="#ffecd6"/><path d="M49.323,133.184a5.3,5.3,0,0,0,.74,1.367.47.47,0,0,1,.075.347,4.465,4.465,0,0,0,2.35-1.406A7.455,7.455,0,0,1,49.323,133.184Z" transform="translate(-23.947 -45.818)" fill="#fff"/><path d="M42.162,95.722a11.7,11.7,0,0,0-2.968-3.468,10.164,10.164,0,0,0-5.8-2.609l-.048.528a.709.709,0,0,1-.7.645,9.353,9.353,0,0,0-6.415,2.718,10.057,10.057,0,0,0-2.9,6.556,1.209,1.209,0,0,0,.029.43,1.221,1.221,0,0,0,.18.216c.081.086.162.174.234.267a9.755,9.755,0,0,1,.916,3.027c.066.3.118.538.153.666.339,1.262,1.6,3.458,2.577,3.984a.735.735,0,0,1,.147-.086c-.145-.164-.285-.334-.418-.513a4.845,4.845,0,0,1-1.024-2.622,2.241,2.241,0,0,1,1.271-2.28,2.621,2.621,0,0,1,1.939.221,5.866,5.866,0,0,0,.408-.9.7.7,0,0,1-.5-1.017,14.737,14.737,0,0,1,2.991-3.858c.32-.318.6-.593.815-.848a1.086,1.086,0,0,1,1.417-.393,1.135,1.135,0,0,1,.487.6,2.887,2.887,0,0,0,.4.683,4.034,4.034,0,0,0,.447-1.475.71.71,0,0,1,1.412.144c-.005.046-.016.091-.022.137a12.356,12.356,0,0,1,1.557.71.706.706,0,0,1,1.1.005,13.829,13.829,0,0,1,1.645,2.554.708.708,0,0,1-.006.64,3.74,3.74,0,0,0,.833.612.675.675,0,0,1,.113-.208C43.426,99.565,42.859,97.043,42.162,95.722Z" transform="translate(-9.892 -22.278)" fill="#a67c52"/><path d="M159.7,158.857a.753.753,0,0,0,.076.2c.683.038,1.272-.3,2.228-1.691a11.139,11.139,0,0,0,1.327-3.112,17.872,17.872,0,0,0,.6-4.369c.047-.89.1-1.809.228-2.8a16.967,16.967,0,0,0-.041-6.046,10.213,10.213,0,0,0-8.9-7.6,7.267,7.267,0,0,0-4.94,1.294c-.122.093-.241.192-.36.289a7.489,7.489,0,0,1-.785.591,7.565,7.565,0,0,1-.781.412c-.182.087-.365.174-.54.275a4.453,4.453,0,0,0-1.642,1.778c.135-.147.275-.292.418-.436a.707.707,0,0,1,.624-.34h.034a.712.712,0,0,1,.181.034l.011.005a.7.7,0,0,1,.289.169.709.709,0,0,1,.1.865c-.743,2.286-.685,5.656.071,9.09.01-.107.021-.215.033-.323a9.651,9.651,0,0,1,1.6-4.756.709.709,0,0,1,.672-.561h.021a.71.71,0,0,1,.709.689l.012.427c.1,3.593.178,6.19.065,9.956a21.048,21.048,0,0,1-.305,3.465,18.287,18.287,0,0,1-1.515,4.26q-.636,1.339-1.368,2.636A57.5,57.5,0,0,0,154,157.7c.906-.945,2.146-2.248,3.819-2.181a.708.708,0,0,1,.683.713,1.148,1.148,0,0,1,.65.033,1.089,1.089,0,0,1,.643.716,2.411,2.411,0,0,1-.027,1.322A1.7,1.7,0,0,0,159.7,158.857Z" transform="translate(-76.307 -45.947)" fill="#7a7473"/><path d="M58.853,117.594a.7.7,0,0,0-.388.053.591.591,0,0,0-.073.024.834.834,0,0,0-.5.729.974.974,0,0,0,.132.577.791.791,0,0,0,.56.378.651.651,0,0,0,.1.007.806.806,0,0,0,.522-.2.869.869,0,0,0,.265-.738l-.007-.083A.709.709,0,0,0,58.853,117.594Z" transform="translate(-28.579 -37.385)"/><path d="M46.432,121.327a.808.808,0,0,0,.519-.192.867.867,0,0,0,.269-.735l-.007-.087a.71.71,0,0,0-.994-.7.62.62,0,0,0-.073.024.84.84,0,0,0-.5.729.975.975,0,0,0,.132.577.791.791,0,0,0,.565.378A.674.674,0,0,0,46.432,121.327Z" transform="translate(-21.957 -38.448)"/><path d="M55.544,128.875h.008l.393-.007a.473.473,0,0,0-.008-.946h-.008l-.393.007a.473.473,0,0,0,.008.946Z" transform="translate(-27.055 -42.973)"/><path d="M47.088,130.756a.483.483,0,0,0-.171.43,5.2,5.2,0,0,0,1.064,2.529.473.473,0,0,0,.779-.537,5.31,5.31,0,0,1-.74-1.367,7.434,7.434,0,0,0,3.186.306.473.473,0,1,0-.145-.934,7.045,7.045,0,0,1-3.259-.435C47.5,130.647,47.3,130.579,47.088,130.756Z" transform="translate(-22.645 -44.447)"/><path d="M162.116,175.378c-.324-2.321-.659-4.722-1.126-6.934a20.457,20.457,0,0,0-1.575-5.151,7.353,7.353,0,0,0-4.1-3.813,6.3,6.3,0,0,0-.3-.755,4.737,4.737,0,0,0,2.638-2.228,12.383,12.383,0,0,0,1.515-3.507,18.994,18.994,0,0,0,.657-4.7c.045-.862.092-1.753.217-2.683a18.235,18.235,0,0,0-.066-6.558,11.527,11.527,0,0,0-10.179-8.69,8.666,8.666,0,0,0-5.9,1.58c-.137.1-.27.214-.4.324a4.573,4.573,0,0,1-1.276.818c-.215.1-.43.207-.638.326-2.138,1.236-2.948,3.727-3.5,6.234a.707.707,0,0,0,.2.665,8.011,8.011,0,0,0-.318,1.291c-.023.151-.042.3-.06.455a5.418,5.418,0,0,1-.156.886,2.707,2.707,0,0,1-.728,1.152c-.055.053-.112.1-.169.156a3.809,3.809,0,0,0-.532.556,1.629,1.629,0,0,0-.3,1.467,2,2,0,0,0,.639.865,1.916,1.916,0,0,1,.226.222.825.825,0,0,1,.008.124,1.158,1.158,0,0,0,.508,1.038,1.194,1.194,0,0,0,.9.1l1.163-.262a2.273,2.273,0,0,1-.173.239l-.147.176a2.605,2.605,0,0,0-.767,2.478,2.833,2.833,0,0,0,1.279,2.366,2.671,2.671,0,0,0,.9.216c.355.039.71.072,1.072.1a1.543,1.543,0,0,1,.527.093,1.179,1.179,0,0,1,.323.377,7.161,7.161,0,0,1,.64,1.25.7.7,0,0,0,.26.326,21.729,21.729,0,0,1-.987,2.38,41.189,41.189,0,0,1-3.2,5.559.709.709,0,0,0,.985.987c.75-.51,1.487-1.042,2.214-1.587a.711.711,0,0,0,.445.158.711.711,0,0,0,.68-.508c.064-.216.565-.409.729-.473a27.919,27.919,0,0,1,10.341-1.836.7.7,0,0,0,.277.171,6.1,6.1,0,0,1,3.3,3.116,19.393,19.393,0,0,1,1.452,4.8c.457,2.164.788,4.54,1.11,6.838.324,2.32.659,4.718,1.125,6.929a.709.709,0,1,0,1.388-.293C162.768,180.048,162.436,177.674,162.116,175.378Zm-19.293-22.6a2.612,2.612,0,0,0-1.109-.264q-.511-.039-1.021-.094a1.588,1.588,0,0,1-.438-.086c-.313-.15-.424-.788-.481-1.257a2.061,2.061,0,0,1-.012-.709,2.1,2.1,0,0,1,.454-.681c.055-.066.111-.131.165-.2a2.193,2.193,0,0,0,.594-1.852,1.031,1.031,0,0,0-.546-.737,1.106,1.106,0,0,0-.739-.053l-1.41.318c0-.026-.007-.051-.012-.076a1.826,1.826,0,0,0-.668-1,1.617,1.617,0,0,1-.236-.238.382.382,0,0,1,.086-.2,2.662,2.662,0,0,1,.343-.348c.068-.062.136-.123.2-.186a4.343,4.343,0,0,0,.709-.894.709.709,0,0,0,.377.2.727.727,0,0,0,.13.011.709.709,0,0,0,.595-.322c.3-.456.149-.935-.128-1.67a.706.706,0,0,0-.353-.386c.01-.081.02-.162.032-.243a7.5,7.5,0,0,1,1.056-2.76,26.6,26.6,0,0,0,2.042,11.793.71.71,0,0,0,.656.44.677.677,0,0,0,.165-.02.709.709,0,0,0,.543-.745,24.615,24.615,0,0,1-.009-4.883,13.675,13.675,0,0,1,.261-1.554c.056,2.345.072,4.386-.01,7.109a23.166,23.166,0,0,1-.206,2.777c-.066-.114-.125-.232-.2-.342A2.4,2.4,0,0,0,142.823,152.774Zm.835,6.186a18.277,18.277,0,0,0,1.515-4.26,21.112,21.112,0,0,0,.3-3.465c.113-3.767.039-6.364-.065-9.958l-.012-.426a.709.709,0,0,0-.708-.689h-.021a.709.709,0,0,0-.672.561,9.651,9.651,0,0,0-1.6,4.756c-.012.108-.023.216-.033.323-.756-3.434-.814-6.8-.071-9.09a.709.709,0,0,0-.1-.865.692.692,0,0,0-.289-.17l-.011-.005a.719.719,0,0,0-.181-.034h-.034a.706.706,0,0,0-.624.34c-.144.144-.284.289-.419.436a4.453,4.453,0,0,1,1.642-1.778c.175-.1.358-.188.54-.275a5.857,5.857,0,0,0,1.566-1c.119-.1.238-.2.361-.289a7.265,7.265,0,0,1,4.94-1.294,10.211,10.211,0,0,1,8.9,7.6,16.967,16.967,0,0,1,.042,6.046c-.133.987-.181,1.908-.228,2.8a17.884,17.884,0,0,1-.6,4.367,11.155,11.155,0,0,1-1.327,3.112c-.955,1.4-1.545,1.729-2.227,1.691a.755.755,0,0,1-.077-.2,1.7,1.7,0,0,1,.07-.559,2.411,2.411,0,0,0,.027-1.322,1.09,1.09,0,0,0-.643-.716,1.15,1.15,0,0,0-.651-.033.708.708,0,0,0-.684-.713c-1.668-.068-2.912,1.236-3.819,2.181a57.551,57.551,0,0,1-6.185,5.571Q143.02,160.3,143.657,158.96Zm2.275,1.457q1.769-1.558,3.409-3.251a.708.708,0,0,0,.531-.045,12.985,12.985,0,0,1,3.046-1.1c-.015.091-.037.193-.061.3a2.79,2.79,0,0,0-.084,1.113,2.719,2.719,0,0,0,.427.977c.169.272.333.536.478.819A29.334,29.334,0,0,0,145.932,160.417Z" transform="translate(-70.78 -44.277)"/><path d="M114.859,200.4a9.237,9.237,0,0,0-2.069,3.915L109.078,215.6c-.42-.514-.926-1.1-1.451-1.7a32.4,32.4,0,0,1-2.086-2.539,1.19,1.19,0,0,0-.4-.4,1.143,1.143,0,0,0-.57-.135l-.041-.077-1.079-2.1a.71.71,0,0,0-1.161-.148c-.051.058-.1.112-.148.169-.252-.738-.6-1.624-.949-2.49-.429-1.078-.872-2.192-1.093-2.948a5.32,5.32,0,0,1-.093-.639,4.358,4.358,0,0,0-.274-1.316,31.925,31.925,0,0,0-3.672-4.53l-.242-.23a5.6,5.6,0,0,0-1.753-1.286,1.573,1.573,0,0,0-1.828.532,1.609,1.609,0,0,0-.012,1.948,7.762,7.762,0,0,0,.756.749c.173.161.33.305.384.364a27.1,27.1,0,0,1,1.894,2.35c-.015-.006-.028-.008-.044-.014a2.67,2.67,0,0,1-.292-.147,1.987,1.987,0,0,0-1.064-.337,1.953,1.953,0,0,0-1.825,1.821,4,4,0,0,0,.131,1.375,1.072,1.072,0,0,0-.307.385,1.365,1.365,0,0,0-.1.7c.041.564.1,1.139.184,1.709a.686.686,0,0,0,.064.191c-.014.121-.018.226-.02.3a8.732,8.732,0,0,0,.168,1.922,1.283,1.283,0,0,0,.229.556,1.33,1.33,0,0,0,.984.465l1.485.143c.006.062.014.122.019.184a2.076,2.076,0,0,0,.262.994,2.122,2.122,0,0,0,1.193.805,10.026,10.026,0,0,1,2.026,1c.014.009.03.012.045.02a1.609,1.609,0,0,0-.238.908,1.934,1.934,0,0,0,.131.543,6.582,6.582,0,0,1,.352,1.279,3.124,3.124,0,0,1-.115.325,2.45,2.45,0,0,0-.228,1.075,2.967,2.967,0,0,0,.4,1.009c.065.129.123.242.139.279a.709.709,0,1,0,1.344-.455,4.19,4.19,0,0,0-.214-.461c-.073-.144-.2-.394-.252-.522a1.944,1.944,0,0,1,.13-.408,3.143,3.143,0,0,0,.217-.734.715.715,0,0,0,0-.208,7.968,7.968,0,0,0-.439-1.663c-.017-.045-.046-.128-.05-.147a1.113,1.113,0,0,1,.211-.341c.872-1.143,1.8-2.274,2.875-3.507l.577,1.124a16.43,16.43,0,0,0-2.418,2.854.709.709,0,1,0,1.181.785,15.028,15.028,0,0,1,2.355-2.744c.021,0,.046.007.065.007.457.662,1.27,1.6,2.128,2.581.775.89,1.569,1.8,1.99,2.4a.707.707,0,0,0,.466.831.721.721,0,0,0,.222.036.71.71,0,0,0,.674-.488l4.229-12.847a8.028,8.028,0,0,1,1.705-3.336.71.71,0,0,0-.983-1.023ZM99.242,212.126a.728.728,0,0,0-.114-.092,11.539,11.539,0,0,0-2.339-1.152,1.44,1.44,0,0,1-.444-.212,1.518,1.518,0,0,1-.054-.387,9.706,9.706,0,0,0-.431-2.233.709.709,0,0,0-1.352.429c.033.1.061.207.089.311l-1.065-.1a7.357,7.357,0,0,1-.118-1.5,1.184,1.184,0,0,1,.025-.251l.061-.018a6.245,6.245,0,0,1,1.71-.162c.287,0,.574-.005.859-.021a.709.709,0,0,0,.669-.747.7.7,0,0,0-.747-.669c-.262.014-.528.017-.793.018a8.04,8.04,0,0,0-1.945.184c-.019-.184-.046-.37-.061-.553h0a19.811,19.811,0,0,1,2.8-.063.71.71,0,1,0,.068-1.418,21.3,21.3,0,0,0-2.517.032,2.466,2.466,0,0,1-.087-.929.54.54,0,0,1,.458-.5,2.757,2.757,0,0,1,.341.166,4.157,4.157,0,0,0,.454.221,3.952,3.952,0,0,0,1.177.242,4.179,4.179,0,0,1,.877.147.709.709,0,0,0,.4-1.362c-.045-.013-.083-.021-.126-.032-.152-.483-.7-1.46-2.6-3.6-.074-.083-.214-.215-.478-.46-.2-.183-.526-.49-.586-.56a.192.192,0,0,1,.008-.243.148.148,0,0,1,.19-.062,4.665,4.665,0,0,1,1.278.986l.256.243a32.933,32.933,0,0,1,3.361,4.107,4.706,4.706,0,0,1,.142.859,5.622,5.622,0,0,0,.141.879c.24.82.7,1.966,1.136,3.074.427,1.075.87,2.187,1.09,2.941a.7.7,0,0,0,.123.232C100.431,210.648,99.821,211.391,99.242,212.126Z" transform="translate(-46.891 -79.307)"/><path d="M152.1,216.365a.71.71,0,0,0-.48.881,8.207,8.207,0,0,1,.5,3.36,8.064,8.064,0,0,1-.693,2.018c-.063.143-.126.286-.187.429-.512,1.192-1.087,3.112-1.55,4.656-.1.343-.2.661-.283.938a.709.709,0,1,0,1.356.415c.085-.28.182-.6.286-.946.428-1.429,1.016-3.388,1.495-4.5q.09-.208.182-.416a7.16,7.16,0,0,0,.251-6.352A.71.71,0,0,0,152.1,216.365Z" transform="translate(-78.042 -90.775)"/><path d="M36.423,109.392a.708.708,0,0,0,.955-.309,13.327,13.327,0,0,1,2.728-3.5c.222-.221.437-.435.632-.642a4.235,4.235,0,0,0,.589.808,1.21,1.21,0,0,0,1.218.458,1.269,1.269,0,0,0,.761-.618,5.468,5.468,0,0,0,.779-2.3.709.709,0,1,0-1.411-.144,4.062,4.062,0,0,1-.447,1.475,2.866,2.866,0,0,1-.4-.684,1.135,1.135,0,0,0-.487-.6,1.086,1.086,0,0,0-1.417.393c-.218.256-.495.531-.814.848a14.753,14.753,0,0,0-2.991,3.858A.71.71,0,0,0,36.423,109.392Z" transform="translate(-16.764 -29.235)"/><path d="M58.179,108.943a.709.709,0,1,0,1.27-.632,13.805,13.805,0,0,0-1.645-2.554.709.709,0,1,0-1.1.895A12.419,12.419,0,0,1,58.179,108.943Z" transform="translate(-27.852 -30.848)"/><path d="M35.951,120.558a6.705,6.705,0,0,0-1.619-2.8,6.612,6.612,0,0,0-3.356-1.322,5.821,5.821,0,0,1-2.621-.926.7.7,0,0,0-.322-.145l-.088-.355a1.532,1.532,0,0,0-.327-.693,1.451,1.451,0,0,0-.48-.341,5.115,5.115,0,0,0-.941-.337c.03-.237.06-.458.089-.661a4.866,4.866,0,0,0,1.289-.178,6.292,6.292,0,0,0,2.818-1.873,11.305,11.305,0,0,0,2.36-3.408c.183-.55.509-3.133.977-7.121l.063-.535a.7.7,0,0,0,0-.076c1.288-1.866.57-4.816-.268-6.4a13.081,13.081,0,0,0-3.315-3.9c-2.491-2.074-5.053-3.086-7.409-2.924a.709.709,0,0,0-.658.643l-.05.544a10.821,10.821,0,0,0-6.756,3.1,11.5,11.5,0,0,0-3.315,7.49,2.228,2.228,0,0,0,.17,1.123,2.261,2.261,0,0,0,.423.568c.05.052.1.1.132.146a17.067,17.067,0,0,1,.665,2.479c.072.326.131.592.169.731.388,1.443,1.906,4.347,3.549,5,.014.006.028.007.042.012-.1,1.064-.229,2.129-.391,3.183a.711.711,0,0,0-.35.2,9.146,9.146,0,0,0-1.214,2.354,13.65,13.65,0,0,1-1.047,2.155.708.708,0,0,0,.026.918,23.865,23.865,0,0,1-3.2,2.456c-2.4,1.673-4.013,2.841-4.495,3.8a16.47,16.47,0,0,0-.79,4.44,97.487,97.487,0,0,1-.491,11.322,31.078,31.078,0,0,0-.163,4.456,4.82,4.82,0,0,0,.45,2.006,5.386,5.386,0,0,0,1.258,1.471l1.607,1.46a.7.7,0,0,0,0,.082,23.717,23.717,0,0,1,.084,2.457c0,2.009,0,3.92,1.056,4.745,0,.005,0,.01,0,.016l-.117,2.577a.71.71,0,0,0,.677.741H10.1a.709.709,0,0,0,.708-.677l.1-2.133c.1.023.2.048.306.07a8.31,8.31,0,0,1,1.224.334,7.42,7.42,0,0,1,1.152.631,5.314,5.314,0,0,0,2.342.968c.269.027.537.039.8.039a17.085,17.085,0,0,0,3.942-.612c1.582-.377,3.554-.822,5.461-1.252,1.767-.4,3.585-.808,5.107-1.168a2.381,2.381,0,0,0-.128.757,16.535,16.535,0,0,1-5.288,1.634.71.71,0,0,0,.117,1.409.8.8,0,0,0,.118-.01,17.922,17.922,0,0,0,5.6-1.723,2.057,2.057,0,0,0,.212.191.7.7,0,0,0-.03.38,2.453,2.453,0,0,0,.847,1.407.711.711,0,0,0,.758.09,3.464,3.464,0,0,0,1.7-1.709,2.559,2.559,0,0,0-.064-2.211l.3-.647a1.6,1.6,0,0,0,.186-.926,1.567,1.567,0,0,0-.616-.955c-.036-.031-.081-.071-.119-.107.12-.383.226-.769.328-1.156a.706.706,0,0,0,.13-.175,50.6,50.6,0,0,0,3.009-8.064c.618-1.988,1.256-4.044,2.019-5.863a.623.623,0,0,0,.023-.062c.892-2.847.044-5.14-.638-6.982Zm-8.671-2.32-.465-.24c.09-.2.176-.41.253-.619ZM26.2,115.125a9.628,9.628,0,0,1-.306,1.3c.039-.429.085-.9.136-1.364C26.088,115.082,26.144,115.1,26.2,115.125Zm-11.249-12.1c-.034-.128-.087-.37-.153-.668a9.751,9.751,0,0,0-.916-3.024,3.389,3.389,0,0,0-.234-.267,1.232,1.232,0,0,1-.179-.216,1.2,1.2,0,0,1-.03-.43,10.061,10.061,0,0,1,2.9-6.556,9.355,9.355,0,0,1,6.415-2.718.71.71,0,0,0,.7-.645l.048-.528a10.165,10.165,0,0,1,5.8,2.609,11.706,11.706,0,0,1,2.968,3.468c.7,1.321,1.264,3.844.268,5.064a.7.7,0,0,0-.148.559c0,.01-.006.019-.007.029l-.062.536c-.2,1.725-.74,6.309-.915,6.838a9.685,9.685,0,0,1-2.047,2.885,4.952,4.952,0,0,1-2.175,1.48,4.489,4.489,0,0,1-2.669-.193,20.628,20.628,0,0,1-3.214-1.588.709.709,0,1,0-.741,1.21,21.863,21.863,0,0,0,3.479,1.715,7.345,7.345,0,0,0,.837.239c-.132.926-.279,2.248-.381,3.348-.435-.487-.875-.982-1.186-1.383a.709.709,0,0,0-.17-.153.95.95,0,0,0-.062-.1.764.764,0,0,0-.524-.31,8.071,8.071,0,0,1-4.457-1.856c.244-1.479.427-2.983.547-4.48.135.124.271.248.406.369A.709.709,0,1,0,20,107.2a11.92,11.92,0,0,1-1.6-1.642,3.511,3.511,0,0,1-.746-1.844c-.02-.415.131-.8.345-.881a1.649,1.649,0,0,1,.924.209.709.709,0,0,0,.557-1.3,2.664,2.664,0,0,0-1.973-.235,2.241,2.241,0,0,0-1.271,2.28,4.849,4.849,0,0,0,1.025,2.622c.133.178.273.349.418.512a.707.707,0,0,0-.147.087C16.546,106.481,15.291,104.286,14.951,103.024Zm1.57,11.67c.169-.393.387-.9.577-1.3a9.265,9.265,0,0,0,4.9,2.191c.008.028.015.055.021.079l-.628,3.886a19.882,19.882,0,0,1-5.729-2.971C15.934,116.065,16.222,115.393,16.521,114.693Zm9.306,40.524c-1.911.431-3.887.876-5.479,1.256a13.142,13.142,0,0,1-4.276.541,4.107,4.107,0,0,1-1.73-.759,8.6,8.6,0,0,0-1.376-.745,9.269,9.269,0,0,0-1.446-.4,10.007,10.007,0,0,1-1-.254c-.646-.218-.647-2.231-.648-3.7,0-.427,0-.861-.011-1.289a3.278,3.278,0,0,0,1.213.507,2.779,2.779,0,0,0,.492.043,5.264,5.264,0,0,0,2.96-1.272,32.338,32.338,0,0,0,4.018-3.971,33.03,33.03,0,0,1,3.771-3.753,2.955,2.955,0,0,0,.556-.154,6.207,6.207,0,0,0,2.553.7l.139,0a6.444,6.444,0,0,0,1.039-.15l.262-.052a15.855,15.855,0,0,1,2.936-.205,1.673,1.673,0,0,0,.388-.039.737.737,0,0,0,.084.011.7.7,0,0,0,.333-.084,12.548,12.548,0,0,0,1.51-.96c.072,4.013.14,7.492.2,8.7l0,.009-.026.164c-.463,2.95-.547,3.481-.676,3.91-.03.1-.062.2-.1.3-.041.123-.083.254-.122.39a.659.659,0,0,0-.1.014C29.705,154.342,27.734,154.787,25.827,155.217Zm-2.745-21.671A3.541,3.541,0,0,0,20.7,134.9a.709.709,0,1,0,1.125.864,2.08,2.08,0,0,1,.226-.238.781.781,0,0,1,.64.307l.049.062a1.572,1.572,0,0,0,.443.418,1.047,1.047,0,0,0,.666.1,1.308,1.308,0,0,1,.541.033c.169.059.389.148.622.25-.053,0-.1-.008-.157-.006a3.994,3.994,0,0,0-2.125.615,3.94,3.94,0,0,1-1.159-.8.709.709,0,0,0-1,1.006,5.35,5.35,0,0,0,2.023,1.259.713.713,0,0,0,.664-.109,2.55,2.55,0,0,1,1.611-.557,1.321,1.321,0,0,1,.734.161.324.324,0,0,1,.157.259.566.566,0,0,1-.359.235,4.056,4.056,0,0,1-.483.1,5.376,5.376,0,0,0-.632.136,5.43,5.43,0,0,0-1.2.568,3.022,3.022,0,0,1-1.1.473,2.383,2.383,0,0,1-1.6-.674c-.127-.1-.253-.2-.379-.306a6.141,6.141,0,0,0-1.717-1.109.71.71,0,0,0-.914.414.7.7,0,0,0-.008.467c-.058-.033-.121-.059-.179-.093-.129-.075-.436-.3-.734-.525l-.064-.048a1.906,1.906,0,0,0,.515-.974c.045-.166.1-.355.2-.624a4.46,4.46,0,0,1,2.24-2.761.723.723,0,0,0,.2-.119l.246-.209a3.243,3.243,0,0,1,1.3-.825,3.1,3.1,0,0,1,.772,0c.126.009.253.018.378.023a8.923,8.923,0,0,0,2.926-.476,1.932,1.932,0,0,1,.06.631.814.814,0,0,1-.116.414.949.949,0,0,1-.668.264c-.185.017-.369.012-.554.011A6.229,6.229,0,0,0,23.082,133.546Zm2.739,6.572a1.843,1.843,0,0,0,1.307-1.2c.01-.034.012-.069.02-.1a4,4,0,0,1,1.525.315,1.635,1.635,0,0,1,.891,1.007,16.212,16.212,0,0,0-2.958.229l-.282.056a5.284,5.284,0,0,1-.811.123,3.046,3.046,0,0,1-.936-.14c.039-.015.078-.031.117-.043a4.306,4.306,0,0,1,.469-.1A5.173,5.173,0,0,0,25.821,140.118Zm5.073-.506c-.022-.067-.053-.129-.08-.193a2.757,2.757,0,0,1,.27.069C31.021,139.531,30.956,139.57,30.893,139.612Zm2.364,16.614a4.451,4.451,0,0,1-.247.483.782.782,0,0,1-.392-.261.4.4,0,0,1-.077-.185,1.754,1.754,0,0,0,.893-.421Zm.631-5.061a24.62,24.62,0,0,1-.847,2.712,3.051,3.051,0,0,1-.347.69c.04-.176.1-.367.167-.564.037-.111.073-.221.106-.33a27.147,27.147,0,0,0,.583-3.234c.2.107.37.213.4.312A1.243,1.243,0,0,1,33.888,151.166ZM39,137.24c-.783,1.874-1.428,3.95-2.052,5.959a64.411,64.411,0,0,1-2.212,6.328,4.06,4.06,0,0,0-.735-.449c-.1-.051-.194-.1-.282-.149-.064-1.629-.147-6.308-.228-10.849-.091-5.139-.177-9.993-.245-11.234-.111-2.057-.127-4.021.882-5.423a.709.709,0,0,0-1.152-.828c-1.278,1.778-1.272,4.008-1.147,6.328.066,1.216.156,6.282.243,11.183l.005.265a4.1,4.1,0,0,0-2.039-.43.718.718,0,0,0-.2-.115,8.346,8.346,0,0,1-2.463-1.44,11.025,11.025,0,0,0-2.519-1.276,2.471,2.471,0,0,0-1.024-.116l-.045-.056h.089c.219,0,.448,0,.688-.016a2.245,2.245,0,0,0,1.693-.841,2.166,2.166,0,0,0,.386-1.152,3.369,3.369,0,0,0-.471-1.961.71.71,0,0,0-.819-.311,9.519,9.519,0,0,1-3.056.6c-.109,0-.219-.012-.329-.021a4.279,4.279,0,0,0-1.147.026,4.36,4.36,0,0,0-1.954,1.139l-.148.126a5.737,5.737,0,0,0-2.952,3.553l-.016.045c-.008-.921-.05-1.93-.09-2.864-.027-.62-.051-1.2-.062-1.685a10.453,10.453,0,0,0-.211-2.123,9.561,9.561,0,0,0-2.3-3.533c-.344-.4-.668-.769-.906-1.087a.709.709,0,1,0-1.137.847c.27.362.611.755.973,1.17a8.983,8.983,0,0,1,1.987,2.921,9.224,9.224,0,0,1,.175,1.836c.011.492.036,1.082.063,1.712.052,1.229.108,2.588.083,3.661a.709.709,0,0,0-.565.326,6.4,6.4,0,0,1-.762.952l-.763-.186a1.156,1.156,0,0,0-1.291.43,23.9,23.9,0,0,0-2.174,2.9.709.709,0,1,0,1.2.761,22.36,22.36,0,0,1,1.784-2.421.706.706,0,0,0,.218.443l.215.2a8.894,8.894,0,0,0,4.7,2.677.754.754,0,0,0,.115.009.709.709,0,0,0,.113-1.41,6.97,6.97,0,0,1-3.577-1.955,8.727,8.727,0,0,0,1.038-1.1c.331.221.759.538,1.034.743.372.277.667.5.863.61a19.237,19.237,0,0,0,3.592,1.54c-.8.782-1.67,1.729-2.566,2.71a32.411,32.411,0,0,1-3.806,3.781,3.518,3.518,0,0,1-2.369.979,3.42,3.42,0,0,1-1.529-.981L7.719,146.1a4.235,4.235,0,0,1-.952-1.073,3.6,3.6,0,0,1-.293-1.43,29.965,29.965,0,0,1,.159-4.254,98.448,98.448,0,0,0,.5-11.446,16.3,16.3,0,0,1,.637-3.8c.356-.705,2.485-2.188,4.039-3.271a19.912,19.912,0,0,0,3.5-2.755,22.378,22.378,0,0,0,6.437,3.082.71.71,0,0,0,.91-.565l.6-3.683.266.3c.462.517.939,1.051,1.271,1.478a1.361,1.361,0,0,1,.169.248,1.5,1.5,0,0,1,.043.428,36.848,36.848,0,0,0,.295,4.026A.709.709,0,0,0,26,124a.685.685,0,0,0,.091-.006.708.708,0,0,0,.613-.794,35.366,35.366,0,0,1-.281-3.812l1.6.825a.709.709,0,0,0,1.014-.8l-.54-2.185a10.423,10.423,0,0,0,2.215.6,5.5,5.5,0,0,1,2.678.985,5.541,5.541,0,0,1,1.235,2.232l3.759,10.156C39.147,133.281,39.681,135.045,39,137.24Z" transform="translate(0 -20.605)"/><path d="M192.663,117.67a1.549,1.549,0,0,0,.876.271,1.526,1.526,0,0,0,1.1-.459l5.643-5.51a1.547,1.547,0,0,0-2.206-2.17l-5.643,5.509a1.548,1.548,0,0,0,.028,2.189A1.628,1.628,0,0,0,192.663,117.67Zm.591-1.533,5.643-5.509a.379.379,0,0,1,.651.26.374.374,0,0,1-.1.259l-5.644,5.509a.377.377,0,0,1-.484.049h0a.379.379,0,0,1-.069-.568Z" transform="translate(-101.08 -32.93)"/><path d="M180.638,108.419a1.523,1.523,0,0,0,.266.027h.023a1.539,1.539,0,0,0,1.515-1.244l1.35-6.189a1.547,1.547,0,0,0-3.038-.591l-1.35,6.189A1.55,1.55,0,0,0,180.638,108.419Zm1.261-7.764a.38.38,0,0,1,.373-.308.363.363,0,0,1,.07.006.377.377,0,0,1,.305.427l-1.35,6.189a.377.377,0,0,1-.371.309h-.007a.394.394,0,0,1-.065-.007.377.377,0,0,1-.305-.427Z" transform="translate(-94.262 -27.433)"/><path d="M200.343,133.925a1.548,1.548,0,0,0,1.508,1.239,1.484,1.484,0,0,0,.3-.031l6.03-1.059a1.547,1.547,0,0,0-.609-3.034l-6.03,1.059A1.549,1.549,0,0,0,200.343,133.925Zm1.422-.678,6.03-1.059a.357.357,0,0,1,.076-.008.379.379,0,0,1,.316.587.369.369,0,0,1-.222.16l-6.029,1.059a.377.377,0,0,1-.429-.231h0a.4.4,0,0,1-.019-.063A.377.377,0,0,1,201.766,133.247Z" transform="translate(-105.581 -44.642)"/><path d="M41.6,57.941a1.543,1.543,0,0,0,1.4,1.413h0a1.568,1.568,0,0,0,.267,0,1.548,1.548,0,0,0,1.413-1.685l-.843-7.812a1.547,1.547,0,1,0-3.083.269Zm.409-8.2a.377.377,0,0,1,.258-.133.363.363,0,0,1,.163.023.389.389,0,0,1,.248.338l.843,7.812a.379.379,0,0,1-.346.409.368.368,0,0,1-.068,0,.382.382,0,0,1-.343-.361l-.843-7.813A.376.376,0,0,1,42.012,49.742Z" transform="translate(-19.315 0)"/><path d="M58.432,62.936h0a1.565,1.565,0,0,0,.423.241,1.555,1.555,0,0,0,1.909-.717l2.883-5.6a1.547,1.547,0,1,0-2.72-1.477l-2.883,5.6A1.543,1.543,0,0,0,58.432,62.936Zm3.527-7.007a.378.378,0,0,1,.514-.15.385.385,0,0,1,.142.53l-2.883,5.6a.379.379,0,0,1-.514.15.431.431,0,0,1-.056-.037.383.383,0,0,1-.087-.492Z" transform="translate(-28.559 -3.311)"/><path d="M20.256,61.859l3.954,4.628a1.545,1.545,0,0,0,1.953.386h0a1.585,1.585,0,0,0,.22-.148,1.546,1.546,0,0,0,.226-2.189l-3.954-4.627a1.549,1.549,0,0,0-2.175-.237,1.546,1.546,0,0,0-.226,2.189Zm.957-1.278a.375.375,0,0,1,.369-.058.412.412,0,0,1,.175.129l3.954,4.628a.38.38,0,0,1-.057.531.5.5,0,0,1-.056.039.385.385,0,0,1-.489-.109l-3.954-4.628a.379.379,0,0,1,.057-.532Z" transform="translate(-8.041 -5.888)"/><rect width="120" height="100" transform="translate(-5.566 47.647)" fill="none"/></g></svg>