<svg xmlns="http://www.w3.org/2000/svg" width="20" height="20" viewBox="0 0 20 20"><path d="M0,0H20V20H0Z" fill="none"/><g transform="translate(3 3)"><path d="M5,4.556h6a.913.913,0,0,0,1-.778h0A.913.913,0,0,0,11,3H5A1.826,1.826,0,0,0,3,4.556V15.444A1.826,1.826,0,0,0,5,17h6a.913.913,0,0,0,1-.778h0a.913.913,0,0,0-1-.778H5Z" transform="translate(-3 -3)" fill="#9e9e9e"/><path d="M20.65,11.65,17.86,8.86a.5.5,0,0,0-.86.35V11H12a1,1,0,0,0-1,1h0a1,1,0,0,0,1,1h5v1.79a.5.5,0,0,0,.85.35l2.79-2.79A.492.492,0,0,0,20.65,11.65Z" transform="translate(-7 -5)" fill="#9e9e9e"/></g></svg>