<svg xmlns="http://www.w3.org/2000/svg" width="20" height="20" viewBox="0 0 20 20"><path d="M0,0H20V20H0Z" fill="none"/><g transform="translate(1.667 3.333)"><path d="M9.225,13.017C9.042,13.008,8.858,13,8.667,13a10.73,10.73,0,0,0-5.508,1.517A2.435,2.435,0,0,0,2,16.625V18a.836.836,0,0,0,.833.833H9.717A5.8,5.8,0,0,1,8.667,15.5,5.893,5.893,0,0,1,9.225,13.017Z" transform="translate(-2 -5.5)" fill="#9e9e9e"/><circle cx="3.333" cy="3.333" r="3.333" transform="translate(3.333)" fill="#9e9e9e"/><path d="M19.345,15.168a3.615,3.615,0,0,0-.05-.525l.7-.608a.419.419,0,0,0,.083-.525l-.492-.85a.407.407,0,0,0-.492-.183l-.883.3a3.039,3.039,0,0,0-.9-.525l-.183-.908a.419.419,0,0,0-.408-.333h-.983a.419.419,0,0,0-.408.333l-.183.908a3.039,3.039,0,0,0-.9.525l-.883-.3a.413.413,0,0,0-.492.183l-.492.85a.419.419,0,0,0,.083.525l.7.608a3.615,3.615,0,0,0-.05.525,3.615,3.615,0,0,0,.05.525l-.7.608a.419.419,0,0,0-.083.525l.492.85a.407.407,0,0,0,.492.183l.883-.3a3.039,3.039,0,0,0,.9.525l.183.908a.419.419,0,0,0,.408.333h.983a.419.419,0,0,0,.408-.333l.183-.908a3.039,3.039,0,0,0,.9-.525l.883.3a.413.413,0,0,0,.492-.183l.492-.85A.419.419,0,0,0,20,16.3l-.7-.608A3.615,3.615,0,0,0,19.345,15.168ZM16.22,16.835a1.667,1.667,0,1,1,1.667-1.667A1.672,1.672,0,0,1,16.22,16.835Z" transform="translate(-3.72 -5.168)" fill="#9e9e9e"/></g></svg>